<svg width="81" height="79" viewBox="0 0 81 79" fill="none" xmlns="http://www.w3.org/2000/svg">
<path d="M0.666626 -0.408691C27.1766 -0.408691 53.6867 -0.408691 81 -0.408691C81 25.6011 81 51.611 81 78.409C54.49 78.409 27.98 78.409 0.666626 78.409C0.666626 52.3991 0.666626 26.3893 0.666626 -0.408691Z" fill="#E3E4E6" fill-opacity="0.55"/>
<path d="M0.666626 -0.408691C27.1766 -0.408691 53.6867 -0.408691 81 -0.408691C81 25.6011 81 51.611 81 78.409C54.49 78.409 27.98 78.409 0.666626 78.409C0.666626 52.3991 0.666626 26.3893 0.666626 -0.408691ZM15.1198 2.93789C15.0643 2.94612 15.0089 2.95425 14.9534 2.96223C14.8283 2.98065 14.7041 3.00166 14.5797 3.02443C14.5358 3.03239 14.4919 3.04035 14.4467 3.04855C14.0327 3.12723 13.632 3.24056 13.2306 3.36823C13.1407 3.39658 13.0505 3.4236 12.96 3.44997C12.6436 3.54327 12.3454 3.66202 12.0457 3.79887C11.9368 3.84806 11.8283 3.89319 11.7168 3.93561C11.4403 4.04547 11.177 4.1844 10.9138 4.32268C10.8868 4.33686 10.8598 4.35104 10.8319 4.36565C10.1565 4.72351 9.51979 5.14866 8.92555 5.63053C8.89012 5.6588 8.85468 5.68706 8.81817 5.71618C8.58867 5.90154 8.37074 6.09715 8.15531 6.29859C8.05902 6.38791 7.96113 6.47469 7.86212 6.56094C7.7347 6.6745 7.62264 6.79341 7.51307 6.92427C7.45127 6.99576 7.38848 7.06447 7.32339 7.13283C7.03559 7.43561 6.77813 7.75025 6.53503 8.09034C6.47897 8.16861 6.42216 8.24628 6.36525 8.32393C5.19049 9.9431 4.42644 11.849 4.10785 13.8239C4.10117 13.8651 4.09449 13.9064 4.08761 13.9489C3.93475 14.9338 3.93314 15.9121 3.93573 16.9068C3.93619 17.1507 3.93575 17.3946 3.93544 17.6385C3.935 18.0648 3.93513 18.4911 3.93564 18.9174C3.93619 19.3742 3.9364 19.8309 3.9362 20.2876C3.93619 20.3166 3.93618 20.3456 3.93617 20.3755C3.93611 20.5234 3.93604 20.6713 3.93597 20.8191C3.93547 21.886 3.93573 22.9529 3.9364 24.0197C3.93706 25.076 3.93743 26.1323 3.93741 27.1885C3.93741 27.255 3.93741 27.3215 3.93741 27.3879C3.93741 27.6551 3.9374 27.9222 3.9374 28.1893C3.93738 28.936 3.93741 29.6826 3.93747 30.4292C3.93748 30.4632 3.93748 30.4972 3.93748 30.5322C3.93758 31.6144 3.9379 32.6966 3.93838 33.7789C3.93839 33.8139 3.93841 33.849 3.93843 33.8851C3.93868 34.4546 3.93895 35.0241 3.93921 35.5936C3.94028 37.8529 3.94078 40.1123 3.94073 42.3716C3.94073 42.443 3.94073 42.5145 3.94073 42.5859C3.94072 42.7287 3.94072 42.8714 3.94072 43.0141C3.94071 43.3342 3.94071 43.6542 3.9407 43.9742C3.9407 44.0451 3.9407 44.116 3.9407 44.1869C3.94066 46.0817 3.941 47.9765 3.94149 49.8713C3.9415 49.9044 3.9415 49.9375 3.94151 49.9716C3.94163 50.4207 3.94163 50.4207 3.94174 50.8697C3.94194 51.5967 3.94208 52.3237 3.94211 53.0506C3.94211 53.0833 3.94212 53.1161 3.94212 53.1498C3.94212 53.2816 3.94213 53.4135 3.94213 53.5453C3.94218 54.7696 3.94247 55.9939 3.94324 57.2183C3.94331 57.3358 3.94338 57.4533 3.94346 57.5708C3.94347 57.5997 3.94349 57.6285 3.94351 57.6582C3.94378 58.1138 3.9438 58.5693 3.94371 59.0249C3.94363 59.4735 3.94384 59.9221 3.94431 60.3706C3.94456 60.6103 3.94469 60.85 3.94448 61.0897C3.9443 61.3081 3.94447 61.5266 3.94491 61.7451C3.94501 61.8232 3.94499 61.9013 3.94481 61.9794C3.93885 64.9006 4.89205 67.81 6.70788 70.1002C6.72864 70.1267 6.7494 70.1531 6.7708 70.1803C7.0536 70.54 7.34716 70.8858 7.66377 71.2157C7.68656 71.2395 7.70935 71.2633 7.73283 71.2878C8.02662 71.5925 8.32536 71.8769 8.6579 72.1389C8.69704 72.1719 8.73607 72.2049 8.775 72.2381C9.79439 73.0972 11.0082 73.8355 12.2625 74.2806C12.3587 74.315 12.453 74.3502 12.5475 74.3885C12.9565 74.5526 13.375 74.6632 13.8021 74.7694C13.8756 74.7879 13.9489 74.8077 14.0221 74.8278C14.2781 74.8982 14.5381 74.9431 14.7995 74.9879C14.8357 74.9941 14.872 75.0004 14.9093 75.0068C15.5476 75.1124 16.1696 75.1506 16.8157 75.149C16.9005 75.1491 16.9854 75.1492 17.0703 75.1493C17.3028 75.1496 17.5353 75.1495 17.7678 75.1492C17.9949 75.149 18.222 75.1492 18.4491 75.1494C18.9189 75.1497 19.3887 75.1497 19.8584 75.1495C20.3342 75.1493 20.81 75.1493 21.2857 75.1494C21.3309 75.1494 21.3309 75.1494 21.3769 75.1495C21.4996 75.1495 21.6222 75.1495 21.7448 75.1496C22.8857 75.15 24.0266 75.15 25.1674 75.1498C25.2012 75.1498 25.235 75.1498 25.2698 75.1498C25.3036 75.1498 25.3375 75.1498 25.3723 75.1498C26.4036 75.1496 27.4349 75.1495 28.4663 75.1496C28.5353 75.1496 28.6044 75.1496 28.6735 75.1496C28.9512 75.1496 29.2289 75.1497 29.5066 75.1497C30.2828 75.1498 31.0591 75.1498 31.8353 75.1498C31.8884 75.1498 31.8884 75.1498 31.9424 75.1498C33.0686 75.1499 34.1948 75.1498 35.321 75.1496C35.3575 75.1496 35.394 75.1496 35.4316 75.1496C36.0247 75.1495 36.6178 75.1494 37.2108 75.1493C39.5622 75.149 41.9135 75.149 44.2648 75.1493C44.8573 75.1494 45.4497 75.1495 46.0421 75.1496C46.0969 75.1496 46.0969 75.1496 46.1527 75.1496C47.2775 75.1498 48.4023 75.1499 49.527 75.1498C49.5624 75.1498 49.5977 75.1498 49.6341 75.1498C50.4096 75.1498 51.1852 75.1498 51.9607 75.1497C52.2382 75.1497 52.5158 75.1496 52.7933 75.1496C52.8623 75.1496 52.9314 75.1496 53.0004 75.1496C54.0312 75.1495 55.062 75.1496 56.0928 75.1498C56.1434 75.1498 56.1434 75.1498 56.1951 75.1498C56.2456 75.1498 56.2456 75.1498 56.2972 75.1498C57.4351 75.15 58.573 75.15 59.711 75.1495C59.8333 75.1495 59.9557 75.1495 60.0781 75.1494C60.1081 75.1494 60.1381 75.1494 60.1691 75.1494C60.6433 75.1492 61.1175 75.1493 61.5918 75.1496C62.0588 75.1498 62.5259 75.1497 62.993 75.1493C63.2425 75.1491 63.492 75.1491 63.7415 75.1494C63.9691 75.1496 64.1966 75.1495 64.4241 75.1491C64.5054 75.149 64.5867 75.1491 64.668 75.1493C65.4089 75.151 66.1546 75.1181 66.8862 74.9927C66.9453 74.9828 66.9453 74.9828 67.0055 74.9727C67.3361 74.9153 67.6582 74.838 67.9801 74.744C68.0864 74.7133 68.1929 74.6841 68.2996 74.6549C68.7615 74.5264 69.2001 74.373 69.6373 74.1756C69.7258 74.1368 69.8152 74.1014 69.9052 74.0662C71.158 73.5658 72.3497 72.7628 73.3364 71.8407C73.4137 71.7688 73.4923 71.6999 73.5727 71.6317C73.9344 71.3143 74.2761 70.966 74.573 70.5868C74.6575 70.479 74.7457 70.3752 74.8345 70.2709C75.3236 69.678 75.7241 69.0362 76.1058 68.3692C76.1228 68.34 76.1397 68.3107 76.1572 68.2805C76.6284 67.4601 76.9522 66.5447 77.2147 65.6381C77.2242 65.6057 77.2336 65.5734 77.2434 65.54C77.3776 65.0769 77.4642 64.6089 77.5404 64.1329C77.5576 64.0296 77.5769 63.9268 77.5965 63.8239C77.635 63.611 77.6596 63.399 77.6776 63.1835C77.6809 63.1453 77.6841 63.1071 77.6874 63.0677C77.7188 62.6675 77.7225 62.2689 77.7216 61.8678C77.7217 61.7861 77.7218 61.7045 77.722 61.6229C77.7223 61.4003 77.7222 61.1778 77.722 60.9553C77.7219 60.7125 77.7222 60.4697 77.7225 60.2269C77.7229 59.8019 77.723 59.377 77.7229 58.952C77.7228 58.4964 77.7229 58.0408 77.7232 57.5852C77.7232 57.5564 77.7232 57.5275 77.7232 57.4978C77.7233 57.3802 77.7234 57.2626 77.7234 57.1451C77.7242 55.9209 77.7245 54.6967 77.7245 53.4726C77.7245 53.341 77.7245 53.2093 77.7245 53.0777C77.7245 53.0451 77.7245 53.0124 77.7245 52.9787C77.7245 52.2537 77.7247 51.5287 77.7249 50.8037C77.725 50.5048 77.7251 50.2059 77.7251 49.9071C77.7251 49.874 77.7252 49.841 77.7252 49.807C77.7256 47.9152 77.726 46.0235 77.7259 44.1317C77.7259 44.061 77.7259 43.9902 77.7259 43.9195C77.7259 43.6001 77.7259 43.2807 77.7259 42.9614C77.7259 42.819 77.7259 42.6765 77.7259 42.5341C77.7259 42.4629 77.7259 42.3916 77.7259 42.3203C77.7258 40.0673 77.7264 37.8143 77.7275 35.5613C77.7277 34.9937 77.728 34.4262 77.7282 33.8586C77.7283 33.8236 77.7283 33.7887 77.7283 33.7527C77.7288 32.6745 77.7291 31.5963 77.7292 30.5181C77.7292 30.4843 77.7292 30.4504 77.7292 30.4155C77.7292 29.6716 77.7292 28.9277 77.7292 28.1838C77.7292 27.9176 77.7292 27.6514 77.7292 27.3852C77.7292 27.3189 77.7292 27.2527 77.7292 27.1865C77.7292 26.1337 77.7296 25.081 77.7303 24.0282C77.731 22.9672 77.7311 21.9061 77.7306 20.845C77.7305 20.6979 77.7305 20.5509 77.7304 20.4038C77.7304 20.3606 77.7304 20.3606 77.7304 20.3165C77.7302 19.8626 77.7305 19.4087 77.7311 18.9548C77.7316 18.507 77.7316 18.0592 77.731 17.6114C77.7307 17.3725 77.7306 17.1335 77.7313 16.8946C77.7392 13.6439 77.0519 10.6574 75.0735 8.01545C75.0556 7.99143 75.0378 7.9674 75.0194 7.94265C74.7783 7.61896 74.5156 7.32177 74.2385 7.02885C74.1457 6.93063 74.0564 6.83035 73.9694 6.72683C73.8659 6.60626 73.754 6.50348 73.6332 6.40076C73.5459 6.32454 73.4621 6.24519 73.3784 6.165C71.8063 4.66902 69.7737 3.69833 67.6939 3.16868C67.6653 3.16103 67.6366 3.15337 67.6071 3.14549C67.4168 3.09526 67.2262 3.06309 67.032 3.03405C66.8424 3.00528 66.6535 2.9751 66.4652 2.93867C66.2539 2.89993 66.0436 2.87495 65.8297 2.85676C65.7917 2.85351 65.7538 2.85027 65.7147 2.84693C65.3053 2.81449 64.8974 2.81175 64.487 2.8127C64.4023 2.8126 64.3176 2.81248 64.2329 2.81232C64.0018 2.81199 63.7706 2.81214 63.5395 2.81236C63.3135 2.81251 63.0875 2.81229 62.8615 2.81208C62.3942 2.81167 61.9269 2.81161 61.4596 2.81176C60.9865 2.81191 60.5134 2.81189 60.0403 2.81167C60.0103 2.81166 59.9803 2.81165 59.9495 2.81163C59.8274 2.81157 59.7054 2.81152 59.5833 2.81146C58.3464 2.81086 57.1096 2.81075 55.8727 2.81085C55.702 2.81086 55.5313 2.81087 55.3606 2.81089C55.3267 2.81089 55.2928 2.81089 55.2578 2.81089C54.5054 2.81094 53.7529 2.81084 53.0004 2.81071C52.8284 2.81068 52.6565 2.81065 52.4845 2.81062C52.4155 2.81061 52.3465 2.8106 52.2774 2.81059C52.2261 2.81058 52.2261 2.81058 52.1738 2.81057C52.1046 2.81056 52.0354 2.81055 51.9662 2.81054C50.0033 2.8102 48.0404 2.81002 46.0775 2.81019C46.0231 2.81019 46.0231 2.81019 45.9675 2.8102C45.5625 2.81023 45.1574 2.81027 44.7524 2.8103C44.6976 2.81031 44.6976 2.81031 44.6416 2.81031C44.4198 2.81033 44.4198 2.81033 44.198 2.81035C41.8592 2.81057 39.5203 2.81028 37.1815 2.80955C36.5921 2.80937 36.0027 2.80919 35.4133 2.80902C35.377 2.80901 35.3407 2.809 35.3033 2.80899C34.1842 2.80867 33.0652 2.80849 31.9461 2.80846C31.8934 2.80845 31.8934 2.80845 31.8396 2.80845C31.068 2.80843 30.2964 2.80845 29.5248 2.80849C29.2487 2.80851 28.9725 2.80852 28.6964 2.80854C28.6277 2.80854 28.5591 2.80854 28.4904 2.80855C27.3973 2.8086 26.3041 2.80833 25.211 2.80789C24.0792 2.80744 22.9473 2.80742 21.8154 2.80789C21.6937 2.80793 21.572 2.80798 21.4503 2.80803C21.4055 2.80804 21.4055 2.80804 21.3597 2.80806C20.8881 2.80823 20.4165 2.80801 19.9449 2.80762C19.4803 2.80726 19.0158 2.8073 18.5512 2.80779C18.303 2.80803 18.0549 2.80809 17.8067 2.80764C16.4586 2.79827 16.4586 2.79827 15.1198 2.93789Z" fill="url(#paint0_linear_2441_311)"/>
<path d="M23.7512 20.8174C23.8019 20.817 23.8019 20.817 23.8536 20.8166C23.9668 20.8159 24.0799 20.8163 24.1932 20.8167C24.2743 20.8164 24.3555 20.8161 24.4366 20.8157C24.6571 20.8148 24.8775 20.8149 25.098 20.8152C25.2819 20.8154 25.4659 20.8151 25.6498 20.8149C26.0837 20.8142 26.5175 20.8143 26.9514 20.815C27.3992 20.8157 27.8471 20.815 28.2949 20.8138C28.6793 20.8127 29.0636 20.8124 29.448 20.8127C29.6776 20.8129 29.9072 20.8129 30.1368 20.812C30.3527 20.8113 30.5686 20.8116 30.7844 20.8125C30.8637 20.8127 30.943 20.8126 31.0223 20.8121C31.1304 20.8115 31.2385 20.812 31.3466 20.8129C31.3938 20.8122 31.3938 20.8122 31.442 20.8115C31.6045 20.8143 31.6644 20.8232 31.7961 20.9315C31.8793 21.0433 31.9119 21.1244 31.9453 21.2604C32.0049 21.4818 32.0778 21.6923 32.1605 21.9056C32.2374 22.1049 32.3092 22.3021 32.3662 22.5087C32.4463 22.7928 32.5585 23.0627 32.6706 23.3346C32.7439 23.5146 32.8052 23.6869 32.8468 23.8771C32.8954 24.0669 32.97 24.2488 33.0384 24.4317C33.1346 24.6895 33.225 24.9458 33.2995 25.2112C33.3485 25.3764 33.4103 25.5364 33.4713 25.6972C33.5908 26.0163 33.7032 26.3372 33.8111 26.6606C33.8656 26.8232 33.9218 26.9841 33.9856 27.1431C34.0406 27.2804 34.0836 27.4183 34.1243 27.5608C34.1866 27.7767 34.2615 27.9845 34.342 28.1936C34.4353 28.4361 34.516 28.6779 34.587 28.9285C34.6488 29.1272 34.7236 29.3204 34.7994 29.5138C34.8569 29.6624 34.9079 29.8099 34.9504 29.9638C35.0313 30.2508 35.1469 30.5238 35.2573 30.7997C35.3976 31.1553 35.3976 31.1553 35.4364 31.327C35.4763 31.4991 35.5357 31.656 35.6001 31.8196C35.6959 32.0681 35.7797 32.3161 35.8528 32.5729C35.9064 32.7496 35.9703 32.9215 36.0344 33.0944C36.0992 33.2704 36.1586 33.4473 36.2149 33.6264C36.2858 33.8506 36.3651 34.0697 36.4493 34.2889C36.5428 34.5329 36.6251 34.777 36.697 35.029C36.8174 35.4367 36.9706 35.8342 37.1165 36.2328C37.1558 36.3405 37.1951 36.4482 37.2344 36.556C37.2546 36.6111 37.2748 36.6663 37.295 36.7215C37.4027 37.0153 37.5074 37.3094 37.6023 37.6079C37.6646 37.8037 37.7306 37.9944 37.8079 38.1843C37.8789 38.3624 37.9419 38.5406 37.9944 38.7256C38.0547 38.9375 38.1284 39.1409 38.2073 39.346C38.3014 39.5907 38.3834 39.8349 38.4555 40.0877C38.5074 40.2592 38.5692 40.4263 38.6312 40.5941C38.7115 40.812 38.7865 41.0314 38.8603 41.2517C38.9482 41.5137 39.0394 41.7732 39.1396 42.0306C39.1761 42.1337 39.2071 42.2356 39.2368 42.3409C39.2962 42.5493 39.3697 42.7501 39.4463 42.9522C39.5555 43.2436 39.6558 43.5355 39.7491 43.8328C39.7987 43.9825 39.8546 44.1283 39.9128 44.2746C39.9836 44.4528 40.0468 44.6309 40.0993 44.8159C40.1596 45.0278 40.2333 45.2313 40.3122 45.4363C40.4056 45.6789 40.4863 45.9209 40.5574 46.1716C40.6092 46.3382 40.6707 46.4997 40.7332 46.6623C40.8277 46.9081 40.911 47.1536 40.9833 47.4075C41.0373 47.59 41.1006 47.7689 41.1639 47.9482C41.1979 48.0463 41.2299 48.1441 41.2608 48.2432C41.3557 48.5395 41.4706 48.8286 41.5813 49.1189C41.7089 49.4539 41.827 49.79 41.9353 50.1322C41.9828 50.2788 42.0363 50.4201 42.0942 50.5626C42.1653 50.7408 42.2282 50.9189 42.2808 51.1039C42.3411 51.3159 42.4147 51.5193 42.4937 51.7243C42.5869 51.9665 42.6676 52.208 42.7384 52.4583C42.8024 52.6643 42.88 52.8646 42.9578 53.0654C42.9745 53.1088 42.9745 53.1088 42.9916 53.1531C43.0017 53.1789 43.0117 53.2046 43.0221 53.2311C43.0755 53.3825 43.0957 53.5233 43.1012 53.6844C43.1031 53.722 43.105 53.7595 43.1069 53.7983C43.0869 53.8994 43.0869 53.8994 43.0073 53.9641C42.8695 54.0306 42.7703 54.0331 42.6183 54.0334C42.5771 54.0337 42.5771 54.0337 42.535 54.0341C42.443 54.0346 42.3511 54.0343 42.2591 54.0341C42.1931 54.0343 42.1271 54.0346 42.0611 54.0349C41.8819 54.0356 41.7027 54.0355 41.5235 54.0353C41.3739 54.0352 41.2243 54.0354 41.0747 54.0357C40.7218 54.0362 40.3688 54.0362 40.0159 54.0357C39.6518 54.0353 39.2878 54.0358 38.9237 54.0369C38.6111 54.0378 38.2984 54.038 37.9858 54.0378C37.7991 54.0377 37.6124 54.0378 37.4257 54.0384C37.2501 54.039 37.0746 54.0389 36.899 54.0381C36.8346 54.038 36.7702 54.0381 36.7058 54.0385C36.6178 54.0391 36.5299 54.0386 36.4419 54.0379C36.3927 54.0379 36.3435 54.0379 36.2928 54.0379C36.1361 54.0145 36.0532 53.9608 35.9302 53.8599C35.8783 53.7866 35.8783 53.7866 35.8465 53.7121C35.8346 53.6845 35.8226 53.6569 35.8103 53.6285C35.7575 53.4933 35.708 53.3577 35.6623 53.2197C35.6474 53.1755 35.6474 53.1755 35.6322 53.1305C35.5765 52.9635 35.5245 52.7958 35.4757 52.6265C35.4085 52.3949 35.3293 52.1687 35.2485 51.9418C35.11 51.5527 34.9808 51.161 34.8555 50.7671C34.7908 50.5637 34.7255 50.3605 34.6601 50.1573C34.6478 50.1189 34.6355 50.0805 34.6229 50.0409C34.5501 49.8143 34.4737 49.5896 34.3934 49.3657C34.3512 49.2439 34.3181 49.1202 34.2846 48.9956C34.2064 48.7383 34.114 48.4877 34.0191 48.2367C33.9161 47.9617 33.8275 47.6889 33.7539 47.4038C33.6659 47.1029 33.5501 46.8116 33.4387 46.5194C33.3988 46.4099 33.3636 46.2987 33.3278 46.1877C29.5516 46.1877 25.7754 46.1877 21.8848 46.1877C21.8469 46.3312 21.809 46.4748 21.77 46.6227C21.7457 46.6949 21.7205 46.7667 21.6934 46.8378C21.6404 46.983 21.5991 47.1258 21.5653 47.2769C21.5034 47.5381 21.4199 47.7885 21.3323 48.0415C21.2264 48.3517 21.1267 48.6597 21.0436 48.9772C20.993 49.1546 20.9332 49.3281 20.873 49.5023C20.7505 49.8572 20.6448 50.215 20.5453 50.5775C20.524 50.6541 20.5025 50.7308 20.4807 50.8073C20.4727 50.8361 20.4646 50.8649 20.4564 50.8946C20.4305 50.9729 20.4305 50.9729 20.3927 51.0468C20.3542 51.1307 20.3365 51.2013 20.3203 51.2922C20.2689 51.5458 20.1758 51.7821 20.0864 52.0235C20.0185 52.2108 19.9598 52.3953 19.9149 52.59C19.8553 52.848 19.7722 53.0944 19.6842 53.3433C19.6693 53.3867 19.6543 53.43 19.6389 53.4747C19.4503 54.0132 19.4503 54.0132 19.2058 54.1367C19.0853 54.1518 19.0853 54.1518 18.947 54.1521C18.9215 54.1523 18.896 54.1525 18.8697 54.1527C18.7844 54.1533 18.6992 54.153 18.6139 54.1527C18.5527 54.1529 18.4914 54.1532 18.4302 54.1535C18.2641 54.1542 18.0979 54.1542 17.9318 54.154C17.7931 54.1538 17.6545 54.1541 17.5158 54.1543C17.1887 54.1549 16.8616 54.1548 16.5346 54.1544C16.197 54.1539 15.8595 54.1545 15.5219 54.1555C15.2321 54.1564 14.9424 54.1567 14.6526 54.1564C14.4795 54.1563 14.3064 54.1564 14.1333 54.1571C13.9706 54.1577 13.8079 54.1575 13.6452 54.1568C13.5855 54.1566 13.5258 54.1568 13.466 54.1572C13.3845 54.1577 13.3031 54.1572 13.2216 54.1565C13.176 54.1565 13.1304 54.1565 13.0834 54.1565C12.9441 54.1327 12.8991 54.0933 12.8146 53.9785C12.7394 53.6244 12.8691 53.2959 12.9964 52.9725C13.0306 52.8828 13.0647 52.7931 13.0986 52.7033C13.1238 52.6369 13.1238 52.6369 13.1495 52.5692C13.2113 52.3973 13.2619 52.223 13.3126 52.0473C13.3739 51.844 13.4484 51.6461 13.5226 51.4475C13.6286 51.1599 13.7282 50.8741 13.8117 50.5787C13.8624 50.4109 13.9238 50.2477 13.9847 50.0837C14.0806 49.823 14.1653 49.5588 14.2484 49.2935C14.3133 49.0881 14.386 48.8881 14.4649 48.688C14.5045 48.5844 14.5361 48.4799 14.5655 48.3727C14.6461 48.0942 14.7431 47.8227 14.8403 47.55C14.9345 47.2848 15.0227 47.0181 15.1077 46.7496C15.1765 46.5337 15.2544 46.3225 15.3349 46.1111C15.3792 45.9886 15.4168 45.8656 15.4529 45.7403C15.5098 45.543 15.5754 45.3515 15.6466 45.1595C15.7146 44.9763 15.7777 44.7942 15.8308 44.6058C15.9163 44.3076 16.0261 44.0191 16.1331 43.7285C16.2248 43.4782 16.3079 43.2288 16.3802 42.9718C16.4216 42.8338 16.4739 42.702 16.5296 42.5696C16.5691 42.4658 16.5691 42.4658 16.595 42.3355C16.6547 42.0798 16.7551 41.8374 16.8474 41.5928C16.9695 41.2691 17.0838 40.9461 17.18 40.6131C17.2346 40.4295 17.2991 40.2501 17.364 40.0702C17.4722 39.7673 17.5747 39.4633 17.6718 39.1565C17.7407 38.9403 17.8187 38.7289 17.8994 38.5172C17.9421 38.399 17.9779 38.2806 18.0123 38.1596C18.08 37.924 18.1632 37.6965 18.2491 37.4675C18.3468 37.2066 18.4364 36.947 18.5125 36.6784C18.5704 36.4885 18.637 36.3023 18.7035 36.1155C18.8402 35.7314 18.9678 35.3451 19.091 34.9562C19.2212 34.5462 19.3517 34.1374 19.5015 33.7346C19.5956 33.4793 19.678 33.2202 19.7594 32.9603C19.8228 32.7597 19.8929 32.5645 19.9731 32.3703C20.0122 32.2593 20.0385 32.147 20.0653 32.0322C20.0977 31.905 20.143 31.7838 20.1886 31.661C20.1983 31.6345 20.2081 31.6081 20.2181 31.5809C20.2489 31.4973 20.2799 31.4137 20.3109 31.3302C20.4394 30.9845 20.562 30.6405 20.6645 30.2854C20.7125 30.1235 20.7693 29.9658 20.8276 29.8076C20.9295 29.5268 21.024 29.2443 21.1143 28.9592C21.1703 28.7835 21.2307 28.6106 21.2964 28.4383C21.3586 28.2751 21.413 28.1121 21.4614 27.944C21.5264 27.7187 21.6041 27.5008 21.6854 27.2816C21.7446 27.1207 21.7972 26.9598 21.8441 26.7946C21.9047 26.5837 21.9785 26.3809 22.057 26.1767C22.15 25.9349 22.2314 25.6937 22.3022 25.4438C22.3548 25.2712 22.4163 25.1027 22.478 24.9334C22.5725 24.6734 22.6543 24.4143 22.7232 24.1456C22.7541 24.0391 22.7873 23.9423 22.8284 23.8403C23.1446 23.0373 23.2109 22.097 23.2017 21.2348C23.2031 21.0935 23.207 21.0158 23.3003 20.9089C23.4554 20.8133 23.5739 20.8156 23.7512 20.8174Z" fill="url(#paint1_linear_2441_311)"/>
<path d="M56.0484 28.3918C56.1448 28.3917 56.2412 28.391 56.3376 28.3902C56.8919 28.3881 57.44 28.429 57.9822 28.5655C58.0405 28.5797 58.0989 28.5938 58.1573 28.6078C58.1846 28.6143 58.2119 28.6209 58.24 28.6276C58.3183 28.6443 58.3959 28.6554 58.4751 28.665C58.597 28.6835 58.6804 28.7138 58.792 28.7673C58.8803 28.7923 58.9688 28.816 59.0574 28.8389C59.3433 28.916 59.6129 29.0246 59.8859 29.1465C59.9488 29.1741 60.0122 29.2 60.0757 29.2258C60.3218 29.3264 60.5495 29.4481 60.7779 29.5909C60.8821 29.6561 60.9848 29.7147 61.095 29.7662C61.2444 29.8405 61.3757 29.9313 61.512 30.0321C61.552 30.0616 61.552 30.0616 61.5927 30.0916C62.0455 30.4289 62.4672 30.7944 62.8572 31.2202C62.8777 31.2423 62.8982 31.2643 62.9193 31.287C63.2205 31.6114 63.4823 31.9451 63.7283 32.324C63.7581 32.3678 63.788 32.4113 63.8181 32.4548C63.9512 32.6492 64.073 32.8343 64.1633 33.058C64.2098 33.1637 64.2656 33.26 64.3227 33.3589C64.5804 33.8101 64.7751 34.285 64.9624 34.777C64.9765 34.8132 64.9906 34.8493 65.0052 34.8866C65.1232 35.1952 65.2185 35.5093 65.3067 35.8298C65.3298 35.9136 65.3534 35.9972 65.3771 36.0808C65.4685 36.4079 65.54 36.7327 65.5946 37.0701C65.6104 37.1859 65.6104 37.1859 65.652 37.2708C65.6648 37.3564 65.6758 37.4423 65.686 37.5283C65.6923 37.581 65.6986 37.6337 65.705 37.688C65.7083 37.7156 65.7115 37.7432 65.7148 37.7717C65.7244 37.854 65.7343 37.9363 65.7442 38.0185C65.7504 38.0718 65.7567 38.125 65.7632 38.1799C65.7717 38.252 65.7717 38.252 65.7803 38.3256C65.8223 38.7267 65.8394 39.1274 65.8409 39.5311C65.8411 39.5773 65.8414 39.6235 65.8416 39.6711C65.8422 39.8198 65.8425 39.9685 65.8426 40.1171C65.8426 40.168 65.8427 40.2188 65.8428 40.2711C65.8428 41.0507 65.821 41.8205 65.7402 42.5951C65.7288 42.7082 65.7187 42.8209 65.7098 42.9342C65.7045 42.9968 65.6991 43.0595 65.6937 43.1221C65.6917 43.1512 65.6897 43.1802 65.6876 43.2102C65.67 43.4034 65.6281 43.5106 65.5068 43.6483C65.3983 43.7298 65.3645 43.7423 65.241 43.7544C65.209 43.7576 65.1771 43.7609 65.1442 43.7643C65.1093 43.7674 65.0744 43.7706 65.0385 43.7738C65.0019 43.7774 64.9653 43.7809 64.9276 43.7845C64.8069 43.7959 64.6862 43.8065 64.5654 43.817C64.5241 43.8206 64.4828 43.8242 64.4403 43.828C63.8565 43.8785 63.2749 43.9095 62.6893 43.9089C62.6428 43.909 62.6428 43.909 62.5952 43.9091C62.2772 43.9091 61.9622 43.8968 61.6455 43.864C61.1097 43.809 60.5774 43.7993 60.0398 43.7988C59.9431 43.7984 59.8464 43.798 59.7497 43.7976C59.5437 43.7967 59.3376 43.796 59.1315 43.7956C58.8336 43.795 58.5357 43.794 58.2378 43.7928C57.7542 43.791 57.2706 43.7895 56.7869 43.7882C56.3178 43.787 55.8487 43.7856 55.3796 43.7839C55.3505 43.7838 55.3215 43.7837 55.2916 43.7836C55.1459 43.7831 55.0002 43.7826 54.8545 43.7821C53.6505 43.7779 52.4464 43.7742 51.2424 43.771C51.2706 43.9266 51.299 44.0822 51.3275 44.2378C51.3354 44.2814 51.3433 44.325 51.3514 44.3699C51.4412 44.8596 51.5447 45.3407 51.7429 45.7909C51.779 45.8778 51.8072 45.9614 51.8351 46.0517C51.8964 46.2387 51.9843 46.3981 52.0818 46.5637C52.1083 46.6092 52.1083 46.6092 52.1354 46.6556C52.6159 47.4675 53.2318 48.1355 54.0372 48.5133C54.0875 48.5396 54.1378 48.5661 54.1879 48.5928C54.9669 48.9975 55.8165 49.2717 56.6716 49.3617C56.746 49.3702 56.8201 49.3812 56.8941 49.3928C57.0564 49.4158 57.2169 49.42 57.3803 49.421C57.4117 49.4212 57.4431 49.4215 57.4754 49.4218C58.6828 49.4304 59.8506 49.3428 61.0375 49.0909C61.2021 49.0561 61.3669 49.0251 61.5324 48.9963C62.0863 48.8981 62.5938 48.7347 63.1186 48.5136C63.3391 48.4241 63.5668 48.3359 63.8009 48.3088C63.8631 48.3788 63.8421 48.4703 63.8423 48.5659C63.8426 48.6362 63.8426 48.6362 63.8429 48.708C63.843 48.7599 63.843 48.8118 63.8431 48.8653C63.8432 48.9201 63.8434 48.975 63.8436 49.0298C63.8441 49.1793 63.8443 49.3287 63.8445 49.4781C63.8446 49.5714 63.8447 49.6647 63.8449 49.7581C63.8454 50.0499 63.8457 50.3418 63.8459 50.6337C63.846 50.9708 63.8467 51.3079 63.8477 51.645C63.8485 51.9054 63.8489 52.1658 63.8489 52.4262C63.849 52.5818 63.8492 52.7373 63.8498 52.8929C63.8504 53.0394 63.8505 53.1858 63.8502 53.3322C63.8501 53.4115 63.8506 53.4908 63.8512 53.5701C63.851 53.6175 63.8508 53.6648 63.8505 53.7136C63.8506 53.7547 63.8506 53.7957 63.8507 53.838C63.8294 54.0159 63.76 54.1219 63.6449 54.2421C63.2848 54.5225 62.8146 54.6585 62.4012 54.8091C62.372 54.8197 62.3428 54.8304 62.3127 54.8414C61.7624 55.0412 61.2132 55.188 60.6431 55.2996C60.5991 55.3087 60.5551 55.3178 60.5098 55.3272C59.7717 55.4794 59.0346 55.5644 58.2865 55.6209C58.2133 55.6265 58.14 55.6326 58.0667 55.6387C57.6507 55.6717 57.2351 55.6738 56.8182 55.6729C56.7014 55.6727 56.5846 55.6729 56.4678 55.6732C55.7689 55.6735 55.0713 55.6597 54.3775 55.5577C54.3535 55.5543 54.3296 55.5508 54.3049 55.5473C53.7741 55.4703 53.2519 55.3542 52.7306 55.2179C52.6971 55.2092 52.6637 55.2005 52.6292 55.1915C52.2182 55.0825 51.8246 54.9348 51.4313 54.7623C51.3564 54.7295 51.2813 54.6977 51.2061 54.666C50.9438 54.5537 50.6956 54.423 50.4506 54.2695C50.345 54.2034 50.2397 54.1424 50.1283 54.09C50.0333 54.0443 49.9532 53.999 49.8677 53.9352C49.767 53.8617 49.6655 53.796 49.5592 53.7334C49.397 53.6337 49.2589 53.5101 49.1175 53.3768C49.0279 53.2935 49.0279 53.2935 48.9236 53.2188C48.7976 53.1231 48.6846 53.0176 48.5701 52.9055C48.5481 52.8841 48.5261 52.8627 48.5035 52.8407C48.0502 52.3975 47.6251 51.9453 47.2498 51.4159C47.2137 51.3661 47.1775 51.3163 47.1412 51.2666C46.951 51.0042 46.7712 50.7429 46.6145 50.4531C46.565 50.3618 46.5125 50.2745 46.4581 50.1869C46.2803 49.8863 46.129 49.5682 45.9794 49.2491C45.9621 49.2122 45.9448 49.1753 45.9269 49.1373C45.4639 48.1382 45.1371 47.0467 44.9473 45.9403C44.9316 45.8501 44.916 45.7599 44.9003 45.6697C44.8927 45.6253 44.885 45.5809 44.877 45.5351C44.8561 45.4169 44.8342 45.2989 44.8116 45.1811C44.7411 44.81 44.6915 44.4524 44.6792 44.0728C44.6755 43.9379 44.6755 43.9379 44.6546 43.8201C44.6358 43.6844 44.6311 43.5561 44.6301 43.4188C44.6296 43.3656 44.6291 43.3124 44.6287 43.2576C44.6284 43.1997 44.6281 43.1417 44.6278 43.0838C44.6277 43.054 44.6275 43.0243 44.6274 42.9936C44.6266 42.8349 44.6261 42.6763 44.6258 42.5176C44.6255 42.3892 44.6247 42.2607 44.6235 42.1323C44.6139 41.0465 44.6789 39.9951 44.8906 38.9316C44.8991 38.8866 44.9076 38.8416 44.9164 38.7952C44.9432 38.6548 44.9712 38.5147 44.9994 38.3746C45.0101 38.3201 45.0206 38.2656 45.0312 38.2112C45.1102 37.8119 45.21 37.4242 45.3257 37.0365C45.3533 36.9439 45.3801 36.851 45.4069 36.7581C45.5183 36.3784 45.6515 36.019 45.8079 35.66C45.8588 35.5404 45.9034 35.4228 45.9432 35.2982C46.0161 35.0827 46.1261 34.8949 46.2371 34.7024C46.3087 34.5676 46.3606 34.4308 46.415 34.2864C46.4488 34.2238 46.4842 34.1623 46.5216 34.1024C46.5861 33.9971 46.6439 33.8955 46.6986 33.783C46.8622 33.452 47.0914 33.1575 47.2989 32.8603C47.3372 32.8049 47.3749 32.7489 47.4117 32.6923C47.6348 32.3543 47.8984 32.0548 48.1572 31.7517C48.1773 31.7281 48.1975 31.7045 48.2182 31.6801C48.4614 31.3961 48.7155 31.1363 48.992 30.8932C49.0196 30.8685 49.0472 30.8439 49.0755 30.8184C49.2549 30.6591 49.4388 30.5074 49.6244 30.3574C49.6882 30.3046 49.7508 30.2497 49.8121 30.1932C49.8867 30.1277 49.95 30.083 50.0356 30.0398C50.1774 29.9637 50.3026 29.8701 50.4304 29.7675C50.539 29.6919 50.6532 29.6412 50.7706 29.585C50.8323 29.5472 50.8939 29.5093 50.9551 29.4704C51.2397 29.2897 51.5297 29.1595 51.8402 29.0467C51.9115 29.0203 51.9824 28.9926 52.0532 28.9645C52.3746 28.8385 52.6921 28.7485 53.0277 28.6805C53.0525 28.6753 53.0772 28.6702 53.1027 28.665C54.0773 28.4644 55.0588 28.3917 56.0484 28.3918Z" fill="url(#paint2_linear_2441_311)"/>
<path d="M27.0985 26.8745C27.1231 26.8745 27.1478 26.8745 27.1731 26.8745C27.2154 27.022 27.2573 27.1697 27.2991 27.3174C27.311 27.3586 27.3228 27.3999 27.335 27.4424C27.3876 27.6288 27.4371 27.8124 27.4689 28.0045C27.5197 28.3011 27.6088 28.5873 27.6911 28.8749C27.7968 29.2446 27.8966 29.6135 27.9803 29.9898C28.0262 30.1942 28.0815 30.3921 28.1461 30.5903C28.2077 30.7851 28.2656 30.9769 28.3071 31.1782C28.3685 31.4666 28.4637 31.7428 28.5561 32.0207C28.6204 32.2163 28.677 32.4096 28.7212 32.6117C28.7804 32.8813 28.8632 33.1393 28.9488 33.4C29.1155 33.91 29.1155 33.91 29.168 34.1571C29.2307 34.4178 29.3193 34.6718 29.3995 34.9266C29.4672 35.1447 29.531 35.361 29.58 35.5851C29.6448 35.8802 29.7358 36.165 29.8261 36.4516C30.0134 37.0459 30.0134 37.0459 30.0671 37.3376C30.1011 37.4954 30.1574 37.6445 30.2111 37.7954C30.2889 38.0192 30.3618 38.2409 30.4188 38.4723C30.4927 38.7702 30.5905 39.0573 30.6893 39.3463C30.7569 39.5446 30.8187 39.7414 30.8691 39.9459C30.8796 39.986 30.8901 40.0261 30.9009 40.0675C30.9104 40.1046 30.92 40.1418 30.9298 40.1801C30.9395 40.2177 30.9492 40.2552 30.9592 40.294C30.9811 40.3939 30.9811 40.3939 30.9811 40.516C28.4802 40.516 25.9792 40.516 23.4025 40.516C23.4467 40.3232 23.5035 40.1369 23.5612 39.9485C23.5728 39.9102 23.5845 39.8719 23.5966 39.8324C23.6741 39.5804 23.7567 39.3323 23.8489 39.0862C23.888 38.9682 23.9156 38.8497 23.9424 38.7278C23.976 38.5857 24.0211 38.4481 24.0652 38.3095C24.1588 38.0086 24.2423 37.7057 24.321 37.3997C24.4118 37.0472 24.5076 36.6963 24.6045 36.3457C24.6626 36.1339 24.7174 35.9224 24.7647 35.7073C24.8191 35.4648 24.8925 35.2328 24.9705 34.9983C25.0608 34.7216 25.1439 34.4493 25.2034 34.1626C25.2404 34.0047 25.2884 33.852 25.3368 33.6978C25.4226 33.4243 25.499 33.1492 25.5701 32.8707C25.6435 32.5834 25.724 32.3039 25.8226 32.0256C25.8602 31.9036 25.8893 31.7848 25.9168 31.6599C25.9763 31.3941 26.0526 31.1359 26.1316 30.8764C26.3084 30.2936 26.467 29.707 26.6131 29.1142C26.631 29.043 26.6488 28.9718 26.6667 28.9007C26.7495 28.5673 26.8219 28.2348 26.881 27.8952C26.9426 27.5526 27.0228 27.2137 27.0985 26.8745Z" fill="#E3E4E6" fill-opacity="0.55"/>
<path d="M55.7498 34.4576C55.7784 34.4573 55.807 34.4571 55.8364 34.4568C55.8965 34.4564 55.9567 34.4562 56.0169 34.4563C56.1072 34.4561 56.1974 34.4547 56.2877 34.4532C56.6521 34.4505 56.974 34.4929 57.3214 34.6233C57.3506 34.6341 57.3798 34.6449 57.4099 34.656C57.4813 34.6842 57.5512 34.7147 57.6211 34.7476C57.6454 34.7588 57.6696 34.7701 57.6946 34.7817C57.9152 34.8884 58.1026 35.0277 58.2935 35.1967C58.317 35.2164 58.3404 35.236 58.3646 35.2563C58.6523 35.5014 58.8947 35.7752 59.1037 36.1141C59.1274 36.1521 59.1511 36.1901 59.1756 36.2293C59.5425 36.8434 59.75 37.6031 59.7741 38.3503C59.7759 38.3833 59.7777 38.4162 59.7796 38.4502C59.7809 38.581 59.7805 38.6743 59.7062 38.7759C59.3557 39.0689 58.8334 38.9916 58.4259 38.9898C58.3579 38.9897 58.2898 38.9897 58.2217 38.9898C58.038 38.9898 57.8542 38.9894 57.6705 38.9888C57.478 38.9883 57.2856 38.9883 57.0932 38.9882C56.7293 38.988 56.3654 38.9873 56.0015 38.9866C55.587 38.9857 55.1725 38.9853 54.758 38.9849C53.9057 38.9841 53.0535 38.9828 52.2013 38.9811C52.2 38.7416 52.2251 38.5311 52.2681 38.2978C52.2753 38.259 52.2824 38.2203 52.2898 38.1804C52.3532 37.8545 52.4464 37.5568 52.5641 37.2534C52.602 37.1532 52.634 37.0504 52.6671 36.9479C52.8086 36.5504 53.0181 36.2032 53.2693 35.8918C53.3373 35.8086 53.3373 35.8086 53.3988 35.7125C53.6234 35.3899 53.9413 35.1759 54.2428 34.9674C54.2711 34.9461 54.2994 34.9249 54.3285 34.903C54.4277 34.8376 54.5196 34.8274 54.6317 34.8145C54.6317 34.7892 54.6317 34.764 54.6317 34.738C54.712 34.7076 54.7923 34.6773 54.8727 34.6472C54.9062 34.6345 54.9062 34.6345 54.9403 34.6215C55.2113 34.5204 55.4648 34.4585 55.7498 34.4576Z" fill="#E3E4E6" fill-opacity="0.55"/>
<defs>
<linearGradient id="paint0_linear_2441_311" x1="40.8333" y1="-0.408691" x2="40.8333" y2="78.409" gradientUnits="userSpaceOnUse">
<stop offset="0.163947" stop-color="#010208"/>
<stop offset="0.205128" stop-color="#010206"/>
<stop offset="0.247863" stop-color="#000505"/>
<stop offset="0.304584" stop-color="#010101"/>
<stop offset="0.341103" stop-color="#010101"/>
<stop offset="0.362082" stop-color="#010101"/>
<stop offset="1" stop-color="#010101"/>
</linearGradient>
<linearGradient id="paint1_linear_2441_311" x1="27.9497" y1="20.8115" x2="27.9497" y2="54.1575" gradientUnits="userSpaceOnUse">
<stop offset="0.163947" stop-color="#010208"/>
<stop offset="0.205128" stop-color="#010206"/>
<stop offset="0.247863" stop-color="#000505"/>
<stop offset="0.304584" stop-color="#010101"/>
<stop offset="0.341103" stop-color="#010101"/>
<stop offset="0.362082" stop-color="#010101"/>
<stop offset="1" stop-color="#010101"/>
</linearGradient>
<linearGradient id="paint2_linear_2441_311" x1="55.2327" y1="28.3901" x2="55.2327" y2="55.6732" gradientUnits="userSpaceOnUse">
<stop offset="0.163947" stop-color="#010208"/>
<stop offset="0.205128" stop-color="#010206"/>
<stop offset="0.247863" stop-color="#000505"/>
<stop offset="0.304584" stop-color="#010101"/>
<stop offset="0.341103" stop-color="#010101"/>
<stop offset="0.362082" stop-color="#010101"/>
<stop offset="1" stop-color="#010101"/>
</linearGradient>
</defs>
</svg>
