<svg width="77" height="75" viewBox="0 0 77 75" fill="none" xmlns="http://www.w3.org/2000/svg">
<path d="M27.7244 1.01766C13.799 1.03669 12.6694 1.04431 12.1875 1.10522C9.82807 1.40214 7.90427 2.10258 6.04215 3.33977C5.00122 4.02879 3.7868 5.13655 3.01574 6.09204C1.28085 8.25807 0.290036 10.7819 0.0818497 13.5799C0.0278754 14.2994 0.104982 62.0929 0.158956 62.6677C0.347866 64.651 0.829779 66.2727 1.71264 67.8982C2.45286 69.2724 3.52078 70.6124 4.67352 71.6136C6.99056 73.6311 9.83192 74.7922 12.8815 74.9787C13.4829 75.013 63.1585 74.9635 64.0298 74.9254C68.0201 74.7541 71.7944 72.7746 74.2155 69.5884C74.7437 68.8918 75.0444 68.4159 75.4608 67.6127C76.2165 66.1509 76.6135 64.868 76.8719 63.0294C76.949 62.4774 76.9528 58.1606 76.9181 32.2139C76.895 18.5363 76.8796 13.6674 76.8449 13.3134C76.6637 11.4177 76.2357 9.93303 75.403 8.30756C74.47 6.48794 73.1014 4.8853 71.4243 3.64431C69.381 2.13303 66.9637 1.23084 64.3768 1.02147C63.864 0.979593 57.3023 0.975786 27.7244 1.01766ZM29.3012 20.1503C29.3359 20.1922 29.4901 20.5691 29.6405 20.9878C29.9798 21.9128 30.6197 23.6639 31.1942 25.2475C31.4294 25.8947 31.7571 26.8045 31.9267 27.2651C32.2968 28.2777 32.7055 29.3969 33.4303 31.3954C33.731 32.2215 34.0857 33.1998 34.2206 33.5652C34.3555 33.9307 34.5946 34.5893 34.7565 35.0308C34.9145 35.4686 35.2384 36.3594 35.4736 37.0103C35.7087 37.6575 36.0326 38.5407 36.1868 38.9708C36.341 39.401 36.661 40.2803 36.9 40.9313C37.1352 41.5784 37.4937 42.5606 37.6942 43.1087C38.3342 44.8789 38.7737 46.0818 39.2132 47.2885C39.4522 47.9357 39.7722 48.8188 39.9264 49.249C40.0807 49.6792 40.4199 50.6042 40.6744 51.3122C41.1679 52.6674 41.2064 52.8311 41.0599 52.9644C40.9828 53.0329 40.8633 53.0367 37.4128 53.0367H33.8466L33.7233 52.9035C33.6192 52.7893 33.5112 52.5076 33.037 51.1333C32.5474 49.7172 31.6877 47.2505 31.1363 45.6707C31.0438 45.408 30.9667 45.2177 30.9667 45.2405C30.9629 45.2786 29.7446 45.29 25.0064 45.29H19.0538L18.757 46.1922C18.5989 46.6909 18.3637 47.4065 18.2403 47.7834C18.117 48.1603 17.8201 49.0663 17.5849 49.801C16.4746 53.2346 16.5324 53.0862 16.2433 53.1699C16.1469 53.2004 15.0944 53.208 12.9277 53.2004L9.75096 53.189L9.67771 53.0976C9.6353 53.0481 9.60446 52.9491 9.60446 52.8654C9.60446 52.7855 9.7818 52.2182 10.0324 51.5102C10.2676 50.844 10.5529 50.0294 10.6647 49.7058C10.7765 49.3822 11.0733 48.5409 11.3201 47.8405C11.5668 47.1401 11.856 46.3254 11.9562 46.0323C12.0564 45.7392 12.3456 44.9245 12.5923 44.2241C12.8391 43.5237 13.1359 42.6824 13.2477 42.3588C13.3595 42.0352 13.6487 41.2206 13.8838 40.5506C14.1229 39.8806 14.4082 39.066 14.52 38.7424C14.6318 38.4188 14.9171 37.6042 15.1561 36.9342C15.3913 36.2642 15.7305 35.3049 15.9079 34.8024C16.0852 34.2999 16.4322 33.314 16.6789 32.6136C16.9257 31.9131 17.2225 31.0718 17.3343 30.7483C17.4462 30.4247 17.7353 29.6101 17.9705 28.9401C18.2095 28.2701 18.4948 27.4554 18.6066 27.1319C18.7184 26.8083 19.0076 25.9937 19.2427 25.3237C20.2682 22.4305 20.3453 22.1336 20.3955 20.8736L20.4186 20.2341L20.5265 20.1427L20.6345 20.0513L24.937 20.059C29.228 20.0704 29.2357 20.0704 29.3012 20.1503ZM56.8898 27.7409C58.4705 27.9808 59.8314 28.4452 61.0304 29.1571C63.4091 30.577 65.1209 33.2912 65.6799 36.5421C65.8264 37.3948 65.8688 38.1295 65.8418 39.3325C65.8148 40.3527 65.6953 41.8792 65.6259 42.0619C65.6066 42.1114 65.5488 42.1913 65.491 42.2408C65.4062 42.3207 65.3368 42.336 64.9782 42.3664C64.7508 42.3855 64.265 42.4235 63.8987 42.454C63.066 42.5263 61.9518 42.5263 61.0535 42.454C60.4945 42.4083 59.3456 42.3969 55.1086 42.3969C52.221 42.3969 49.85 42.4121 49.8384 42.4273C49.8076 42.4768 49.9271 43.0745 50.0505 43.5008C50.2818 44.2888 50.6519 45.0349 51.0837 45.5679C51.5386 46.1351 52.2557 46.7023 52.8649 46.9802C53.6398 47.3304 54.6499 47.6311 55.5404 47.772C56.0031 47.8481 56.2228 47.8595 57.1018 47.8595C58.4049 47.8557 59.0642 47.7948 60.722 47.5169C61.655 47.3609 62.3605 47.1819 63.012 46.9421C63.2703 46.8469 63.5055 46.767 63.5363 46.7632C63.6867 46.7442 63.6944 46.8546 63.6944 49.4774C63.6944 50.8707 63.6751 52.0736 63.6597 52.1573C63.6019 52.3934 63.4631 52.4961 62.9503 52.6941C61.7321 53.1623 60.6526 53.425 59.0719 53.642C57.2985 53.8856 55.0431 53.9161 53.3313 53.7181C50.8138 53.4288 48.7859 52.6522 47.078 51.3161C46.6115 50.9544 45.5668 49.9076 45.2236 49.4584C43.7972 47.6083 42.9991 45.526 42.656 42.7775C42.5712 42.0885 42.5596 39.9872 42.6367 39.3325C42.8758 37.3111 43.3345 35.7008 44.1095 34.1553C45.0771 32.2253 46.361 30.714 47.9917 29.5758C49.7883 28.3272 51.2803 27.8361 53.8441 27.6496C53.9521 27.642 54.5573 27.642 55.1935 27.6458C56.1457 27.6534 56.4464 27.6724 56.8898 27.7409Z" fill="#E3E4E6" fill-opacity="0.55"/>
<path d="M24.856 25.8375C24.8445 25.8679 24.7558 26.2372 24.6594 26.6559C24.3202 28.1291 24.1043 28.8562 22.8474 32.8419C22.4966 33.9572 22.327 34.513 21.9838 35.6969C21.8373 36.2108 21.5328 37.1549 21.313 37.7982L20.9159 38.9707H24.9563C27.1769 38.9707 28.9966 38.9593 28.9966 38.9479C28.9966 38.8831 28.7345 38.0495 28.4569 37.2386C28.2873 36.7361 27.9557 35.7159 27.7205 34.9736C27.4854 34.2313 27.123 33.0893 26.9148 32.4422C26.7066 31.7912 26.4059 30.8586 26.2478 30.3675C26.0897 29.8764 25.7312 28.6773 25.4536 27.7028C24.9023 25.7842 24.8907 25.7499 24.856 25.8375Z" fill="#E3E4E6" fill-opacity="0.55"/>
<path d="M53.7786 33.1695C52.3482 33.3865 51.0336 34.3801 50.4129 35.7124C50.1584 36.2568 49.8153 37.414 49.8153 37.7338C49.8153 37.7985 50.0582 37.7985 54.087 37.7795C56.8705 37.7643 58.4204 37.7414 58.5476 37.7148C58.6555 37.6919 58.8175 37.6386 58.9138 37.5892L59.0873 37.5054L59.0835 37.0486C59.0642 35.7201 58.2584 34.3991 57.0324 33.6949C56.4966 33.3865 56.0493 33.2304 55.4633 33.1467C55.0894 33.0934 54.1795 33.1048 53.7786 33.1695Z" fill="#E3E4E6" fill-opacity="0.55"/>
</svg>
