<svg width="98" height="80" viewBox="0 0 98 80" fill="none" xmlns="http://www.w3.org/2000/svg">
<path d="M49.8227 0.0979118C48.2832 0.507003 46.9254 1.4759 46.3267 2.58476C46.1022 3.01538 46.0167 3.33834 45.9739 3.93045C45.9098 4.93165 46.1343 5.63141 46.7544 6.30964C47.0003 6.60031 50.0793 9.18404 53.586 12.0477L59.9473 17.269L39.9334 17.3228C17.3323 17.3874 19.5026 17.3013 17.514 18.2702C16.6908 18.6685 16.3487 18.9269 15.6965 19.5836C14.7771 20.5094 14.3815 21.1769 14.1463 22.2211C13.6652 24.2881 14.8519 26.1613 17.1184 26.9472C17.7706 27.1733 17.8989 27.1733 28.2052 27.2271L38.6398 27.2809L20.9352 40.8994C9.39943 49.781 2.94196 54.8192 2.37533 55.379C0.91064 56.8432 0.108803 58.5011 0.0125826 60.3312C-0.0194909 60.891 0.0125826 61.5585 0.0767296 61.9137C0.461612 63.7869 1.93699 65.2941 3.89348 65.8216C4.91983 66.1015 6.56627 66.0585 7.7316 65.714C9.26044 65.2618 10.1692 64.702 12.5319 62.7535C13.708 61.7846 18.1662 58.1135 22.4213 54.5932C26.6764 51.0836 30.1724 48.22 30.1831 48.2415C30.2044 48.263 30.1831 48.6183 30.1296 49.0274C29.7982 51.5788 30.2686 55.013 31.3805 58.275C31.9899 60.1051 33.5187 63.2164 34.5985 64.8527C39.2278 71.8719 46.4336 76.8886 54.9545 79.0094C61.3585 80.6027 68.2971 80.4305 74.5514 78.525C86.9745 74.7355 95.9016 64.8527 97.7512 52.8491C98.0292 51.0944 98.0826 47.4233 97.8688 45.5286C97.4412 41.8252 96.511 38.714 94.8646 35.4628C92.7584 31.2857 90.0536 28.0238 86.0444 24.8049C84.5797 23.6314 55.9915 1.49743 55.1683 0.916094C54.2596 0.24863 53.276 -0.0420404 51.8327 -0.0851026C50.8598 -0.106634 50.4428 -0.0743371 49.8227 0.0979118ZM67.2707 27.3994C75.0111 28.4652 81.661 33.7726 83.8955 40.6625C84.43 42.2989 84.6545 43.6015 84.7294 45.4317C84.847 48.586 84.2483 51.4066 82.8798 54.1087C79.2234 61.3216 71.034 65.7355 62.4597 65.1219C60.7598 64.9927 59.5944 64.8097 58.1191 64.4221C51.5333 62.6996 46.1129 57.8013 44.135 51.7833C43.1087 48.6721 42.9376 45.7116 43.6005 42.5357C44.7017 37.2391 48.4008 32.513 53.5646 29.757C57.7449 27.5393 62.4062 26.7319 67.2707 27.3994Z" fill="#E3E4E6" fill-opacity="0.55"/>
<path d="M62.6726 32.6069C62.4994 32.6294 61.969 32.7081 61.5144 32.7756C58.2456 33.2256 54.8036 35.2955 52.8445 37.9616C51.2425 40.144 50.4849 42.4388 50.4849 45.1387C50.4849 47.2648 50.8312 48.8172 51.7188 50.5946C53.8728 54.8919 58.2023 57.603 63.2679 57.8054C67.9655 57.9967 72.2518 55.9718 74.9145 52.282C76.5164 50.0546 77.3715 47.1523 77.1875 44.4975C77.0468 42.3151 76.1267 39.784 74.8495 38.0291C72.977 35.4642 69.9896 33.5631 66.7532 32.8769C65.7466 32.6631 63.3545 32.5056 62.6726 32.6069Z" fill="#E3E4E6" fill-opacity="0.55"/>
</svg>
