<svg width="82" height="82" viewBox="0 0 82 82" fill="none" xmlns="http://www.w3.org/2000/svg">
<path d="M0.333313 0C27.3933 0 54.4533 0 82.3333 0C82.3333 27.06 82.3333 54.12 82.3333 82C55.2733 82 28.2133 82 0.333313 82C0.333313 54.94 0.333313 27.88 0.333313 0Z" fill="#E3E4E6" fill-opacity="0.55"/>
<path d="M0.333313 0C27.3933 0 54.4533 0 82.3333 0C82.3333 27.06 82.3333 54.12 82.3333 82C55.2733 82 28.2133 82 0.333313 82C0.333313 54.94 0.333313 27.88 0.333313 0ZM36.093 4.27937C35.9763 4.29729 35.8595 4.31521 35.7393 4.33368C33.9456 4.61663 32.2036 4.9837 30.4826 5.56518C30.2753 5.63356 30.0673 5.69689 29.8577 5.75802C26.1447 6.8449 22.589 8.75365 19.5008 11.07C19.4421 11.1135 19.3833 11.157 19.3228 11.2018C17.1655 12.8022 15.0172 14.6481 13.3496 16.7608C13.164 16.9923 12.9702 17.2081 12.7678 17.425C8.78979 21.8757 6.23598 27.826 5.04831 33.62C5.02915 33.7118 5.01 33.8036 4.99026 33.8981C4.70382 35.289 4.54689 36.6699 4.45726 38.0868C4.43331 38.335 4.43331 38.335 4.38106 38.5699C4.31309 38.9454 4.31015 39.3175 4.30639 39.6979C4.30539 39.7813 4.30439 39.8647 4.30336 39.9506C4.28259 42.1457 4.39708 44.2646 4.74081 46.4325C4.76055 46.5597 4.78029 46.6869 4.80062 46.8179C5.82323 53.2859 8.54568 59.4505 12.7684 64.4694C12.8928 64.6196 13.015 64.7716 13.1356 64.9248C13.7422 65.6888 14.4056 66.3788 15.0972 67.0656C15.2852 67.2526 15.4722 67.4406 15.6591 67.6288C16.3616 68.3322 17.0789 68.9823 17.8608 69.5975C17.9812 69.6975 18.1012 69.798 18.2208 69.899C19.8763 71.2753 21.7132 72.4354 23.5941 73.4773C23.7861 73.5841 23.9766 73.6931 24.167 73.8028C25.0219 74.2811 25.9114 74.6744 26.8103 75.062C26.9938 75.1414 26.9938 75.1414 27.1809 75.2224C27.7858 75.4794 28.3829 75.7078 29.0157 75.8852C29.2383 75.9525 29.2383 75.9525 29.5987 76.1075C30.0421 76.2969 30.49 76.4236 30.9552 76.5483C31.053 76.5745 31.1507 76.6007 31.2515 76.6277C34.3351 77.4408 37.4771 78.0258 40.6761 78.0159C40.8825 78.0153 41.0889 78.0159 41.2953 78.0165C42.9405 78.0177 44.5607 77.9085 46.1893 77.6758C46.268 77.6647 46.3468 77.6536 46.428 77.6422C48.6358 77.329 50.8092 76.9002 52.9158 76.1575C53.0159 76.1232 53.116 76.0889 53.2192 76.0536C57.7317 74.5012 61.941 72.146 65.5233 68.9825C65.6099 68.9061 65.6964 68.8298 65.7856 68.7511C66.0415 68.5225 66.2951 68.2915 66.5483 68.06C66.6573 67.9617 66.7664 67.8635 66.8754 67.7653C67.5609 67.1446 68.1951 66.5029 68.8033 65.805C68.9095 65.691 68.9095 65.691 69.0179 65.5748C72.5286 61.8034 74.9338 57.108 76.5933 52.275C76.6285 52.1745 76.6637 52.0741 76.6999 51.9706C76.9486 51.2476 77.1432 50.5223 77.3108 49.7766C77.35 49.6038 77.35 49.6038 77.39 49.4276C77.742 47.8535 78.0358 46.2804 78.1929 44.6744C78.2174 44.4355 78.2469 44.197 78.2858 43.9601C78.3454 43.4866 78.3543 43.0234 78.3566 42.5467C78.3577 42.4002 78.3577 42.4002 78.3588 42.2507C78.3605 41.9342 78.3612 41.6176 78.3614 41.3011C78.3616 41.1934 78.3618 41.0857 78.362 40.9748C78.3622 38.8018 78.2364 36.6803 77.8233 34.5425C77.789 34.359 77.789 34.359 77.754 34.1717C77.6923 33.8556 77.6283 33.54 77.562 33.2248C77.5309 33.0768 77.5002 32.9286 77.47 32.7804C76.3585 27.4082 73.8337 22.166 70.3408 17.9375C70.275 17.8574 70.275 17.8574 70.2079 17.7756C68.6197 15.8469 66.8947 13.9265 64.9083 12.4025C64.7944 12.3094 64.6809 12.216 64.5676 12.1222C61.739 9.79204 58.4829 7.88788 55.0683 6.56C54.9642 6.51904 54.8601 6.47808 54.7528 6.43588C52.178 5.42914 49.5876 4.79189 46.8683 4.305C46.7674 4.28632 46.6665 4.26764 46.5625 4.24839C43.2414 3.65838 39.4224 3.75858 36.093 4.27937Z" fill="black"/>
<path d="M27.1917 41.0013C27.4444 41.0023 27.6971 41.0013 27.9498 41C29.7267 40.9982 31.4403 41.2071 33.1783 41.537C33.2576 41.5518 33.3369 41.5666 33.4186 41.5819C38.6748 42.5675 38.6748 42.5675 39.6674 43.485C40.315 44.6821 39.2321 46.8522 38.8069 48.0344C38.7749 48.123 38.743 48.2116 38.71 48.3028C38.6571 48.4507 38.6571 48.4507 38.6031 48.6016C37.5523 51.5255 36.3049 54.4063 34.242 56.857C34.168 56.9455 34.0939 57.0339 34.0177 57.1251C32.512 58.7985 30.0631 59.7858 27.7529 60.0034C27.3671 60.0248 26.9824 60.0324 26.596 60.0341C26.4595 60.0349 26.4595 60.0349 26.3203 60.0357C23.6531 60.0081 21.1694 58.7832 19.2691 57.1212C17.1014 55.0296 16.3922 52.436 16.4429 49.6152C16.4728 48.8361 16.6232 48.154 16.9021 47.4179C16.9394 47.316 16.9767 47.2141 17.0152 47.1091C17.9344 44.8553 19.9618 42.8065 22.3275 41.8135C23.9285 41.2093 25.4707 40.9928 27.1917 41.0013Z" fill="black"/>
<path d="M46.0569 17.9224C46.3202 18.1538 46.5716 18.3925 46.819 18.6431C47.0374 18.8684 47.0374 18.8684 47.282 19.061C48.2716 19.9377 48.8948 21.1877 49.4019 22.4227C49.4639 22.5727 49.4639 22.5727 49.5272 22.7257C50.364 24.9578 50.2962 27.3913 49.4327 29.5919C48.2898 32.3963 46.5792 34.8578 44.6357 37.0959C44.4478 37.315 44.266 37.5363 44.0849 37.7615C43.6313 38.3145 43.1442 38.8324 42.6565 39.3511C42.4953 39.5228 42.335 39.6952 42.1747 39.8678C42.0716 39.9778 41.9684 40.0878 41.8651 40.1977C41.8177 40.2489 41.7702 40.3001 41.7213 40.3529C41.3439 40.7517 41.0989 40.925 40.5719 40.9998C39.8059 40.9786 39.179 40.1566 38.6534 39.6261C38.5902 39.5628 38.527 39.4994 38.4618 39.4341C36.8976 37.8595 36.8976 37.8595 36.2069 36.9933C36.0609 36.8104 35.9123 36.6299 35.7626 36.4504C33.4517 33.6656 31.0379 30.0891 31.084 26.2297C31.084 26.128 31.0841 26.0263 31.0842 25.9215C31.0896 24.971 31.1602 24.1046 31.4468 23.2011C31.4723 23.1205 31.4979 23.0398 31.5242 22.9567C31.9511 21.6743 32.6041 20.5003 33.4636 19.4923C33.5421 19.399 33.6206 19.3058 33.7015 19.2098C36.9256 15.5775 42.2216 15.1157 46.0569 17.9224Z" fill="black"/>
<path d="M61.2327 43.2214C63.0347 44.7642 64.1771 46.6417 64.6174 48.9571C64.6357 49.0461 64.6541 49.1352 64.6731 49.2269C65.0182 51.7273 64.3486 54.2007 62.8228 56.2163C62.7817 56.2708 62.7406 56.3253 62.6982 56.3814C61.687 57.6931 60.4599 58.5944 58.9346 59.2574C58.8208 59.3076 58.7069 59.3578 58.5896 59.4095C56.3374 60.317 53.6775 60.1945 51.4377 59.3234C48.8538 58.2575 47.3154 56.1403 46.0738 53.7639C46.0392 53.698 46.0047 53.6321 45.9691 53.5642C45.3005 52.2688 44.7934 50.9057 44.2792 49.5457C44.2437 49.4531 44.2081 49.3605 44.1715 49.2652C43.9411 48.6569 43.7501 48.0456 43.5813 47.4182C43.5434 47.2783 43.5434 47.2783 43.5048 47.1357C43.4541 46.948 43.4036 46.7603 43.3534 46.5725C43.2891 46.3338 43.2226 46.0958 43.1553 45.8578C42.741 44.3657 42.741 44.3657 42.8835 43.6598C43.4048 42.882 44.5815 42.6706 45.4444 42.4397C45.5543 42.4102 45.6642 42.3806 45.7774 42.3501C46.1085 42.2621 46.4399 42.1758 46.7716 42.0903C46.8618 42.0668 46.9519 42.0434 47.0448 42.0192C51.5718 40.8632 57.3679 40.0662 61.2327 43.2214Z" fill="black"/>
</svg>
