<svg width="88" height="87" viewBox="0 0 88 87" fill="none" xmlns="http://www.w3.org/2000/svg">
<path d="M41.0758 0.00354267C39.7135 0.113543 38.881 0.196043 37.842 0.347293C25.7807 2.05917 14.9235 8.93417 8.15323 19.1435C3.97684 25.441 1.61687 32.3367 1.05956 39.8717C1.03892 40.2085 0.990757 40.5248 0.956355 40.566C0.915072 40.6142 0.901312 41.6523 0.915072 43.0067C0.956355 46.0317 1.21093 48.5548 1.76136 51.3185C4.025 62.6692 10.6714 72.5554 20.3315 78.9285C29.5099 84.9785 40.491 87.261 51.4377 85.3842C60.2445 83.8717 68.4803 79.5267 74.7896 73.071C81.5875 66.1135 85.7776 57.2654 86.8303 47.6404C87.3463 42.876 87.0986 38.421 86.0391 33.4848C84.835 27.8885 82.1448 22.0242 78.622 17.3079C76.5441 14.5235 73.7094 11.5742 71.1086 9.47729C65.2672 4.76792 58.4832 1.72229 51.0868 0.484793C48.6029 0.0654177 47.8117 0.0104177 44.4816 -0.00333233C42.7821 -0.0102073 41.2478 -0.0102073 41.0758 0.00354267ZM46.4081 14.3173C48.2658 14.7229 50.0134 15.6167 51.5684 16.9642C53.5087 18.6348 54.754 20.7523 55.3113 23.3442C55.9443 26.2798 55.3801 28.7823 53.3229 32.2404C51.9537 34.5298 49.9515 37.0254 46.9861 40.1123C45.4105 41.7485 45.0733 42.0648 44.6054 42.3054C43.8692 42.6767 43.3601 42.4223 41.7088 40.8342C38.9498 38.1942 37.1127 36.0767 35.5027 33.6842C33.1496 30.1779 32.2414 27.3935 32.5373 24.6092C32.7093 23.0348 33.1015 21.7148 33.7895 20.381C34.3675 19.2742 34.9936 18.4148 35.9155 17.4867C37.6838 15.706 39.7823 14.6335 42.3074 14.2279C43.1881 14.0835 45.5825 14.1385 46.4081 14.3173ZM31.8561 42.6835C34.5395 43.0204 37.326 43.6117 40.0782 44.4435C41.7845 44.9592 42.0528 45.1035 42.328 45.6329C42.6101 46.1898 42.4657 47.1248 41.6606 49.9092C39.8718 56.076 37.4017 60.9023 34.966 62.9785C31.2919 66.1135 25.5606 66.361 21.3842 63.5629C20.0494 62.6692 19.0724 61.6998 18.2192 60.4279C16.2514 57.4923 15.7216 53.6973 16.8225 50.3835C17.5931 48.0529 19.3545 45.7498 21.4255 44.3679C22.8428 43.4123 24.3703 42.8898 26.4894 42.6148C27.432 42.4979 30.6589 42.5392 31.8561 42.6835ZM61.8201 42.6904C63.8843 42.9585 65.3979 43.5223 66.9116 44.5673C67.7854 45.1792 69.2303 46.671 69.8564 47.606C71.0123 49.3523 71.5972 51.0642 71.7554 53.1954C71.9893 56.2892 70.9642 59.2935 68.8588 61.6998C65.9208 65.0479 61.022 66.306 56.5911 64.8485C55.6829 64.5529 54.4031 63.8998 53.7288 63.391C50.7221 61.1223 48.0388 55.8698 46.0572 48.3485C45.5205 46.2998 45.493 45.8323 45.9058 45.3648C46.2155 45.0142 46.6076 44.8423 48.0663 44.416C51.3757 43.4535 54.7127 42.8073 57.458 42.5873C58.5382 42.5048 60.8225 42.5598 61.8201 42.6904Z" fill="#E3E4E6" fill-opacity="0.55"/>
</svg>
