<svg width="76" height="76" viewBox="0 0 76 76" fill="none" xmlns="http://www.w3.org/2000/svg">
<path d="M58.14 2.3182C52.478 6.0422 46.018 8.0182 37.506 8.7022C31.312 9.1962 28.652 9.8042 24.358 11.8182C16.036 15.6942 9.80401 22.6482 6.72601 31.4642C5.66201 34.5042 5.54801 35.2642 5.39601 40.8882C5.20601 48.2222 5.81401 51.3382 8.55001 56.8862C12.654 65.2082 18.924 70.6042 28.12 73.7962C31.616 74.9742 31.92 75.0122 37.81 75.0122C43.358 75.0122 44.194 74.9362 47.272 73.9862C53.808 71.9722 59.546 68.1342 63.422 63.2702C66.994 58.7862 69.768 52.7062 70.49 47.7662C70.87 45.2962 70.148 45.4862 69.578 47.9562C68.97 50.7682 67.146 53.7702 64.448 56.4682C60.572 60.3442 56.24 62.0542 50.16 62.0922C47.12 62.1302 46.284 61.9782 44.764 61.2562C41.914 59.8502 39.9 56.7342 39.9 53.8082C39.9 53.1622 40.318 51.7562 40.812 50.6542C41.952 48.2222 43.928 46.9682 47.69 46.3222C51.034 45.7522 53.2 44.5362 54.91 42.2942C56.734 39.9382 56.658 39.5962 54.416 39.8242C52.516 39.9762 50.768 39.4062 49.856 38.2662C49.476 37.8102 49.666 37.6962 51.11 37.5062C54.644 37.0122 58.14 34.1622 59.774 30.4002C60.762 28.1202 61.332 25.6502 60.99 25.0802C60.876 24.8902 59.66 25.2702 58.292 25.9162C56.392 26.7902 55.138 27.0942 52.668 27.2462C50.92 27.3602 49.21 27.2842 48.868 27.0942C48.298 26.7902 48.526 26.6002 50.046 26.0302C53.086 24.8902 55.632 23.2942 57.684 21.2042C62.206 16.5302 63.992 11.6662 63.08 6.4602C62.586 3.5722 61.598 0.380202 61.256 0.418202C61.104 0.418202 59.698 1.2922 58.14 2.3182Z" fill="#E3E4E6" fill-opacity="0.55"/>
</svg>
