<svg width="80" height="88" viewBox="0 0 80 88" fill="none" xmlns="http://www.w3.org/2000/svg">
<path d="M37.1125 0.660018C35.6275 1.12752 36.095 0.880018 19.595 10.34C9.97 15.8675 4.525 19.14 3.755 19.8825C3.095 20.515 2.1875 21.835 1.6925 22.825L0.8125 24.6125V44V63.3875L1.6925 65.175C2.1875 66.165 3.095 67.485 3.755 68.09C4.9925 69.3 33.565 85.8825 36.425 87.0925C38.13 87.8075 40.8525 87.945 42.9425 87.395C44.785 86.955 75.035 69.575 76.52 68.1175C77.18 67.485 78.0875 66.165 78.5825 65.175L79.4625 63.3875V44V24.6125L78.5825 22.825C78.0875 21.835 77.18 20.515 76.52 19.91C75.2825 18.7 46.71 2.09002 43.85 0.907518C42.1175 0.192518 38.955 0.0825177 37.1125 0.660018ZM25.755 36.0525C32.7675 40.1775 38.845 43.6975 39.3125 43.89C40.55 44.4125 38.7625 45.3475 58.5075 33.715C63.4025 30.8275 67.445 28.6275 67.665 28.71C68.1875 28.9025 68.2425 40.755 67.6925 41.7725C67.5 42.13 65.7675 43.34 63.5125 44.66C61.395 45.8975 55.4 49.4175 50.23 52.47C45.0325 55.5225 40.495 58.025 40.165 58.025C39.23 58.025 12.995 42.57 12.5825 41.7725C12.335 41.305 12.225 39.325 12.225 35.035C12.225 29.315 12.28 28.6 12.8025 28.6C12.9125 28.6 18.7425 31.955 25.755 36.0525ZM19.4575 51.315C22.9775 53.35 26.085 55.275 26.3875 55.5775C26.8825 56.0725 26.9375 56.54 27.02 61.16C27.1025 65.0375 27.02 66.2475 26.745 66.4675C26.47 66.6875 24.7375 65.78 19.925 62.9475C16.3775 60.8575 13.1875 58.85 12.8575 58.4375C12.2525 57.75 12.225 57.5025 12.225 52.8275C12.225 48.1525 12.28 47.575 12.83 47.575C12.9675 47.575 15.9375 49.2525 19.4575 51.315ZM67.995 52.7175L68.05 57.7225L67.3075 58.5475C66.125 59.785 53.86 66.825 53.5025 66.4675C53.31 66.275 53.2 64.4325 53.2 61.2975C53.2 56.6225 53.2275 56.375 53.8325 55.715C54.6025 54.835 66.95 47.5475 67.5 47.6575C67.8575 47.7125 67.9125 48.5375 67.995 52.7175Z" fill="#E3E4E6" fill-opacity="0.55"/>
</svg>
