<svg width="92" height="88" viewBox="0 0 92 88" fill="none" xmlns="http://www.w3.org/2000/svg">
<path d="M0 0C30.36 0 60.72 0 92 0C92 29.04 92 58.08 92 88C61.64 88 31.28 88 0 88C0 58.96 0 29.92 0 0Z" fill="#E3E4E6" fill-opacity="0.55"/>
<path d="M0 0C14.4257 0 28.8514 0 43.7143 0C43.0391 0.324926 42.362 0.646237 41.6808 0.959277C39.1146 2.15094 36.6636 3.48533 34.22 4.89448C32.2141 6.04871 30.1861 7.15825 28.1429 8.25C25.6265 9.59601 23.1384 10.9792 20.6671 12.4004C18.3442 13.7306 15.9862 14.9972 13.6138 16.2438C9.46379 18.4481 6.40302 20.5613 4.85714 25.025C4.82951 25.5164 4.81859 26.0088 4.81702 26.501C4.81539 26.8074 4.81375 27.1138 4.81207 27.4295C4.81175 27.766 4.81143 28.1024 4.81111 28.449C4.80969 28.8032 4.80827 29.1575 4.80681 29.5225C4.80306 30.4953 4.80121 31.4682 4.79995 32.4411C4.79911 33.0499 4.79794 33.6588 4.79666 34.2677C4.79275 36.1756 4.78999 38.0836 4.78889 39.9915C4.78761 42.1881 4.78261 44.3847 4.77432 46.5813C4.76812 48.2823 4.76526 49.9832 4.76488 51.6842C4.76458 52.6984 4.76292 53.7126 4.75778 54.7268C4.75215 55.8615 4.75345 56.9961 4.7553 58.1307C4.75267 58.4622 4.75004 58.7936 4.74732 59.135C4.76449 62.5172 5.31971 65.6221 7.88309 68.0871C9.42608 69.4637 11.1187 70.4073 12.9643 71.3625C13.6022 71.6994 14.2398 72.0367 14.8772 72.3744C15.3674 72.6332 15.3674 72.6332 15.8675 72.8973C17.4711 73.7524 19.057 74.6366 20.6429 75.5219C21.2663 75.8693 21.8898 76.2166 22.5134 76.5639C22.8126 76.7306 23.1119 76.8973 23.4202 77.069C24.7062 77.7837 25.9957 78.4922 27.2857 79.2C29.2424 80.274 31.1956 81.3535 33.1463 82.4375C33.7926 82.7966 34.4391 83.1553 35.0858 83.5137C36.3927 84.2383 37.6989 84.9633 38.9944 85.7065C40.634 86.642 42.0988 87.4322 44 87.725C44 87.8158 44 87.9065 44 88C29.48 88 14.96 88 0 88C0 58.96 0 29.92 0 0Z" fill="black"/>
<path d="M48 0C62.52 0 77.04 0 92 0C92 29.04 92 58.08 92 88C77.6686 88 63.3371 88 48.5714 88C48.9486 87.8185 49.3257 87.637 49.7143 87.45C52.7524 85.9573 55.7628 84.4334 58.691 82.7484C60.3562 81.7911 62.0411 80.8706 63.7321 79.9563C66.2771 78.5782 68.8048 77.1741 71.3232 75.7515C72.919 74.8517 74.5206 73.9628 76.1306 73.0866C76.4001 72.9396 76.4001 72.9396 76.6751 72.7897C77.5501 72.3126 78.4259 71.8369 79.3032 71.3638C83.2962 69.1886 86.082 67.0567 87.4286 62.7C87.5137 61.9194 87.5137 61.9194 87.5031 61.1107C87.5051 60.8 87.5071 60.4893 87.5092 60.1693C87.5085 59.8324 87.5078 59.4955 87.507 59.1484C87.5085 58.7904 87.51 58.4325 87.5115 58.0637C87.5153 57.0847 87.5155 56.1057 87.5147 55.1266C87.5144 54.3073 87.5158 53.488 87.5172 52.6687C87.5204 50.7342 87.5205 48.7996 87.5188 46.8651C87.517 44.8746 87.5206 42.8843 87.5266 40.8938C87.5317 39.1807 87.5334 37.4676 87.5325 35.7545C87.5319 34.7332 87.5327 33.712 87.5367 32.6907C87.541 31.5501 87.5383 30.4096 87.5349 29.269C87.5371 28.9343 87.5393 28.5996 87.5416 28.2548C87.5263 25.8631 87.2431 23.5567 85.8036 21.5359C85.6787 21.3534 85.5539 21.1708 85.4252 20.9827C83.6057 18.9562 81.4338 17.7345 79 16.4828C78.3061 16.12 77.6135 15.7551 76.9208 15.3903C76.7465 15.2989 76.5723 15.2075 76.3928 15.1133C74.714 14.2302 73.0601 13.308 71.4107 12.375C70.8464 12.0563 70.282 11.7376 69.7176 11.4189C69.4364 11.26 69.1551 11.1011 68.8654 10.9374C66.4365 9.56934 63.996 8.22044 61.5564 6.87017C60.8743 6.49264 60.1924 6.11489 59.5106 5.73687C58.6104 5.23784 57.7097 4.7397 56.8087 4.24214C56.4659 4.05272 56.1233 3.86305 55.7809 3.67311C52.1034 1.4215 52.1034 1.4215 48 0.275C48 0.18425 48 0.0935 48 0Z" fill="black"/>
<path d="M17.0676 29C18.5235 29.1366 19.5222 29.4067 20.7673 30.138C21.0772 30.3174 21.3872 30.4967 21.7065 30.6815C21.9501 30.8256 21.9501 30.8256 22.1986 30.9725C22.8924 31.3828 23.5906 31.7859 24.2886 32.1895C24.6509 32.3991 25.013 32.6091 25.3748 32.8195C27.1921 33.8748 29.0326 34.8905 30.8767 35.9023C33.2443 37.2053 35.6043 38.5196 37.9545 39.8514C38.216 39.9985 38.4775 40.1457 38.7469 40.2973C39.9807 40.9933 41.2035 41.7 42.4101 42.4386C42.6318 42.5715 42.8536 42.7044 43.0821 42.8413C43.4899 43.0863 43.8946 43.3364 44.2947 43.5928C45.5658 44.3481 46.4857 44.5082 47.9659 44.263C48.9267 44.0081 49.6712 43.5865 50.5049 43.0666C50.8871 42.8348 51.2699 42.6037 51.653 42.3731C51.8617 42.2461 52.0705 42.1191 52.2856 41.9883C53.5771 41.2175 54.898 40.4945 56.2146 39.764C56.8185 39.4274 57.4224 39.0907 58.0262 38.7538C58.3406 38.5784 58.655 38.403 58.9789 38.2223C60.5709 37.3326 62.1603 36.4387 63.7499 35.5451C66.5992 33.9432 69.4507 32.3452 72.3127 30.7641C72.5145 30.6527 72.7162 30.5412 72.924 30.4263C73.1088 30.3255 73.2935 30.2247 73.4838 30.1208C73.923 29.8722 74.3464 29.5983 74.7665 29.3211C75.6141 28.9179 76.0034 29.0709 76.9008 29.2796C76.923 31.0457 76.9383 32.8119 76.9489 34.5781C76.9533 35.1788 76.9592 35.7795 76.9668 36.3801C76.9775 37.2442 76.9824 38.1081 76.9863 38.9722C76.9908 39.2402 76.9953 39.5082 77 39.7843C77.0006 42.193 77.0006 42.193 76.0252 43.2588C75.331 43.7448 75.331 43.7448 74.5054 44.185C74.0454 44.4341 74.0454 44.4341 73.5761 44.6882C73.2466 44.8624 72.917 45.0365 72.5775 45.2159C72.2343 45.4007 71.8913 45.5859 71.5486 45.7715C71.024 46.0555 70.4994 46.3392 69.9739 46.6217C68.3218 47.5101 66.6902 48.4296 65.0618 49.3573C64.5347 49.6566 64.0076 49.9558 63.4805 50.255C63.1078 50.4668 63.1078 50.4668 62.7276 50.6828C59.6159 52.4497 56.493 54.1985 53.3688 55.945C53.0711 56.1115 52.7733 56.278 52.4666 56.4495C51.9072 56.7619 51.3471 57.0732 50.7862 57.3831C50.3389 57.6343 49.8954 57.892 49.4597 58.1612C48.2261 58.9102 47.4106 59.1453 45.9627 58.9156C44.8421 58.4412 43.8031 57.8566 42.7521 57.2555C42.4522 57.0885 42.1523 56.9214 41.8434 56.7493C40.9759 56.2644 40.1122 55.774 39.2497 55.281C39.0432 55.1635 38.8367 55.046 38.6239 54.9249C37.761 54.4333 36.9011 53.9371 36.0425 53.4386C34.5796 52.5923 33.1015 51.771 31.6246 50.9474C31.0257 50.6132 30.4267 50.279 29.8278 49.9448C29.514 49.7698 29.2002 49.5947 28.8769 49.4143C27.2073 48.4826 25.5384 47.5498 23.8706 46.6153C23.4978 46.4065 23.1249 46.198 22.7519 45.9896C22.2273 45.6965 21.703 45.4028 21.1789 45.1089C20.878 44.9405 20.5772 44.7722 20.2672 44.5987C17.7719 43.1524 17.7719 43.1524 17.0676 42.1405C16.9974 41.5408 16.9974 41.5408 17.0014 40.839C17.0014 40.576 17.0014 40.313 17.0015 40.042C17.0045 39.7589 17.0075 39.4758 17.0106 39.1841C17.0114 38.8936 17.0123 38.6031 17.0131 38.3039C17.0164 37.3751 17.0237 36.4465 17.0311 35.5178C17.0341 34.8886 17.0367 34.2593 17.0391 33.6301C17.0456 32.0867 17.0553 30.5434 17.0676 29Z" fill="#010101"/>
<path d="M76.8903 48.2053C76.9143 49.5068 76.9319 50.8083 76.9435 52.11C76.9484 52.5525 76.955 52.995 76.9634 53.4375C76.9751 54.0747 76.9806 54.7117 76.9849 55.3489C76.9899 55.5458 76.9949 55.7427 77 55.9455C77.0005 57.1238 76.8717 57.888 75.9225 58.8032C75.1194 59.2689 75.1194 59.2689 74.1632 59.6957C73.8123 59.8547 73.4614 60.0137 73.0999 60.1776C72.7272 60.3424 72.3544 60.5073 71.9704 60.6772C71.5875 60.8496 71.2049 61.0223 70.8225 61.1955C70.0695 61.5363 69.3157 61.8761 68.5613 62.2151C67.2711 62.7997 65.9981 63.4045 64.7316 64.0213C64.0537 64.3511 63.3749 64.6797 62.695 65.0068C62.4071 65.155 62.4071 65.155 62.1133 65.3063C60.5911 66.0628 60.5911 66.0628 59.7238 65.9389C59.4379 65.8614 59.4379 65.8614 59.1462 65.7822C59.1142 64.4439 59.0909 63.1056 59.0753 61.7671C59.0688 61.312 59.06 60.857 59.0489 60.402C59.0332 59.7468 59.0259 59.0919 59.0202 58.4366C59.0135 58.2341 59.0069 58.0316 59 57.8229C58.9995 56.8837 59.0893 56.2936 59.7012 55.4834C60.4393 54.9239 61.1236 54.5264 62.0069 54.1262C62.4706 53.9131 62.4706 53.9131 62.9435 53.6956C63.2741 53.5472 63.6046 53.3987 63.9452 53.2457C64.6423 52.928 65.3392 52.6099 66.0359 52.2916C66.3908 52.1299 66.7457 51.9683 67.1114 51.8017C68.1553 51.3184 69.1851 50.8203 70.2123 50.3145C70.532 50.1583 70.8517 50.002 71.181 49.841C71.7909 49.5419 72.3987 49.2401 73.0042 48.9353C73.2798 48.8013 73.5554 48.6674 73.8393 48.5294C74.0789 48.4103 74.3186 48.2912 74.5654 48.1685C75.4595 47.89 75.9828 47.9955 76.8903 48.2053Z" fill="#020202"/>
<path d="M17.3552 48C18.7519 48.1021 19.6486 48.4947 20.8234 49.1604C21.1965 49.3693 21.5702 49.5774 21.9443 49.785C22.1632 49.9064 22.3822 50.0279 22.6078 50.1531C23.5601 50.6692 24.5236 51.1663 25.4888 51.6626C25.8655 51.8571 26.2421 52.0517 26.6186 52.2463C27.1871 52.5401 27.756 52.8332 28.3266 53.1237C28.8681 53.3999 29.4074 53.6792 29.9465 53.9592C30.2624 54.1214 30.5782 54.2835 30.9036 54.4506C31.8003 55.0053 32.3295 55.4073 32.8812 56.2519C32.9798 57.0238 33.0161 57.6963 32.9935 58.4649C32.9919 58.6749 32.9903 58.8848 32.9886 59.1012C32.9822 59.7686 32.9678 60.4357 32.9531 61.1031C32.9473 61.5569 32.9421 62.0107 32.9374 62.4645C32.9247 63.5741 32.9049 64.6836 32.8812 65.7931C32.1857 66.0191 31.8482 66.0913 31.1467 65.8494C30.94 65.7397 30.7334 65.6301 30.5204 65.5171C30.1658 65.3321 30.1658 65.3321 29.8039 65.1434C29.5504 65.0068 29.2969 64.8701 29.0357 64.7294C28.7723 64.5908 28.5089 64.4522 28.2376 64.3093C27.6773 64.0138 27.1178 63.7169 26.5593 63.4186C25.6915 62.9556 24.8207 62.4972 23.9491 62.0399C20.8789 60.4253 20.8789 60.4253 19.3678 59.6042C19.1888 59.5088 19.0097 59.4134 18.8252 59.3151C17.9105 58.8057 17.4307 58.4503 17.0677 57.5412C17.0158 56.8246 16.9939 56.1349 17.0014 55.4188C17.0016 55.2148 17.0017 55.0109 17.0018 54.8007C17.0027 54.3709 17.005 53.9411 17.0085 53.5113C17.0138 52.8509 17.0144 52.1906 17.0144 51.5301C17.0158 51.1126 17.0174 50.6951 17.0194 50.2775C17.0197 50.079 17.02 49.8805 17.0204 49.676C17.0343 48.2878 17.0343 48.2878 17.3552 48Z" fill="#010101"/>
</svg>
