<svg width="80" height="78" viewBox="0 0 80 78" fill="none" xmlns="http://www.w3.org/2000/svg">
<path d="M12.4586 0.139417C8.30791 0.701368 4.77356 2.87112 2.50315 6.25064C1.22361 8.15503 0.513616 10.0126 0.170324 12.3775C0.0220843 13.3687 0.0142822 14.2038 0.0142822 38.9999C0.0142822 63.796 0.0220843 64.6311 0.170324 65.6223C0.419991 67.3784 0.817898 68.6741 1.53569 70.1101C3.4394 73.8955 6.88793 76.635 10.9684 77.595C12.6927 78.0009 11.3741 77.9853 40 77.9853C63.8276 77.9853 66.652 77.9697 67.518 77.8604C72.3085 77.2438 76.311 74.4028 78.4799 70.0789C78.9481 69.1345 79.4396 67.7453 79.6268 66.8165C80.0013 64.9745 79.9857 66.2701 79.9857 38.9999C79.9857 11.7297 80.0013 13.0253 79.6268 11.1833C79.4396 10.2545 78.9481 8.86527 78.4799 7.92088C76.311 3.59698 72.3085 0.756002 67.518 0.139417C66.652 0.0301487 63.851 0.0145389 39.8986 0.0223438C17.9279 0.0301487 13.0984 0.0457584 12.4586 0.139417ZM32.0809 20.0262C36.255 20.6194 39.4305 22.4067 41.342 25.2243C42.0051 26.1999 42.6449 27.7843 42.9258 29.1423C43.5968 32.358 42.9882 36.198 41.4434 38.5004C39.329 41.6458 36.06 43.4097 31.4567 43.8936C30.8482 43.956 29.4984 43.995 27.8912 43.9872H25.2931V49.3804C25.2931 54.1336 25.2775 54.7892 25.1682 54.9453L25.0512 55.117H21.6339C19.0904 55.117 18.201 55.0936 18.1307 55.0233C17.9903 54.8828 17.9981 20.1901 18.1385 20.0965C18.2868 19.995 24.8015 19.8545 28.1408 19.878C30.4346 19.8936 31.4021 19.9326 32.0809 20.0262ZM60.9486 28.3072C62.1814 28.4789 63.0474 28.674 63.8666 28.9706C64.4752 29.197 64.5688 29.2516 64.6624 29.4858C64.7483 29.6887 64.7717 30.3365 64.7717 32.5921C64.7717 35.714 64.7795 35.6828 64.3035 35.6828C64.1787 35.6828 63.812 35.558 63.4843 35.4097C62.2984 34.8711 60.5039 34.4028 58.8265 34.1999C57.6796 34.0516 55.6666 34.1297 55.0112 34.3482C53.9111 34.6994 53.4664 35.7531 54.036 36.6272C54.4417 37.2438 55.9241 38.0711 58.0463 38.875C60.0982 39.6555 61.8771 40.5531 63.0942 41.4194C63.7028 41.8487 64.8107 43.0272 65.154 43.5892C65.7859 44.6584 66.098 45.8838 66.098 47.3277C66.098 49.357 65.5363 50.9726 64.3191 52.4243C62.8367 54.196 60.5273 55.3043 57.4923 55.7023C56.4078 55.8428 53.958 55.8584 52.7096 55.7336C50.3066 55.4994 47.5524 54.7501 46.9283 54.1726L46.7488 54.0009V50.8555C46.7488 48.1706 46.7644 47.7101 46.8659 47.6243C46.9595 47.5462 47.1623 47.6165 48.0128 48.0458C50.2832 49.1775 53.0841 49.7941 55.5652 49.7082C57.1724 49.6536 57.9604 49.435 58.4676 48.8965C58.9279 48.4126 58.9825 47.7023 58.6002 47.1326C58.1633 46.4692 57.3363 46.0087 54.6289 44.9316C51.2038 43.5736 49.1909 42.2077 48.005 40.436C47.0843 39.0701 46.7878 37.9619 46.8502 36.1589C46.8971 34.8165 47.0453 34.1453 47.5524 33.076C48.7306 30.6097 51.0634 28.955 54.2388 28.354C55.4091 28.1277 55.456 28.1277 57.8668 28.1511C59.3336 28.1667 60.3479 28.2214 60.9486 28.3072Z" fill="#E3E4E6" fill-opacity="0.55"/>
<path d="M26.2137 26.4496L25.2931 26.4809V32.0535V37.6262L25.6442 37.6809C25.8392 37.7043 26.8613 37.7121 27.9224 37.6965C30.0446 37.6496 30.8638 37.5404 32.2526 37.0799C33.103 36.8067 33.5789 36.5413 34.2733 35.9716C34.9053 35.4409 35.3188 34.8321 35.6231 33.9657C35.8181 33.3882 35.8571 33.1618 35.8883 32.2487C35.9195 31.3433 35.8961 31.0857 35.7557 30.5316C35.2096 28.354 33.8598 27.1833 31.2617 26.6135C30.5283 26.4574 28.2735 26.3794 26.2137 26.4496Z" fill="#E3E4E6" fill-opacity="0.55"/>
</svg>
