<svg width="79" height="78" viewBox="0 0 79 78" fill="none" xmlns="http://www.w3.org/2000/svg">
<path d="M0.666626 0C26.4066 0 52.1466 0 78.6666 0C78.6666 25.74 78.6666 51.48 78.6666 78C52.9266 78 27.1866 78 0.666626 78C0.666626 52.26 0.666626 26.52 0.666626 0Z" fill="#E3E4E6" fill-opacity="0.55"/>
<path d="M27.1825 19.5041C27.3875 19.5038 27.5924 19.5032 27.7973 19.5026C31.4676 19.4927 31.4676 19.4927 32.9157 19.8499C33.0214 19.8749 33.0214 19.8749 33.1293 19.9004C36.2374 20.6537 39.2258 22.166 40.9824 25.0171C42.7241 28.0618 43.2338 31.6033 42.3847 35.0387C41.5949 38.0376 39.8886 40.3692 37.2889 41.9798C35.8776 42.8104 34.3652 43.2236 32.7891 43.5949C32.7276 43.6098 32.6661 43.6248 32.6027 43.6402C32.0035 43.7759 31.3933 43.8228 30.783 43.8737C30.7233 43.8787 30.6636 43.8838 30.6021 43.889C29.6512 43.9676 28.7042 44.0007 27.7503 43.9986C27.664 43.9985 27.664 43.9985 27.5759 43.9984C26.9489 43.9966 26.3243 43.9776 25.6984 43.94C25.637 43.9364 25.5756 43.9328 25.5123 43.9291C25.363 43.9203 25.2138 43.9114 25.0645 43.9025C25.0648 43.9589 25.0651 44.0153 25.0654 44.0734C25.072 45.445 25.077 46.8167 25.0801 48.1883C25.0816 48.8517 25.0837 49.515 25.0872 50.1783C25.0902 50.7564 25.0921 51.3344 25.0928 51.9125C25.0931 52.2187 25.0941 52.5248 25.0962 52.8309C25.0983 53.1191 25.0989 53.4071 25.0985 53.6952C25.0985 53.801 25.0991 53.9068 25.1003 54.0126C25.1018 54.1569 25.1012 54.3013 25.1006 54.4457C25.1009 54.5265 25.1012 54.6073 25.1014 54.6906C25.0546 54.9564 24.973 55.0468 24.7645 55.2078C24.5435 55.2382 24.3504 55.2499 24.1294 55.2476C24.0655 55.2482 24.0016 55.2487 23.9357 55.2493C23.7245 55.2506 23.5133 55.2497 23.3021 55.2487C23.1553 55.2489 23.0085 55.2492 22.8617 55.2496C22.554 55.25 22.2464 55.2494 21.9387 55.2479C21.5443 55.2462 21.1499 55.2472 20.7555 55.249C20.4523 55.2501 20.1492 55.2498 19.846 55.249C19.7006 55.2488 19.5551 55.249 19.4097 55.2498C19.2064 55.2505 19.0033 55.2493 18.8 55.2476C18.7399 55.2483 18.6797 55.2489 18.6177 55.2495C18.3715 55.2457 18.2036 55.2358 17.9994 55.0882C17.8179 54.8345 17.8237 54.6163 17.828 54.3135C17.8277 54.2538 17.8273 54.1941 17.827 54.1326C17.8262 53.9313 17.8275 53.7301 17.8288 53.5289C17.8287 53.3837 17.8284 53.2384 17.8281 53.0932C17.8274 52.6932 17.8286 52.2931 17.8301 51.8931C17.8314 51.4621 17.831 51.031 17.8307 50.6C17.8306 49.8529 17.8315 49.1058 17.8332 48.3587C17.8356 47.2785 17.8364 46.1983 17.8368 45.1181C17.8375 43.3657 17.8394 41.6132 17.8423 39.8608C17.845 38.1582 17.8472 36.4556 17.8484 34.753C17.8485 34.7006 17.8485 34.6481 17.8486 34.594C17.849 34.0671 17.8493 33.5402 17.8497 33.0133C17.8528 28.5934 17.8581 24.1736 17.8649 19.7537C18.0713 19.6479 18.2436 19.6609 18.4746 19.654C18.5729 19.6509 18.6712 19.6478 18.7724 19.6447C18.8821 19.6417 18.9918 19.6387 19.1015 19.6357C19.2167 19.6323 19.3319 19.629 19.4471 19.6256C19.8274 19.6147 20.2078 19.6049 20.5882 19.5951C20.6532 19.5934 20.7181 19.5917 20.785 19.59C22.9175 19.5344 25.0494 19.5062 27.1825 19.5041Z" fill="url(#paint0_linear_2441_312)"/>
<path d="M56.1828 27.6255C56.2692 27.6255 56.2692 27.6255 56.3574 27.6256C57.3721 27.6272 58.3769 27.6694 59.3855 27.7906C59.447 27.7979 59.5086 27.8052 59.572 27.8127C60.6464 27.9469 61.6922 28.2282 62.7066 28.6167C62.7654 28.6391 62.8241 28.6615 62.8847 28.6846C63.0791 28.7937 63.1483 28.8754 63.2597 29.074C63.2806 29.2706 63.289 29.4489 63.287 29.6453C63.2872 29.7024 63.2875 29.7595 63.2878 29.8183C63.2884 30.0068 63.2874 30.1952 63.2863 30.3837C63.2863 30.5147 63.2863 30.6458 63.2864 30.7768C63.2864 31.0513 63.2856 31.3257 63.2843 31.6002C63.2827 31.9522 63.2826 32.3042 63.2831 32.6563C63.2834 32.9268 63.2829 33.1973 63.2822 33.4678C63.2819 33.5976 63.2818 33.7275 63.2819 33.8573C63.2819 34.0386 63.281 34.2198 63.2798 34.4011C63.28 34.4548 63.2802 34.5086 63.2804 34.564C63.2775 34.8397 63.2659 34.9529 63.1135 35.189C62.6628 35.2412 62.3767 35.1423 61.9805 34.9201C60.135 33.9675 57.9917 33.6465 55.9452 33.6414C55.894 33.641 55.8428 33.6407 55.79 33.6403C54.9365 33.638 53.9545 33.662 53.2451 34.2076C52.916 34.5466 52.7943 34.8336 52.7745 35.3117C52.7811 35.8196 52.9139 36.1047 53.2451 36.4724C53.681 36.8308 54.1546 37.1221 54.6523 37.3783C54.7183 37.4125 54.7842 37.4466 54.8522 37.4818C55.6629 37.8882 56.5052 38.2184 57.3466 38.5501C58.3948 38.9648 59.4138 39.4286 60.386 40.0112C60.4506 40.0497 60.5151 40.0883 60.5816 40.1281C62.42 41.2419 63.8537 42.7006 64.4224 44.8837C64.9059 46.952 64.5069 49.1482 63.479 50.9671C62.0585 53.261 59.7287 54.3584 57.2322 54.9342C55.0911 55.3932 52.7641 55.3064 50.6135 54.9683C50.5318 54.9557 50.4501 54.9432 50.3659 54.9303C46.9095 54.3824 46.9095 54.3824 46.0369 53.4891C45.8949 53.2356 45.9051 53.0002 45.9079 52.7154C45.9077 52.6561 45.9074 52.5968 45.9071 52.5357C45.9065 52.3398 45.9075 52.1441 45.9086 51.9483C45.9086 51.8121 45.9086 51.676 45.9085 51.5399C45.9085 51.2548 45.9093 50.9696 45.9106 50.6845C45.9122 50.3188 45.9123 49.953 45.9118 49.5873C45.9115 49.3063 45.912 49.0253 45.9128 48.7443C45.913 48.6094 45.9131 48.4745 45.913 48.3397C45.913 48.1513 45.9139 47.963 45.9151 47.7747C45.9149 47.7188 45.9147 47.6629 45.9145 47.6054C45.9174 47.3255 45.927 47.2052 46.0814 46.966C46.4193 47.0122 46.6926 47.1586 46.9905 47.3199C48.3996 48.06 49.857 48.5769 51.4176 48.8533C51.4875 48.8678 51.5575 48.8823 51.6295 48.8973C53.2747 49.2356 55.5535 49.4318 57.0463 48.4759C57.3104 48.22 57.5336 47.9191 57.58 47.5422C57.5823 47.0316 57.5128 46.7185 57.1788 46.3243C56.7102 45.8941 56.2291 45.5757 55.662 45.3004C55.5908 45.2655 55.5197 45.2306 55.4464 45.1946C54.8024 44.8851 54.1446 44.6171 53.4827 44.352C50.7338 43.2498 47.8903 41.7712 46.5591 38.8823C45.796 36.9756 45.7898 34.8356 46.5324 32.9172C46.8729 32.1081 47.3327 31.3856 47.9088 30.7349C47.9643 30.6715 48.0197 30.6082 48.0767 30.5429C50.1787 28.2551 53.2439 27.6216 56.1828 27.6255Z" fill="url(#paint1_linear_2441_312)"/>
<path d="M26.0706 26.008C26.1498 26.0075 26.2289 26.007 26.3105 26.0065C26.397 26.0065 26.4835 26.0064 26.5727 26.0063C26.6625 26.006 26.7524 26.0058 26.8422 26.0055C27.0315 26.0051 27.2208 26.0049 27.4101 26.005C27.6025 26.005 27.7948 26.0045 27.9871 26.0034C30.5016 25.9899 30.5016 25.9899 31.5723 26.3803C31.6285 26.4004 31.6846 26.4205 31.7425 26.4411C32.9469 26.8852 33.8927 27.6709 34.4995 28.9614C35.1054 30.453 35.1251 32.1879 34.6749 33.7473C34.2598 35.0245 33.4056 35.8898 32.354 36.4909C32.0109 36.6549 31.6577 36.7818 31.302 36.9045C31.2248 36.9321 31.2248 36.9321 31.146 36.9602C30.0133 37.3311 28.8367 37.3863 27.6662 37.3727C27.4563 37.3703 27.2465 37.3696 27.0367 37.3691C26.902 37.3684 26.7672 37.3676 26.6325 37.3667C26.5704 37.3664 26.5083 37.3661 26.4443 37.3658C26.3576 37.3647 26.3576 37.3647 26.269 37.3635C26.1934 37.3628 26.1934 37.3628 26.1163 37.362C25.9513 37.3501 25.7965 37.3137 25.6348 37.2752C25.6333 35.8188 25.6321 34.3624 25.6314 32.9061C25.631 32.2299 25.6306 31.5537 25.6298 30.8775C25.6292 30.2884 25.6287 29.6992 25.6286 29.1101C25.6285 28.7979 25.6283 28.4858 25.6278 28.1737C25.6274 27.8802 25.6272 27.5868 25.6273 27.2933C25.6273 27.1853 25.6272 27.0773 25.6269 26.9692C25.6266 26.8224 25.6267 26.6755 25.6268 26.5287C25.6268 26.4463 25.6267 26.3639 25.6266 26.2791C25.642 25.9337 25.8057 26.0091 26.0706 26.008Z" fill="#E3E4E6" fill-opacity="0.55"/>
<path d="M78.5864 64.9995C78.6129 64.9995 78.6394 64.9995 78.6666 64.9995C78.6666 69.2895 78.6666 73.5795 78.6666 77.9995C74.0334 77.9995 69.4002 77.9995 64.6266 77.9995C64.6266 77.9746 64.6266 77.9496 64.6266 77.9239C64.7298 77.919 64.7298 77.919 64.835 77.9139C68.1146 77.7284 71.138 76.4468 73.6122 74.4472C73.6706 74.4015 73.7289 74.3558 73.789 74.3087C74.1711 74.0044 74.4938 73.6734 74.8157 73.3135C74.8818 73.2436 74.9478 73.1738 75.0159 73.1018C76.6609 71.3494 77.7351 69.1944 78.2705 66.9174C78.2909 66.8313 78.2909 66.8313 78.3117 66.7435C78.4434 66.1665 78.5219 65.5862 78.5864 64.9995Z" fill="url(#paint2_linear_2441_312)"/>
<path d="M0.666626 64.9995C0.690852 64.9995 0.715078 64.9995 0.740038 64.9995C0.747738 65.071 0.747738 65.071 0.755595 65.144C0.981253 67.2 1.45882 68.9973 2.42851 70.8271C2.45195 70.8722 2.4754 70.9173 2.49955 70.9638C3.05042 72.0191 3.76439 72.9338 4.59416 73.7782C4.7075 73.8936 4.81909 74.0108 4.92766 74.1308C6.42906 75.7562 8.62169 76.9086 10.724 77.4765C10.7744 77.4903 10.8248 77.504 10.8768 77.5182C11.6275 77.7192 12.3748 77.8444 13.1466 77.9248C13.1466 77.9495 13.1466 77.9741 13.1466 77.9995C9.02823 77.9995 4.90983 77.9995 0.666626 77.9995C0.666626 73.7095 0.666626 69.4195 0.666626 64.9995Z" fill="url(#paint3_linear_2441_312)"/>
<path d="M64.6266 0C69.2598 0 73.893 0 78.6666 0C78.6666 4.29 78.6666 8.58 78.6666 13C78.64 13 78.6134 13 78.586 13C78.5812 12.956 78.5764 12.9121 78.5714 12.8668C78.2253 9.81486 77.0167 7.09056 74.8742 4.76163C74.8195 4.70112 74.7648 4.64062 74.7084 4.57828C74.3603 4.2008 73.9916 3.87148 73.5832 3.55233C73.5128 3.49484 73.4424 3.43736 73.3698 3.37813C70.868 1.36411 67.8704 0.405904 64.6266 0.0755814C64.6266 0.0506395 64.6266 0.0256977 64.6266 0Z" fill="url(#paint4_linear_2441_312)"/>
<path d="M0.666626 0C4.78503 0 8.90343 0 13.1466 0C13.1466 0.0249419 13.1466 0.0498837 13.1466 0.0755814C13.1064 0.0777857 13.0661 0.0799901 13.0246 0.0822612C11.5247 0.172685 10.087 0.494786 8.70459 1.13372C8.63259 1.16671 8.63259 1.16671 8.55913 1.20037C7.02132 1.91512 5.68423 2.93535 4.50025 4.20451C4.4047 4.30693 4.30785 4.40809 4.20747 4.50506C2.07866 6.60552 0.986509 9.99269 0.737134 13C0.713867 13 0.690599 13 0.666626 13C0.666626 8.71 0.666626 4.42 0.666626 0Z" fill="url(#paint5_linear_2441_312)"/>
<defs>
<linearGradient id="paint0_linear_2441_312" x1="30.3066" y1="19.5" x2="30.3066" y2="55.25" gradientUnits="userSpaceOnUse">
<stop offset="0.163947" stop-color="#010208"/>
<stop offset="0.205128" stop-color="#010206"/>
<stop offset="0.247863" stop-color="#000505"/>
<stop offset="0.304584" stop-color="#010101"/>
<stop offset="0.341103" stop-color="#010101"/>
<stop offset="0.362082" stop-color="#010101"/>
<stop offset="1" stop-color="#010101"/>
</linearGradient>
<linearGradient id="paint1_linear_2441_312" x1="55.2666" y1="27.6255" x2="55.2666" y2="55.2505" gradientUnits="userSpaceOnUse">
<stop offset="0.163947" stop-color="#010208"/>
<stop offset="0.205128" stop-color="#010206"/>
<stop offset="0.247863" stop-color="#000505"/>
<stop offset="0.304584" stop-color="#010101"/>
<stop offset="0.341103" stop-color="#010101"/>
<stop offset="0.362082" stop-color="#010101"/>
<stop offset="1" stop-color="#010101"/>
</linearGradient>
<linearGradient id="paint2_linear_2441_312" x1="71.6466" y1="64.9995" x2="71.6466" y2="77.9995" gradientUnits="userSpaceOnUse">
<stop offset="0.163947" stop-color="#010208"/>
<stop offset="0.205128" stop-color="#010206"/>
<stop offset="0.247863" stop-color="#000505"/>
<stop offset="0.304584" stop-color="#010101"/>
<stop offset="0.341103" stop-color="#010101"/>
<stop offset="0.362082" stop-color="#010101"/>
<stop offset="1" stop-color="#010101"/>
</linearGradient>
<linearGradient id="paint3_linear_2441_312" x1="6.90663" y1="64.9995" x2="6.90663" y2="77.9995" gradientUnits="userSpaceOnUse">
<stop offset="0.163947" stop-color="#010208"/>
<stop offset="0.205128" stop-color="#010206"/>
<stop offset="0.247863" stop-color="#000505"/>
<stop offset="0.304584" stop-color="#010101"/>
<stop offset="0.341103" stop-color="#010101"/>
<stop offset="0.362082" stop-color="#010101"/>
<stop offset="1" stop-color="#010101"/>
</linearGradient>
<linearGradient id="paint4_linear_2441_312" x1="71.6466" y1="0" x2="71.6466" y2="13" gradientUnits="userSpaceOnUse">
<stop offset="0.163947" stop-color="#010208"/>
<stop offset="0.205128" stop-color="#010206"/>
<stop offset="0.247863" stop-color="#000505"/>
<stop offset="0.304584" stop-color="#010101"/>
<stop offset="0.341103" stop-color="#010101"/>
<stop offset="0.362082" stop-color="#010101"/>
<stop offset="1" stop-color="#010101"/>
</linearGradient>
<linearGradient id="paint5_linear_2441_312" x1="6.90663" y1="0" x2="6.90663" y2="13" gradientUnits="userSpaceOnUse">
<stop offset="0.163947" stop-color="#010208"/>
<stop offset="0.205128" stop-color="#010206"/>
<stop offset="0.247863" stop-color="#000505"/>
<stop offset="0.304584" stop-color="#010101"/>
<stop offset="0.341103" stop-color="#010101"/>
<stop offset="0.362082" stop-color="#010101"/>
<stop offset="1" stop-color="#010101"/>
</linearGradient>
</defs>
</svg>
