<svg width="210" height="81" viewBox="0 0 210 81" fill="none" xmlns="http://www.w3.org/2000/svg">
<g clip-path="url(#clip0_2424_550)">
<path d="M0 0.5C69.3 0.5 138.6 0.5 210 0.5C210 26.9 210 53.3 210 80.5C140.7 80.5 71.4 80.5 0 80.5C0 54.1 0 27.7 0 0.5Z" fill="url(#paint0_linear_2424_550)"/>
<path d="M108.086 10.1441C112.497 9.98788 116.942 10.3189 121.1 11.9286C121.243 11.982 121.386 12.0354 121.534 12.0905C124.665 13.2672 127.563 14.7727 130.2 16.8516C130.34 16.9588 130.48 17.0661 130.625 17.1765C131.798 18.092 132.886 19.0942 133.964 20.1196C134.192 20.337 134.422 20.5529 134.652 20.7685C135.717 21.7965 136.614 22.9388 137.504 24.1191C137.697 24.3752 137.894 24.6291 138.091 24.8826C141.145 28.9177 143.166 33.8434 144.025 38.8297C144.057 39.0073 144.089 39.185 144.122 39.368C144.41 41.1388 144.445 42.8865 144.441 44.6758C144.44 44.9072 144.44 44.9072 144.44 45.1432C144.429 49.1081 143.86 52.8142 142.625 56.5879C142.587 56.7086 142.549 56.8293 142.509 56.9536C140.957 61.7861 138.043 66.2721 134.4 69.7747C134.263 69.9123 134.127 70.0499 133.986 70.1916C127.271 76.928 117.692 80.5181 108.248 80.544C99.2067 80.5278 91.0459 76.1979 84.7 69.9505C77.9447 63.1121 74.6756 54.0627 74.6699 44.5163C74.7246 39.4959 75.8152 34.5344 78.05 30.0385C78.1099 29.9145 78.1699 29.7904 78.2317 29.6627C79.6467 26.7484 81.5127 24.1936 83.65 21.7747C83.8018 21.6007 83.9536 21.4266 84.1101 21.2472C84.9554 20.2929 85.8223 19.4249 86.8 18.6099C86.9462 18.4807 87.0924 18.3515 87.243 18.2184C93.1334 13.0969 100.351 10.4624 108.086 10.1441Z" fill="#E3E4E6" fill-opacity="0.55"/>
<path d="M150.325 11.7527C154.541 11.7527 158.757 11.7527 163.1 11.7527C163.928 12.6882 164.725 13.6027 165.494 14.5804C165.992 15.21 166.499 15.8328 167.005 16.456C167.804 17.442 168.592 18.4357 169.371 19.438C170.079 20.3462 170.803 21.2402 171.529 22.1336C172.137 22.883 172.735 23.6387 173.327 24.4011C174.044 25.3259 174.781 26.2341 175.525 27.1374C176.35 28.1381 177.16 29.1476 177.955 30.1724C178.565 30.9564 179.186 31.7294 179.813 32.5C180.518 33.3685 181.216 34.2421 181.902 35.1264C182.619 36.0512 183.356 36.9593 184.1 37.8626C184.925 38.8633 185.735 39.8729 186.53 40.8977C187.14 41.6817 187.761 42.4547 188.388 43.2253C189.111 44.1159 189.827 45.0118 190.531 45.9176C191.491 47.1508 192.472 48.3646 193.473 49.5646C193.617 49.7391 193.762 49.9136 193.911 50.0934C194.043 50.2514 194.175 50.4094 194.311 50.5721C194.6 50.9615 194.6 50.9615 194.6 51.3132C194.716 51.3132 194.831 51.3132 194.95 51.3132C194.95 38.2582 194.95 25.2033 194.95 11.7527C199.801 11.7527 204.652 11.7527 209.65 11.7527C209.65 33.8591 209.65 55.9655 209.65 78.7418C205.781 78.7418 201.912 78.7418 197.925 78.7418C195.777 76.1915 195.777 76.1915 195.059 75.2582C194.363 74.3587 193.655 73.4705 192.938 72.5879C192.232 71.7195 191.534 70.8458 190.848 69.9615C190.131 69.0367 189.395 68.1286 188.65 67.2253C187.826 66.2251 187.016 65.216 186.221 64.1918C185.411 63.1499 184.579 62.1263 183.748 61.1017C183.228 60.4604 182.713 59.8145 182.2 59.1676C181.808 58.6762 181.412 58.1876 181.016 57.6992C180.117 56.5921 179.229 55.4789 178.354 54.3532C177.646 53.445 176.922 52.551 176.196 51.6576C175.588 50.9082 174.99 50.1525 174.398 49.3901C173.579 48.3342 172.734 47.3011 171.884 46.27C171.249 45.498 170.625 44.7189 170.013 43.9286C169.193 42.8702 168.348 41.8331 167.496 40.8008C166.719 39.8591 165.961 38.9062 165.2 37.9506C165.142 51.4116 165.085 64.8727 165.025 78.7418C160.174 78.7418 155.323 78.7418 150.325 78.7418C150.325 56.6354 150.325 34.529 150.325 11.7527Z" fill="#E3E4E6" fill-opacity="0.55"/>
<path d="M35.4371 0.466117C35.6121 0.463961 35.6121 0.463961 35.7907 0.46176C36.1775 0.457393 36.5642 0.454487 36.951 0.451952C37.149 0.450548 37.149 0.450548 37.351 0.449115C38.0497 0.444417 38.7483 0.441009 39.4469 0.438473C40.1688 0.435544 40.8906 0.42767 41.6125 0.418716C42.1674 0.412801 42.7222 0.410768 43.2771 0.409774C43.5432 0.408592 43.8093 0.405912 44.0754 0.401705C44.4479 0.396151 44.8201 0.396132 45.1926 0.397436C45.4045 0.396014 45.6164 0.394592 45.8348 0.393127C46.375 0.500029 46.375 0.500029 46.7763 0.898356C47.0319 1.30977 47.2491 1.69561 47.4363 2.14147C47.4986 2.28811 47.561 2.43474 47.6253 2.58582C47.6909 2.74404 47.7566 2.90226 47.8242 3.06528C47.8952 3.23319 47.9663 3.40109 48.0394 3.57409C48.1929 3.93732 48.3458 4.30082 48.4981 4.66455C48.8243 5.44369 49.1536 6.22154 49.4827 6.99947C49.6531 7.4023 49.8234 7.8052 49.9935 8.20816C50.8243 10.1752 51.6715 12.1349 52.5219 14.0934C52.8114 14.761 53.1007 15.4286 53.39 16.0962C53.4967 16.3423 53.4967 16.3423 53.6055 16.5934C54.3927 18.4105 55.1748 20.2299 55.9562 22.0495C56.0254 22.2105 56.0945 22.3715 56.1658 22.5374C56.4396 23.1751 56.7135 23.8128 56.9873 24.4505C57.5922 25.8592 58.1982 27.2675 58.8045 28.6756C59.8722 31.1551 60.9388 33.6351 62.0047 36.1154C62.074 36.2767 62.1433 36.4381 62.2148 36.6043C62.781 37.9218 63.3471 39.2393 63.9132 40.5568C64.4072 41.7064 64.9013 42.8559 65.3953 44.0055C65.4647 44.167 65.534 44.3284 65.6055 44.4947C66.6012 46.8114 67.5976 49.1277 68.5947 51.4438C69.6311 53.8509 70.666 56.2586 71.7007 58.6665C72.5935 60.7441 73.4867 62.8215 74.3809 64.8985C74.7201 65.6865 75.0593 66.4745 75.3984 67.2625C75.7257 68.0228 76.0529 68.7831 76.3802 69.5434C76.7573 70.4194 77.1343 71.2956 77.5112 72.1717C77.6569 72.5103 77.8026 72.8489 77.9483 73.1874C78.392 74.2178 78.8345 75.2486 79.275 76.2802C79.3248 76.3969 79.3747 76.5135 79.4261 76.6336C79.5544 76.9347 79.6817 77.2362 79.8089 77.5378C79.8762 77.6971 79.9435 77.8564 80.0128 78.0206C80.15 78.3901 80.15 78.3901 80.15 78.7418C78.0827 78.7621 76.0155 78.7778 73.9481 78.7873C72.9882 78.7919 72.0284 78.7982 71.0685 78.8081C70.1426 78.8176 69.2168 78.8229 68.2908 78.8252C67.9371 78.8268 67.5834 78.83 67.2297 78.8347C66.7352 78.8411 66.241 78.842 65.7465 78.8416C65.5994 78.8447 65.4524 78.8479 65.3009 78.8512C64.8927 78.8475 64.8927 78.8475 64.225 78.7418C63.8859 78.3376 63.8859 78.3376 63.7 77.8627C63.6471 77.751 63.5942 77.6394 63.5396 77.5243C63.4949 77.4164 63.4501 77.3084 63.404 77.1972C63.3516 77.0717 63.2991 76.9461 63.2451 76.8168C63.1895 76.6817 63.1339 76.5465 63.0765 76.4073C63.0165 76.2628 62.9564 76.1184 62.8945 75.9695C62.6956 75.491 62.4978 75.012 62.3 74.533C62.1595 74.1941 62.0189 73.8551 61.8783 73.5163C60.5924 70.4149 59.3168 67.3092 58.0419 64.2033C56.8396 61.2745 55.6317 58.3481 54.4223 55.4224C54.2547 55.0169 54.0872 54.6114 53.9196 54.2059C52.6954 51.2431 51.4616 48.2845 50.2171 45.3302C47.7318 39.43 45.3056 33.5054 42.8989 27.5724C42.2869 26.0648 41.6706 24.559 41.045 23.057C40.9555 22.8409 40.9555 22.8409 40.8641 22.6203C40.6316 21.9754 40.6316 21.9754 40.25 21.4231C38.4333 25.7431 36.6342 30.0701 34.8497 34.4036C34.2914 35.7591 33.732 37.1141 33.1726 38.4691C32.9886 38.9149 32.8046 39.3608 32.6207 39.8066C32.042 41.209 31.4632 42.6112 30.8839 44.0133C30.6115 44.6726 30.3392 45.3318 30.0669 45.9911C29.9376 46.3041 29.8083 46.6171 29.6789 46.9301C29.499 47.3652 29.3193 47.8004 29.1395 48.2356C29.0875 48.3613 29.0355 48.487 28.9819 48.6165C28.5881 49.5708 28.2052 50.5292 27.825 51.489C28.0317 51.4867 28.2384 51.4844 28.4514 51.4819C30.3981 51.4606 32.3448 51.4447 34.2916 51.4344C35.2925 51.4289 36.2934 51.4214 37.2942 51.4095C38.2598 51.398 39.2254 51.3917 40.1911 51.3889C40.5597 51.387 40.9284 51.3832 41.2971 51.3775C41.813 51.3699 42.3285 51.3688 42.8444 51.3693C42.9973 51.3655 43.1503 51.3617 43.3078 51.3578C43.7151 51.362 44.0586 51.3756 44.45 51.489C44.8854 51.9934 44.8854 51.9934 45.15 52.544C45.2286 52.7055 45.3073 52.8671 45.3883 53.0336C45.4599 53.2031 45.5315 53.3727 45.6053 53.5474C45.6896 53.7452 45.7739 53.943 45.8608 54.1468C45.952 54.3635 46.0432 54.5801 46.1344 54.7967C46.3337 55.266 46.5338 55.735 46.7339 56.204C46.7873 56.3294 46.8406 56.4548 46.8956 56.5839C47.3483 57.645 47.8104 58.7017 48.2747 59.7576C48.3466 59.9213 48.4185 60.085 48.4926 60.2536C48.7808 60.9095 49.0691 61.5653 49.3585 62.2207C49.5615 62.6808 49.7638 63.1412 49.9659 63.6017C50.0276 63.7408 50.0893 63.88 50.1528 64.0233C50.575 64.9875 50.575 64.9875 50.575 65.3791C41.1617 65.4372 31.7485 65.4952 22.05 65.555C20.9578 68.0788 19.8776 70.6004 18.8453 73.1484C18.7258 73.4425 18.6063 73.7365 18.4868 74.0306C18.4284 74.1742 18.37 74.3178 18.3098 74.4657C18.04 75.1292 17.7701 75.7927 17.5 76.4561C17.4537 76.57 17.4073 76.684 17.3596 76.8014C17.2367 77.1034 17.113 77.4051 16.9893 77.7068C16.9223 77.8707 16.8553 78.0346 16.7862 78.2035C16.625 78.566 16.625 78.566 16.45 78.7418C15.9547 78.7585 15.4636 78.7639 14.9683 78.7617C14.8129 78.7618 14.6576 78.7618 14.4975 78.7618C13.9814 78.7617 13.4654 78.7603 12.9493 78.7589C12.5925 78.7586 12.2357 78.7584 11.8789 78.7582C10.9379 78.7575 9.99681 78.7558 9.05575 78.7539C8.09626 78.7521 7.13678 78.7513 6.17729 78.7504C4.29319 78.7485 2.40909 78.7455 0.524994 78.7418C0.651204 78.0616 0.838523 77.4864 1.1163 76.8517C1.24764 76.5496 1.24764 76.5496 1.38162 76.2414C1.42891 76.1337 1.47621 76.026 1.52493 75.9151C1.67749 75.5677 1.82901 75.2199 1.98028 74.872C2.19872 74.3697 2.41752 73.8676 2.63653 73.3656C3.14072 72.2086 3.63886 71.0489 4.13727 69.8894C4.31167 69.4837 4.48621 69.078 4.66078 68.6724C5.65798 66.3553 6.65393 64.0377 7.64987 61.7201C8.9516 58.6909 10.2547 55.6623 11.5585 52.634C11.905 51.8291 12.2515 51.0241 12.5979 50.2191C12.6558 50.0847 12.7137 49.9503 12.7733 49.8118C12.9488 49.4038 13.1244 48.9959 13.3 48.5879C14.5869 45.5978 14.5869 45.5978 15.2115 44.147C16.9429 40.1254 18.6723 36.103 20.4009 32.0803C21.1654 30.3013 21.93 28.5223 22.6946 26.7434C22.902 26.2609 23.1093 25.7785 23.3167 25.296C23.4194 25.0571 23.4194 25.0571 23.5242 24.8133C23.9451 23.8339 24.366 22.8545 24.7869 21.875C26.2601 18.4467 27.7336 15.0186 29.2095 11.5915C29.8661 10.0667 30.5214 8.54146 31.176 7.01583C31.4056 6.48068 31.6353 5.94554 31.865 5.4104C32.0144 5.06225 32.1637 4.71406 32.313 4.36584C32.5208 3.88096 32.7288 3.39619 32.9369 2.91143C32.9989 2.76651 33.061 2.62159 33.1249 2.47227C33.1825 2.33818 33.2401 2.20408 33.2995 2.06592C33.3493 1.94967 33.3992 1.83342 33.4505 1.71365C33.954 0.586893 34.1767 0.479585 35.4371 0.466117Z" fill="#E3E4E6" fill-opacity="0.55"/>
<path d="M121.308 28.6868C125.601 32.0752 128.343 36.1776 129.325 41.6428C129.37 41.8704 129.37 41.8704 129.415 42.1026C129.667 43.4689 129.736 44.7933 129.73 46.1813C129.729 46.3983 129.728 46.6152 129.727 46.8388C129.668 51.2481 128.08 55.2541 125.125 58.522C125.044 58.6124 124.962 58.7028 124.878 58.7959C121.213 62.8157 116.073 65.363 110.634 65.6051C105.37 65.7643 100.346 64.2783 96.4359 60.6209C96.1617 60.3565 95.8903 60.0898 95.6208 59.8206C95.3981 59.5998 95.1691 59.3853 94.9395 59.1717C92.0731 56.4559 90.1702 52.3968 89.6 48.5C89.5806 48.3765 89.5612 48.2529 89.5412 48.1257C88.8534 42.7558 90.1307 37.4716 93.4044 33.1308C94.0697 32.2888 94.8084 31.5154 95.55 30.7417C95.6517 30.6284 95.7535 30.5151 95.8583 30.3983C97.5481 28.568 99.7836 27.3543 102.025 26.3461C102.184 26.2741 102.343 26.202 102.507 26.1277C108.63 23.644 116.029 24.8343 121.308 28.6868Z" fill="url(#paint1_linear_2424_550)"/>
</g>
<defs>
<linearGradient id="paint0_linear_2424_550" x1="105" y1="0.5" x2="105" y2="80.5" gradientUnits="userSpaceOnUse">
<stop offset="0.163947" stop-color="#010208"/>
<stop offset="0.205128" stop-color="#010206"/>
<stop offset="0.247863" stop-color="#000505"/>
<stop offset="0.304584" stop-color="#010101"/>
<stop offset="0.341103" stop-color="#010101"/>
<stop offset="0.362082" stop-color="#010101"/>
<stop offset="1" stop-color="#010101"/>
</linearGradient>
<linearGradient id="paint1_linear_2424_550" x1="109.545" y1="24.8264" x2="109.545" y2="65.6166" gradientUnits="userSpaceOnUse">
<stop offset="0.163947" stop-color="#010208"/>
<stop offset="0.205128" stop-color="#010206"/>
<stop offset="0.247863" stop-color="#000505"/>
<stop offset="0.304584" stop-color="#010101"/>
<stop offset="0.341103" stop-color="#010101"/>
<stop offset="0.362082" stop-color="#010101"/>
<stop offset="1" stop-color="#010101"/>
</linearGradient>
<clipPath id="clip0_2424_550">
<rect width="210" height="80" fill="white" transform="translate(0 0.5)"/>
</clipPath>
</defs>
</svg>
