<svg width="190" height="57" viewBox="0 0 190 57" fill="none" xmlns="http://www.w3.org/2000/svg">
<g clip-path="url(#clip0_2424_521)">
<path d="M0.553314 0C1.18669 0 1.82007 0 2.47264 0C2.49023 8.01134 2.50782 16.0227 2.52595 24.2768C2.64911 24.0489 2.77226 23.821 2.89915 23.5862C3.00142 23.422 3.10379 23.2612 3.21238 23.1015C3.23985 23.0608 3.26733 23.0201 3.29564 22.9782C3.51924 22.6511 3.75686 22.3436 4.01876 22.0457C4.05443 22.0043 4.0901 21.9629 4.12685 21.9203C6.41745 19.3192 9.87631 17.5437 13.3488 17.2647C13.5489 17.2566 13.7489 17.2547 13.9492 17.2539C14.0346 17.2534 14.0346 17.2534 14.1216 17.253C14.2418 17.2525 14.362 17.2521 14.4823 17.2519C14.6621 17.2514 14.8418 17.2498 15.0216 17.2481C15.7745 17.2444 16.4987 17.2977 17.2408 17.424C17.3112 17.436 17.3112 17.436 17.3831 17.4482C18.104 17.5721 18.7888 17.7709 19.48 18.0084C19.5377 18.0279 19.5377 18.0279 19.5965 18.0478C21.3088 18.6319 22.8214 19.6075 24.1535 20.8174C24.267 20.9199 24.3821 21.0199 24.4982 21.1193C24.8634 21.4371 25.1898 21.7851 25.5045 22.1519C25.5472 22.1997 25.5899 22.2475 25.6338 22.2967C26.4762 23.2497 27.1486 24.3521 27.6904 25.4986C27.7068 25.5332 27.7231 25.5677 27.74 25.6034C28.116 26.4073 28.3883 27.2357 28.5741 28.1027C28.5951 28.2002 28.6173 28.2975 28.6397 28.3948C28.6839 28.5973 28.7223 28.8003 28.7567 29.0047C28.7641 29.0484 28.7714 29.0921 28.779 29.1371C29.0019 30.524 28.9934 31.9354 28.7967 33.3241C28.7885 33.3823 28.7885 33.3823 28.7802 33.4416C28.7008 33.9913 28.5802 34.5239 28.4368 35.0606C28.4122 35.1549 28.4122 35.1549 28.3871 35.2512C27.8567 37.2546 26.7698 39.114 25.3531 40.622C25.2493 40.7325 25.1499 40.8454 25.0513 40.9604C24.0905 42.0598 22.8792 42.9486 21.6126 43.6664C21.5748 43.6878 21.537 43.7092 21.4981 43.7313C20.8149 44.1145 20.1086 44.4071 19.3733 44.6757C19.3138 44.698 19.2542 44.7203 19.1928 44.7433C19.0408 44.7973 18.8888 44.8442 18.7336 44.8882C18.6979 44.8983 18.6622 44.9084 18.6254 44.9188C16.5861 45.4814 14.2594 45.5897 12.1759 45.2069C12.1187 45.1971 12.1187 45.1971 12.0603 45.187C10.8779 44.9768 9.6756 44.5149 8.60381 43.9851C8.53683 43.9526 8.53683 43.9526 8.46849 43.9194C6.69566 43.0537 5.03388 41.8146 3.8055 40.2665C3.77059 40.2247 3.73567 40.1829 3.6997 40.1398C3.25145 39.5993 2.88754 39.0077 2.52595 38.4073C2.50836 40.4934 2.49076 42.5795 2.47264 44.7288C1.83926 44.7288 1.20588 44.7288 0.553314 44.7288C0.553314 29.9683 0.553314 15.2078 0.553314 0Z" fill="#E3E4E6" fill-opacity="0.55"/>
<path d="M90.4583 17.0954C90.4956 17.0954 90.5329 17.0955 90.5713 17.0955C92.2549 17.1003 93.8578 17.3608 95.4532 17.9022C95.4932 17.9153 95.5333 17.9285 95.5745 17.9421C97.0428 18.4286 98.4069 19.2268 99.6117 20.1864C99.6419 20.2103 99.6721 20.2343 99.7032 20.2589C101.07 21.3518 102.038 22.6951 102.864 24.2237C102.881 22.0675 102.899 19.9112 102.917 17.6897C103.551 17.6897 104.184 17.6897 104.837 17.6897C104.837 20.0854 104.838 22.4811 104.839 24.8768C104.839 24.9123 104.839 24.9478 104.839 24.9843C104.839 25.756 104.839 26.5277 104.839 27.2993C104.839 27.6778 104.839 28.0562 104.839 28.4347C104.839 28.4912 104.839 28.4912 104.839 28.5488C104.84 29.7678 104.84 30.9868 104.841 32.2058C104.841 33.4593 104.841 34.7127 104.842 35.9662C104.842 36.7734 104.842 37.5807 104.842 38.3879C104.843 38.9175 104.843 39.4472 104.843 39.9769C104.843 40.2821 104.843 40.5874 104.843 40.8926C104.843 41.1727 104.843 41.4529 104.843 41.733C104.843 41.8337 104.843 41.9344 104.843 42.0351C104.845 42.9298 104.825 43.8239 104.71 44.7122C104.703 44.7681 104.696 44.824 104.689 44.8816C104.629 45.3475 104.556 45.8089 104.463 46.2693C104.444 46.3683 104.444 46.3683 104.425 46.4692C104.186 47.6232 103.762 48.7753 103.237 49.8285C103.216 49.871 103.195 49.9135 103.174 49.9572C102.87 50.5701 102.526 51.1388 102.117 51.6878C102.094 51.72 102.07 51.7523 102.045 51.7855C101.689 52.2583 101.302 52.6968 100.891 53.1221C100.865 53.1499 100.838 53.1777 100.81 53.2064C100.45 53.5791 100.077 53.9218 99.665 54.2377C99.6357 54.2603 99.6064 54.283 99.5762 54.3063C98.2614 55.3163 96.7731 56.0023 95.1866 56.4688C95.1217 56.4884 95.0567 56.5081 94.9898 56.5283C94.3729 56.7048 93.7414 56.8008 93.1073 56.8938C93.0648 56.9002 93.0222 56.9067 92.9783 56.9133C90.7623 57.2386 88.3401 56.9622 86.2298 56.2563C86.1782 56.2391 86.1267 56.2218 86.0736 56.2041C84.8375 55.7822 83.6386 55.2276 82.5511 54.5033C82.5125 54.4776 82.4739 54.4519 82.4341 54.4255C81.9121 54.0747 81.4234 53.6966 80.9516 53.2815C80.9065 53.243 80.8613 53.2045 80.8148 53.1648C80.5518 52.9368 80.3074 52.6942 80.0686 52.4415C80.0416 52.4132 80.0147 52.3849 79.9869 52.3558C79.9302 52.2948 79.8751 52.2323 79.8213 52.1687C79.7244 52.0544 79.7244 52.0544 79.5982 51.9437C79.1539 51.4807 79.1915 50.9949 79.2034 50.3842C79.2074 50.2565 79.2115 50.1289 79.2156 50.0012C79.218 49.871 79.2202 49.7408 79.2221 49.6106C79.2274 49.2936 79.2354 48.9767 79.2456 48.6598C79.3667 48.8076 79.4817 48.9527 79.5794 49.1168C79.6003 49.1513 79.6212 49.1858 79.6427 49.2213C79.6645 49.2574 79.6863 49.2934 79.7087 49.3305C80.035 49.8596 80.4259 50.3156 80.8456 50.7735C80.9301 50.8671 81.0099 50.9617 81.0882 51.0603C81.2254 51.218 81.3713 51.3493 81.5306 51.4842C81.6045 51.5472 81.6773 51.6115 81.7488 51.6772C83.5253 53.3088 85.8763 54.4592 88.2224 54.9747C88.2573 54.9825 88.2921 54.9902 88.3281 54.9982C89.1794 55.1848 90.0141 55.2666 90.8848 55.2603C90.9254 55.2601 90.966 55.2599 91.0078 55.2598C91.6415 55.2568 92.2666 55.2362 92.8941 55.1407C92.9404 55.1339 92.9866 55.127 93.0343 55.12C94.3677 54.9166 95.5945 54.4928 96.786 53.8658C96.8338 53.841 96.8338 53.841 96.8824 53.8156C97.5867 53.4457 98.222 52.9718 98.8039 52.4315C98.9095 52.3337 99.018 52.2415 99.1285 52.1493C101.18 50.3601 102.201 47.6527 102.651 45.0475C102.66 44.9956 102.67 44.9437 102.68 44.8902C102.924 43.4975 102.877 42.0721 102.871 40.6647C102.87 40.3854 102.87 40.1061 102.869 39.8268C102.868 39.2828 102.866 38.7388 102.864 38.1948C102.843 38.2337 102.843 38.2337 102.823 38.2735C102.76 38.3923 102.697 38.511 102.635 38.6297C102.613 38.6706 102.592 38.7114 102.57 38.7535C102.418 39.0392 102.257 39.3094 102.064 39.5693C102.037 39.6067 102.01 39.6441 101.982 39.6827C100.245 42.0529 97.7207 43.7405 94.92 44.6226C94.8574 44.643 94.7947 44.6635 94.7301 44.6846C93.4188 45.1025 92.1386 45.27 90.7646 45.2699C90.5999 45.27 90.4352 45.271 90.2705 45.272C89.3781 45.2746 88.5108 45.2135 87.6359 45.0309C87.5796 45.0194 87.5233 45.0079 87.4653 44.996C86.6913 44.8332 85.9494 44.6 85.2168 44.3038C85.1796 44.2889 85.1425 44.2739 85.1042 44.2585C84.0715 43.8361 83.1229 43.2706 82.2312 42.6039C82.1981 42.5793 82.1651 42.5548 82.1311 42.5294C81.11 41.7646 80.1273 40.8536 79.3522 39.8416C79.3112 39.791 79.2701 39.7404 79.2279 39.6882C77.7962 37.8978 76.9164 35.7653 76.5265 33.52C76.5151 33.4551 76.5037 33.3901 76.4919 33.3231C76.3891 32.697 76.3577 32.0751 76.3596 31.4416C76.3599 31.3296 76.3596 31.2177 76.3593 31.1057C76.3573 27.6147 77.6274 24.488 79.9386 21.8863C79.9647 21.8569 79.9908 21.8275 80.0176 21.7972C80.6132 21.1294 81.2611 20.5301 81.9768 19.9919C82.0712 19.9208 82.1648 19.8489 82.2585 19.777C84.6052 17.9961 87.5186 17.0903 90.4583 17.0954ZM88.7355 18.9115C88.6872 18.9195 88.6388 18.9275 88.589 18.9357C85.4659 19.4754 82.6119 21.305 80.7384 23.8518C80.7157 23.8821 80.6931 23.9123 80.6697 23.9435C79.4677 25.5502 78.6833 27.3891 78.3925 29.3765C78.387 29.4134 78.3815 29.4503 78.3759 29.4883C78.1389 31.1666 78.259 32.8977 78.7124 34.5294C78.74 34.6304 78.74 34.6304 78.7682 34.7336C79.4577 37.1385 81.0574 39.3723 83.0309 40.904C83.0726 40.9385 83.1143 40.973 83.1573 41.0086C85.5958 43.0193 88.7888 43.8701 91.9165 43.5846C92.2263 43.5511 92.5334 43.5048 92.8408 43.4539C92.8855 43.447 92.9301 43.4402 92.9762 43.4332C95.1156 43.1016 97.1097 42.0389 98.6927 40.5882C98.8051 40.4854 98.9196 40.3856 99.0352 40.2865C99.3802 39.9863 99.6909 39.6599 99.9849 39.3104C100.008 39.2835 100.03 39.2567 100.053 39.2291C101.076 38.0083 101.895 36.6323 102.384 35.1137C102.408 35.0442 102.432 34.9748 102.456 34.9054C102.854 33.7043 102.983 32.415 102.987 31.1561C102.987 31.1158 102.987 31.0754 102.988 31.0339C102.988 30.2371 102.907 29.4697 102.757 28.6859C102.749 28.6421 102.741 28.5982 102.732 28.553C102.179 25.7202 100.411 23.0495 98.1189 21.302C98.0891 21.2791 98.0593 21.2563 98.0286 21.2327C97.546 20.8647 97.0485 20.5373 96.5195 20.2395C96.487 20.2211 96.4546 20.2027 96.4212 20.1837C95.1043 19.4411 93.6936 19.0697 92.201 18.8583C92.143 18.849 92.085 18.8396 92.0252 18.8299C91.8112 18.8032 91.6009 18.7967 91.3857 18.7963C91.3233 18.796 91.3233 18.796 91.2597 18.7956C91.1259 18.7951 90.992 18.7951 90.8581 18.7953C90.7895 18.7953 90.7895 18.7953 90.7195 18.7954C90.0535 18.797 89.3941 18.8018 88.7355 18.9115Z" fill="#E3E4E6" fill-opacity="0.55"/>
<path d="M60.6921 17.2647C60.7485 17.2746 60.8049 17.2846 60.8631 17.2948C63.2461 17.7315 65.5083 18.8658 67.29 20.5018C67.3946 20.5975 67.5012 20.6894 67.6097 20.7807C68.1435 21.2457 68.6242 21.7566 69.0625 22.3113C69.1402 22.4032 69.218 22.495 69.2957 22.5869C70.5012 24.0611 71.3565 25.8103 71.8031 27.6555C71.8253 27.7447 71.849 27.8337 71.8737 27.9222C72.0012 28.3907 72.0604 28.862 72.1114 29.3433C72.116 29.3862 72.1206 29.429 72.1253 29.4732C72.4984 33.016 71.6193 36.6182 69.4357 39.4697C69.4128 39.5001 69.3898 39.5304 69.3662 39.5617C69.0293 40.0065 68.6675 40.4197 68.2836 40.8247C68.172 40.9441 68.0643 41.067 67.9562 41.1895C67.7856 41.3791 67.6087 41.5499 67.4133 41.7137C67.2931 41.8156 67.1786 41.9224 67.0632 42.0295C65.8526 43.1113 64.4297 43.8616 62.9313 44.4632C62.8789 44.4845 62.8264 44.5058 62.7724 44.5277C62.0954 44.7881 61.3825 44.9414 60.6688 45.0608C60.5912 45.0738 60.5912 45.0738 60.5121 45.0871C59.9192 45.1815 59.3302 45.2154 58.7303 45.2177C58.6668 45.218 58.6033 45.2183 58.5378 45.2186C58.4039 45.2191 58.2701 45.2195 58.1362 45.2197C57.9358 45.2202 57.7355 45.2218 57.5351 45.2235C54.9231 45.2349 52.2694 44.5265 50.1358 42.9758C50.1035 42.9524 50.0712 42.9291 50.0379 42.9051C49.1412 42.2553 48.2145 41.5426 47.504 40.6884C47.3997 40.5651 47.2882 40.45 47.1769 40.3329C46.2723 39.34 45.5288 38.1886 44.9643 36.973C44.9468 36.936 44.9293 36.899 44.9113 36.8609C44.3672 35.7064 44.0224 34.5335 43.8047 33.2777C43.7985 33.2424 43.7924 33.2071 43.786 33.1707C43.6684 32.4447 43.6719 31.7101 43.6714 30.9768C43.6714 30.9236 43.6713 30.8703 43.6713 30.8155C43.6718 30.0392 43.698 29.2908 43.8447 28.5266C43.8579 28.4464 43.871 28.3662 43.8841 28.2861C44.1932 26.5146 44.9885 24.777 46.0306 23.3206C46.0533 23.2887 46.0761 23.2568 46.0995 23.2239C46.2319 23.0399 46.3693 22.8606 46.5104 22.6831C46.5485 22.635 46.5866 22.5869 46.6258 22.5373C47.3296 21.6637 48.1236 20.8166 49.0162 20.1333C49.0823 20.0807 49.1483 20.0281 49.2143 19.9754C49.7939 19.5175 50.4047 19.1251 51.0422 18.7521C51.0938 18.7214 51.0938 18.7214 51.1465 18.6901C52.1444 18.1029 53.2765 17.6919 54.401 17.424C54.4436 17.4139 54.4861 17.4037 54.53 17.3932C54.8406 17.3212 55.1526 17.2629 55.4673 17.2116C55.5156 17.2035 55.5639 17.1955 55.6137 17.1873C57.2858 16.9224 59.0281 16.9709 60.6921 17.2647ZM50.6156 21.2488C50.569 21.2851 50.5223 21.3213 50.4742 21.3586C48.6945 22.7726 47.2531 24.6101 46.4038 26.7204C46.383 26.7709 46.3622 26.8215 46.3407 26.8735C45.5206 28.9177 45.3927 31.2559 45.764 33.4138C45.7743 33.4757 45.7743 33.4757 45.7848 33.5388C46.1163 35.4506 47.0095 37.2202 48.2165 38.726C48.241 38.7566 48.2655 38.7872 48.2907 38.8188C48.9241 39.6017 49.6488 40.3516 50.4557 40.9571C50.5213 41.0081 50.5869 41.059 50.6525 41.1101C53.0813 42.9822 56.2269 43.8588 59.2826 43.5203C59.3932 43.5059 59.5033 43.4898 59.6135 43.4725C59.6986 43.4592 59.7839 43.4467 59.8693 43.4348C61.0084 43.2762 62.1113 42.9508 63.1446 42.4446C63.1874 42.4238 63.2302 42.4031 63.2744 42.3817C64.9491 41.5638 66.4886 40.3138 67.623 38.8323C67.6453 38.8035 67.6676 38.7747 67.6905 38.745C68.9256 37.144 69.8133 35.2731 70.1088 33.2644C70.1152 33.2222 70.1217 33.1801 70.1283 33.1367C70.1467 33.0166 70.1645 32.8965 70.1821 32.7763C70.1914 32.7202 70.2006 32.6641 70.2102 32.6063C70.2391 32.3746 70.245 32.1484 70.2462 31.9152C70.2466 31.8686 70.247 31.822 70.2474 31.774C70.2483 31.6233 70.2486 31.4727 70.2487 31.3221C70.2488 31.2707 70.2488 31.2193 70.2488 31.1664C70.2453 28.0312 69.1835 25.1927 67.0509 22.8686C66.972 22.7824 66.8941 22.6952 66.8172 22.6072C65.5434 21.1546 63.8367 20.049 62.025 19.3896C61.9795 19.3709 61.9341 19.3522 61.8873 19.3329C61.3675 19.1249 60.8127 19.0223 60.2656 18.9115C60.2024 18.898 60.2024 18.898 60.1379 18.8842C56.8198 18.1951 53.2437 19.189 50.6156 21.2488Z" fill="#E3E4E6" fill-opacity="0.55"/>
<path d="M176.225 18.6989C176.286 18.7314 176.347 18.7639 176.411 18.7973C177.31 19.2904 178.116 19.9177 178.873 20.6053C178.984 20.7056 179.096 20.8031 179.21 20.9002C179.614 21.2514 179.986 21.6359 180.33 22.0456C180.354 22.074 180.378 22.1023 180.403 22.1314C181.907 23.9029 182.981 25.9988 183.432 28.2808C183.44 28.3214 183.449 28.362 183.457 28.4038C183.622 29.2792 183.656 30.1647 183.652 31.0532C183.652 31.1038 183.652 31.1545 183.652 31.2068C183.648 32.683 183.474 34.0856 182.996 35.4855C182.977 35.5418 182.977 35.5418 182.958 35.5992C182.073 38.2215 180.303 40.7073 178.091 42.3914C178.041 42.4317 177.992 42.4719 177.941 42.5134C175.783 44.2377 173.003 45.2129 170.24 45.2158C170.18 45.216 170.12 45.2161 170.057 45.2163C169.93 45.2166 169.803 45.2167 169.676 45.2167C169.486 45.2168 169.295 45.2178 169.105 45.2188C168.078 45.2215 167.085 45.1753 166.085 44.928C166.016 44.9112 165.946 44.8945 165.877 44.8777C163.683 44.3362 161.756 43.2753 160.088 41.7602C159.976 41.6588 159.862 41.56 159.747 41.4618C159.362 41.127 159.015 40.7599 158.684 40.3728C158.641 40.3238 158.598 40.2748 158.553 40.2244C156.326 37.6836 155.124 34.4683 155.145 31.101C155.145 30.9366 155.145 30.7722 155.144 30.6078C155.143 29.6889 155.231 28.7813 155.445 27.8857C155.457 27.8381 155.468 27.7905 155.479 27.7414C155.951 25.8102 156.869 23.9931 158.151 22.4706C158.192 22.4196 158.234 22.3686 158.276 22.316C158.629 21.8874 159.015 21.492 159.407 21.0994C159.433 21.0735 159.459 21.0476 159.485 21.0209C160.348 20.1543 161.343 19.3963 162.416 18.8052C162.455 18.7838 162.493 18.7625 162.533 18.7405C166.711 16.4389 172.028 16.4569 176.225 18.6989ZM166.855 18.9845C166.797 18.9961 166.74 19.0078 166.681 19.0198C166.05 19.1514 165.457 19.3355 164.869 19.602C164.825 19.622 164.78 19.6419 164.735 19.6625C163.497 20.226 162.402 20.9067 161.403 21.8331C161.335 21.892 161.266 21.9507 161.197 22.0091C160.701 22.4407 160.263 22.9114 159.857 23.4268C159.81 23.4848 159.763 23.5428 159.716 23.6007C158.453 25.161 157.646 26.9361 157.245 28.8984C157.235 28.9416 157.226 28.9847 157.216 29.0292C156.929 30.3658 156.965 31.9619 157.223 33.2999C157.244 33.41 157.261 33.52 157.278 33.6308C157.529 35.1854 158.241 36.7623 159.164 38.0354C159.187 38.0672 159.209 38.099 159.233 38.1317C159.632 38.6899 160.07 39.1923 160.55 39.6822C160.586 39.7195 160.622 39.7569 160.66 39.7954C161.118 40.2688 161.581 40.7154 162.114 41.1044C162.202 41.1689 162.289 41.2347 162.376 41.3007C163.937 42.4694 165.733 43.1234 167.641 43.4538C167.701 43.4645 167.701 43.4645 167.761 43.4754C168.819 43.659 170.035 43.6394 171.095 43.472C171.226 43.4519 171.356 43.4351 171.487 43.4181C173.112 43.1896 174.783 42.55 176.118 41.5946C176.151 41.5708 176.185 41.547 176.219 41.5224C177.252 40.7816 178.217 39.9456 178.997 38.9385C179.051 38.8719 179.104 38.8055 179.158 38.739C180.022 37.6555 180.702 36.4323 181.13 35.1137C181.151 35.0548 181.173 34.996 181.195 34.9354C181.451 34.2043 181.548 33.4332 181.663 32.6701C181.672 32.6107 181.682 32.5513 181.692 32.4902C181.719 32.274 181.725 32.0636 181.725 31.846C181.725 31.8034 181.725 31.7608 181.726 31.7169C181.726 31.5798 181.726 31.4426 181.726 31.3055C181.726 31.2587 181.726 31.212 181.726 31.1638C181.725 30.4923 181.717 29.8283 181.609 29.164C181.603 29.1233 181.597 29.0827 181.59 29.0408C181.197 26.5938 180.003 24.3759 178.277 22.6078C178.199 22.5254 178.126 22.4405 178.055 22.353C177.953 22.2321 177.858 22.1328 177.737 22.0324C177.615 21.9292 177.496 21.8255 177.38 21.7157C175.86 20.2796 173.804 19.2809 171.746 18.9114C171.682 18.8996 171.682 18.8996 171.616 18.8876C170.889 18.7613 170.166 18.7368 169.43 18.7355C169.388 18.7353 169.346 18.7351 169.302 18.7349C168.471 18.7329 167.669 18.8169 166.855 18.9845Z" fill="#E3E4E6" fill-opacity="0.55"/>
<path d="M111.394 17.6896C112.045 17.6896 112.696 17.6896 113.367 17.6896C113.367 17.8984 113.367 18.1071 113.368 18.3221C113.371 20.2394 113.374 22.1567 113.379 24.0739C113.38 24.3256 113.38 24.5772 113.381 24.8289C113.381 24.879 113.381 24.9291 113.381 24.9807C113.383 25.7902 113.384 26.5997 113.386 27.4092C113.387 28.2408 113.388 29.0724 113.391 29.9039C113.392 30.4164 113.393 30.9289 113.393 31.4414C113.394 31.7936 113.395 32.1457 113.396 32.4979C113.397 32.7006 113.397 32.9033 113.397 33.106C113.396 34.2213 113.463 35.2633 113.793 36.3355C113.804 36.3692 113.814 36.403 113.825 36.4377C114.139 37.4418 114.601 38.4132 115.233 39.2572C115.256 39.2886 115.28 39.32 115.304 39.3523C115.644 39.8059 116.013 40.2286 116.406 40.6384C116.448 40.6836 116.491 40.7289 116.535 40.7755C116.889 41.1415 117.276 41.4529 117.685 41.7539C117.716 41.7764 117.746 41.7989 117.777 41.822C119.759 43.2727 122.34 43.7759 124.75 43.4334C126.266 43.189 127.731 42.6443 128.988 41.7539C129.042 41.7159 129.095 41.6778 129.151 41.6386C130.141 40.916 131.034 40.0859 131.76 39.0978C131.795 39.0516 131.829 39.0054 131.864 38.9578C131.957 38.8291 132.046 38.6987 132.134 38.5666C132.167 38.5175 132.2 38.4684 132.234 38.4178C133.387 36.6414 133.642 34.718 133.643 32.6481C133.643 32.4467 133.644 32.2454 133.645 32.044C133.646 31.6964 133.647 31.3487 133.648 31.001C133.648 30.4983 133.65 29.9957 133.651 29.493C133.654 28.6772 133.656 27.8613 133.657 27.0455C133.659 26.2537 133.661 25.4618 133.663 24.67C133.663 24.6211 133.663 24.5722 133.663 24.5218C133.664 24.2763 133.664 24.0308 133.665 23.7853C133.671 21.7534 133.675 19.7215 133.68 17.6896C134.331 17.6896 134.982 17.6896 135.652 17.6896C135.652 26.56 135.652 35.4303 135.652 44.5694C135.001 44.5694 134.35 44.5694 133.68 44.5694C133.662 42.8514 133.645 41.1335 133.626 39.3634C133.398 39.7491 133.169 40.1348 132.933 40.5321C132.614 40.9772 132.294 41.399 131.921 41.7986C131.82 41.9062 131.725 42.0167 131.63 42.1291C130.177 43.7786 127.779 44.8097 125.629 45.1006C125.564 45.1098 125.499 45.119 125.432 45.1285C124.795 45.212 124.162 45.2249 123.52 45.2236C123.347 45.2235 123.175 45.2247 123.003 45.2261C122.055 45.229 121.139 45.131 120.218 44.9047C120.162 44.8913 120.107 44.8778 120.05 44.8639C119.181 44.6436 118.366 44.3022 117.579 43.8788C117.547 43.8621 117.515 43.8455 117.483 43.8283C116.695 43.4109 116.008 42.8685 115.339 42.2852C115.29 42.2429 115.241 42.2007 115.191 42.1571C114.952 41.9478 114.731 41.7342 114.527 41.4914C114.462 41.4163 114.396 41.3429 114.328 41.2711C112.966 39.8298 112.06 37.9456 111.661 36.0168C111.647 35.9573 111.634 35.8979 111.62 35.8366C111.384 34.7636 111.379 33.6808 111.382 32.5871C111.382 32.3865 111.382 32.1859 111.382 31.9852C111.382 31.639 111.382 31.2927 111.383 30.9465C111.384 30.4459 111.384 29.9453 111.384 29.4446C111.384 28.6321 111.385 27.8196 111.386 27.0071C111.387 26.2185 111.388 25.43 111.388 24.6415C111.388 24.5927 111.388 24.544 111.388 24.4938C111.389 24.2493 111.389 24.0047 111.389 23.7602C111.39 21.7367 111.392 19.7131 111.394 17.6896Z" fill="#E3E4E6" fill-opacity="0.55"/>
<path d="M141.57 6.90588C142.221 6.90588 142.872 6.90588 143.543 6.90588C143.543 10.4996 143.543 14.0933 143.543 17.7959C146.27 17.7959 148.997 17.7959 151.807 17.7959C151.807 18.3394 151.807 18.8828 151.807 19.4427C149.08 19.4427 146.353 19.4427 143.543 19.4427C143.548 22.3033 143.548 22.3033 143.554 25.1639C143.555 25.5504 143.556 25.937 143.557 26.3235C143.557 26.372 143.557 26.4204 143.557 26.4703C143.559 27.2502 143.56 28.0301 143.562 28.81C143.563 29.6116 143.564 30.4132 143.567 31.2149C143.568 31.7087 143.569 32.2025 143.57 32.6963C143.57 33.0359 143.571 33.3755 143.572 33.7151C143.573 33.9104 143.573 34.1057 143.573 34.301C143.572 35.37 143.584 36.454 143.919 37.481C143.935 37.5307 143.951 37.5804 143.967 37.6316C144.334 38.7419 144.912 39.7953 145.759 40.6152C145.802 40.6579 145.845 40.7006 145.889 40.7447C145.889 40.7797 145.889 40.8148 145.889 40.8509C145.937 40.8724 145.937 40.8724 145.986 40.8943C146.103 40.9577 146.164 41.0148 146.252 41.1132C147.707 42.5999 149.844 43.1697 151.86 43.2414C151.86 43.8024 151.86 44.3633 151.86 44.9413C151.317 44.9413 150.816 44.928 150.284 44.855C150.215 44.8455 150.145 44.836 150.074 44.8262C148.389 44.5856 146.806 43.9129 145.462 42.8695C145.434 42.8479 145.406 42.8262 145.378 42.8039C144.268 41.9302 143.332 40.8874 142.69 39.6291C142.671 39.5932 142.653 39.5574 142.633 39.5204C142.334 38.9389 142.123 38.3444 141.943 37.7167C141.93 37.6709 141.916 37.625 141.902 37.5778C141.801 37.2288 141.74 36.8852 141.697 36.5248C141.69 36.4745 141.684 36.4242 141.677 36.3724C141.658 36.2185 141.641 36.0646 141.624 35.9105C141.619 35.868 141.614 35.8254 141.609 35.7815C141.554 35.2285 141.563 34.6745 141.564 34.1195C141.564 34.0019 141.564 33.8844 141.564 33.7668C141.564 33.4448 141.564 33.1228 141.564 32.8008C141.564 32.489 141.564 32.1771 141.564 31.8652C141.564 31.2275 141.564 30.5899 141.565 29.9522C141.565 29.3211 141.565 28.69 141.565 28.0589C141.565 28.0196 141.565 27.9803 141.565 27.9399C141.565 27.7404 141.565 27.5408 141.565 27.3413C141.565 25.9293 141.566 24.5173 141.566 23.1052C141.567 21.7337 141.567 20.3622 141.567 18.9906C141.567 18.9483 141.567 18.906 141.567 18.8625C141.567 18.4377 141.567 18.0129 141.568 17.5881C141.568 16.7228 141.568 15.8575 141.568 14.9922C141.568 14.9524 141.568 14.9126 141.568 14.8717C141.568 12.2164 141.569 9.56114 141.57 6.90588Z" fill="#E3E4E6" fill-opacity="0.55"/>
<path d="M21.5059 20.7707C21.5227 20.9502 21.5232 21.0593 21.4326 21.2177C21.232 21.4146 21.0038 21.4974 20.7462 21.6041C19.9433 21.9528 19.2527 22.4002 18.5736 22.9488C18.5191 22.9922 18.4645 23.0357 18.4083 23.0805C18.2633 23.206 18.1467 23.3308 18.0271 23.48C17.9652 23.5572 17.9652 23.5572 17.902 23.636C17.8597 23.6897 17.8175 23.7434 17.7739 23.7987C17.7333 23.8502 17.6927 23.9017 17.6508 23.9548C17.5127 24.1319 17.3763 24.3102 17.2408 24.4893C17.2129 24.526 17.1851 24.5627 17.1564 24.6005C16.2787 25.7614 15.5044 26.985 14.7425 28.2234C13.92 29.5555 13.243 30.5886 11.6427 30.9702C11.4111 31.0148 11.1779 31.0503 10.9449 31.0869C10.3536 31.1846 9.77638 31.3363 9.19708 31.4876C7.82058 31.8444 7.82058 31.8444 7.12766 31.8401C7.06038 31.8405 6.99309 31.8409 6.92377 31.8413C6.64675 31.8098 6.47549 31.7257 6.29129 31.518C6.18913 31.3105 6.17251 31.1426 6.20465 30.9171C6.27001 30.7751 6.33149 30.6627 6.41791 30.5352C6.44125 30.4995 6.4646 30.4637 6.48865 30.4268C6.75827 30.022 7.05646 29.6375 7.35529 29.2539C7.39156 29.2072 7.42784 29.1606 7.46522 29.1125C7.53177 29.0272 7.59838 28.942 7.66545 28.8571C8.19744 28.1837 8.67156 27.4788 9.1408 26.7611C9.95344 25.5203 10.7508 24.8846 12.0725 24.2224C12.1851 24.1659 12.2975 24.1094 12.41 24.0528C13.2637 23.6237 14.1181 23.1963 14.9827 22.7894C15.365 22.6088 15.743 22.4203 16.1207 22.2305C20.3402 20.113 20.3402 20.113 21.5059 20.7707Z" fill="url(#paint0_linear_2424_521)"/>
<path d="M14.2452 31.0665C14.2825 31.0665 14.3199 31.0666 14.3583 31.0666C14.9176 31.0682 15.4619 31.0873 16.0145 31.1827C16.0681 31.1915 16.1217 31.2004 16.1769 31.2095C16.8692 31.325 17.5503 31.4524 18.2187 31.6684C18.5075 31.7612 18.7973 31.8507 19.0869 31.9409C19.1996 31.9761 19.3123 32.0113 19.425 32.0465C19.8453 32.1777 20.2662 32.3066 20.6896 32.4277C20.751 32.4454 20.751 32.4454 20.8137 32.4635C21.4151 32.633 22.0152 32.7503 22.6355 32.8221C22.7576 32.8363 22.8796 32.851 23.0017 32.8658C23.348 32.9079 23.6945 32.9491 24.041 32.9898C24.2545 33.0149 24.4679 33.0406 24.6812 33.0668C24.7617 33.0765 24.8421 33.086 24.9226 33.0952C25.5521 33.1671 26.1761 33.2445 26.6241 33.7325C26.7426 33.9096 26.7496 34.0002 26.7153 34.2079C26.6096 34.512 26.2817 34.6564 26.0143 34.8016C25.3468 35.1116 24.6933 35.2013 23.9664 35.1916C23.8442 35.1901 23.7221 35.1905 23.5999 35.1912C22.8773 35.1903 22.1638 35.1107 21.4464 35.0306C21.1706 34.9998 20.8947 34.9702 20.6188 34.9406C20.4425 34.9217 20.2662 34.9026 20.0898 34.8836C16.7199 34.5197 13.4759 34.2771 10.0966 34.6721C9.12388 34.7858 8.22664 34.8382 7.37758 34.2638C7.00312 33.9665 6.77497 33.6384 6.71115 33.1615C6.74401 32.9486 6.79468 32.8711 6.95107 32.7232C7.21334 32.5575 7.45446 32.4604 7.75412 32.3846C7.83978 32.362 7.92545 32.3393 8.01111 32.3167C8.0558 32.3051 8.10049 32.2934 8.14653 32.2815C8.28369 32.2452 8.42024 32.2072 8.55675 32.1686C9.21545 31.9832 9.8783 31.8289 10.5471 31.6842C10.858 31.6168 11.1671 31.5435 11.4761 31.4682C12.0254 31.3353 12.579 31.2274 13.1356 31.1296C13.1858 31.1201 13.236 31.1106 13.2877 31.1009C13.6047 31.0547 13.9254 31.0659 14.2452 31.0665Z" fill="url(#paint1_linear_2424_521)"/>
<path d="M35.2611 17.7428C35.8945 17.7428 36.5278 17.7428 37.1804 17.7428C37.1804 26.5956 37.1804 35.4484 37.1804 44.5695C36.547 44.5695 35.9136 44.5695 35.2611 44.5695C35.2611 35.7167 35.2611 26.8639 35.2611 17.7428Z" fill="#E3E4E6" fill-opacity="0.55"/>
<path d="M9.56348 35.9105C9.74673 35.9848 9.91147 36.0834 10.08 36.1861C10.1284 36.2147 10.1768 36.2433 10.2267 36.2727C10.3795 36.3634 10.5314 36.4555 10.6831 36.548C10.7314 36.5772 10.7797 36.6064 10.8295 36.6365C11.2701 36.9033 11.7071 37.175 12.1381 37.4569C13.8433 38.5719 15.6683 39.4941 17.518 40.3441C19.4607 41.2375 19.4607 41.2375 19.7999 41.9133C19.8349 42.1942 19.8218 42.4343 19.6599 42.6774C19.5154 42.8468 19.3486 42.9647 19.1601 43.082C19.0992 43.1204 19.0992 43.1204 19.037 43.1596C18.2204 43.6166 17.2015 43.8067 16.2811 43.9319C16.2463 43.9368 16.2115 43.9416 16.1757 43.9465C14.272 44.1861 12.391 43.8029 10.8397 42.6554C10.537 42.3489 10.4596 41.9812 10.3665 41.5747C10.1623 40.7014 9.89415 39.8574 9.59539 39.0123C9.5437 38.866 9.49233 38.7197 9.44102 38.5733C9.40702 38.4766 9.37301 38.3799 9.33897 38.2832C9.31407 38.2122 9.31407 38.2122 9.28867 38.1399C9.20537 37.9041 9.11955 37.6698 9.02841 37.4369C9.01103 37.392 8.99366 37.347 8.97576 37.3007C8.94312 37.2168 8.90985 37.1331 8.87577 37.0498C8.76945 36.7752 8.7278 36.5237 8.76376 36.2292C8.8304 36.1128 8.8304 36.1128 8.9237 36.04C8.95339 36.0147 8.98308 35.9895 9.01367 35.9634C9.20069 35.8832 9.36618 35.8751 9.56348 35.9105Z" fill="url(#paint2_linear_2424_521)"/>
<path d="M12.8352 34.8904C12.8875 34.89 12.9398 34.8897 12.9936 34.8893C13.1631 34.8884 13.3326 34.888 13.5021 34.8879C13.5601 34.8878 13.6181 34.8878 13.6778 34.8877C15.3618 34.8881 17.0339 35.0144 18.6751 35.4062C18.7802 35.4309 18.8858 35.4537 18.9914 35.4764C19.4392 35.5776 19.8657 35.7186 20.2964 35.8773C20.3491 35.8966 20.4019 35.9159 20.4563 35.9358C21.0602 36.1642 21.5822 36.4741 22.0924 36.8667C22.164 36.9217 22.164 36.9217 22.2371 36.9777C22.9567 37.5466 23.6604 38.2072 23.9584 39.0978C23.9847 39.3718 23.9942 39.6065 23.8751 39.8581C23.4289 40.3483 22.897 40.592 22.2318 40.6493C22.0985 40.6545 21.9659 40.6559 21.8325 40.655C21.7837 40.6547 21.7349 40.6544 21.6847 40.6541C21.1878 40.6454 20.7123 40.5794 20.2264 40.479C20.1761 40.4687 20.1258 40.4585 20.074 40.4479C18.6462 40.1487 17.3296 39.607 16.0145 38.9916C15.9646 38.9682 15.9146 38.9449 15.8631 38.9208C15.1062 38.5636 14.387 38.1449 13.6687 37.7167C13.6231 37.6897 13.5776 37.6628 13.5306 37.635C11.5378 36.4551 11.5378 36.4551 11.2695 35.8043C11.2355 35.5986 11.2516 35.4266 11.3262 35.2299C11.6834 34.828 12.3426 34.8928 12.8352 34.8904Z" fill="url(#paint3_linear_2424_521)"/>
<path d="M22.2257 22.0291C22.2824 22.0282 22.3391 22.0274 22.3975 22.0265C22.9755 22.0261 23.5019 22.1557 23.9584 22.5238C24.3791 23.0021 24.6839 23.5426 24.6682 24.1915C24.5942 24.806 24.1594 25.4492 23.6958 25.8439C23.6361 25.8888 23.5759 25.933 23.5152 25.9767C23.4812 26.0013 23.4471 26.026 23.412 26.0514C22.5185 26.681 21.5279 27.1773 20.5637 27.6885C20.3823 27.785 20.2014 27.8824 20.0206 27.98C18.8498 28.6122 18.8498 28.6122 18.2564 28.8985C18.1331 28.9583 18.0105 29.0193 17.8878 29.0802C15.9587 30.0276 15.9587 30.0276 15.0382 30.0306C14.9746 30.0315 14.9111 30.0324 14.8456 30.0333C14.6817 30.014 14.6817 30.014 14.593 29.9467C14.4815 29.8026 14.495 29.6848 14.5015 29.508C14.5377 29.2729 14.6455 29.0839 14.7617 28.8785C14.7875 28.8311 14.8134 28.7837 14.8401 28.7349C15.7635 27.0632 16.7568 25.3832 18.0405 23.9581C18.0784 23.9159 18.1162 23.8737 18.1552 23.8303C19.2034 22.7255 20.6995 22.0245 22.2257 22.0291Z" fill="url(#paint4_linear_2424_521)"/>
<path d="M26.0377 26.8266C26.4209 27.1064 26.6775 27.415 26.8907 27.836C26.9141 27.8801 26.9376 27.9242 26.9617 27.9696C27.2303 28.5096 27.3995 29.1453 27.4238 29.7483C27.4266 29.8056 27.4293 29.8628 27.4322 29.9218C27.4492 30.5755 27.341 31.1173 26.8978 31.6126C26.3727 32.1262 25.7129 32.253 25.0032 32.254C24.9549 32.2542 24.9066 32.2545 24.8568 32.2547C24.7006 32.2552 24.5444 32.2552 24.3882 32.255C24.335 32.255 24.2818 32.255 24.227 32.255C23.458 32.2537 22.6953 32.2457 21.9324 32.1388C21.8815 32.1317 21.8305 32.1246 21.778 32.1172C21.4012 32.0626 21.0268 31.9978 20.6529 31.9264C20.6043 31.9171 20.5558 31.9079 20.5057 31.8984C17.7287 31.3556 17.7287 31.3556 17.0808 30.5983C17.0156 30.3789 17.0059 30.2723 17.1041 30.0638C17.4175 29.7058 17.8168 29.4989 18.2404 29.2935C18.2961 29.2661 18.3518 29.2387 18.4091 29.2105C18.8833 28.9789 19.3623 28.7576 19.8421 28.5379C20.3188 28.3189 20.7909 28.0916 21.2623 27.8615C24.8952 26.0886 24.8952 26.0886 26.0377 26.8266Z" fill="url(#paint5_linear_2424_521)"/>
<path d="M5.23229 34.1388C5.78108 34.3449 6.23186 34.6953 6.6547 35.0921C6.77075 35.2008 6.8891 35.3038 7.01104 35.4059C8.268 36.503 9.13495 38.261 9.25738 39.9226C9.26563 40.1171 9.26942 40.3109 9.27024 40.5056C9.27074 40.5973 9.27074 40.5973 9.27126 40.6909C9.26664 40.9917 9.26278 41.2336 9.08364 41.4883C8.75337 41.742 8.47834 41.8005 8.07066 41.7539C7.26989 41.5382 6.6273 40.9325 6.04471 40.3728C6.0032 40.3348 5.96169 40.2968 5.91892 40.2576C4.73534 39.1431 3.75125 37.2352 3.68617 35.6017C3.68456 35.5099 3.68324 35.418 3.68221 35.3262C3.68067 35.2803 3.67912 35.2344 3.67753 35.1871C3.67394 34.8258 3.74536 34.6004 3.99918 34.3306C4.37494 34.0463 4.77003 34.0307 5.23229 34.1388Z" fill="url(#paint6_linear_2424_521)"/>
<path d="M17.8805 19.3896C18.0184 19.5232 18.0387 19.5872 18.0617 19.7803C18.0562 20.6772 18.0562 20.6772 17.8016 20.9667C17.4857 21.252 17.1319 21.4237 16.7476 21.6008C16.6787 21.6332 16.6098 21.6656 16.5409 21.6981C16.3304 21.7973 16.1192 21.895 15.9079 21.9926C15.8459 22.0212 15.7839 22.0499 15.7201 22.0794C15.4797 22.1904 15.2393 22.3013 14.9987 22.4119C14.4899 22.6463 13.9858 22.8896 13.4821 23.1347C12.927 23.4045 12.3715 23.673 11.8119 23.9334C11.7193 23.9765 11.6268 24.0198 11.5343 24.0632C10.5934 24.4984 10.5934 24.4984 10.2032 24.4362C10.0563 24.2897 10.0439 24.1755 10.0166 23.9714C10.0671 22.7876 10.8238 20.9375 11.6427 20.0802C11.6704 20.0511 11.698 20.0221 11.7264 19.9922C12.3538 19.4003 13.2277 19.2837 14.0463 19.1607C14.159 19.1438 14.2716 19.1265 14.3842 19.109C16.9787 18.71 16.9787 18.71 17.8805 19.3896Z" fill="url(#paint7_linear_2424_521)"/>
<path d="M9.81004 20.535C9.89849 20.5318 9.89849 20.5318 9.98873 20.5286C10.1499 20.5582 10.1499 20.5582 10.2757 20.6773C10.4392 20.9511 10.4074 21.2091 10.3394 21.515C10.2564 21.8385 10.1508 22.1546 10.0433 22.4706C10.0239 22.5278 10.0044 22.5849 9.9844 22.6438C9.68291 23.5216 9.34834 24.3823 8.977 25.233C8.95702 25.2789 8.93704 25.3249 8.91645 25.3723C7.34278 28.9746 7.34278 28.9746 6.09801 29.8015C5.95473 29.8081 5.95473 29.8081 5.83144 29.8015C5.74769 29.5795 5.71153 29.3964 5.71186 29.1596C5.7117 29.0967 5.71153 29.0339 5.71136 28.9691C5.71175 28.9015 5.71213 28.834 5.71253 28.7644C5.71259 28.6928 5.71261 28.6213 5.7126 28.5498C5.71268 28.3995 5.71312 28.2492 5.71384 28.0989C5.71473 27.9103 5.71494 27.7217 5.71492 27.5332C5.71494 26.8307 5.71953 26.1283 5.74501 25.4262C5.74734 25.3522 5.74734 25.3522 5.74971 25.2767C5.79738 24.16 6.16886 22.7896 6.99437 21.9992C7.72333 21.3888 8.82313 20.5546 9.81004 20.535Z" fill="url(#paint8_linear_2424_521)"/>
<path d="M188.397 12.4493C188.81 12.7368 189.156 13.1296 189.34 13.5993C189.359 13.6471 189.378 13.695 189.398 13.7443C189.553 14.2943 189.488 14.9505 189.233 15.4585C188.855 16.0721 188.312 16.4871 187.609 16.6596C186.911 16.7672 186.336 16.6068 185.768 16.2022C185.687 16.1464 185.687 16.1464 185.605 16.0894C185.226 15.7615 184.966 15.2446 184.898 14.7516C184.89 14.627 184.887 14.5043 184.888 14.3795C184.889 14.3355 184.889 14.2916 184.889 14.2463C184.906 13.6578 185.141 13.1685 185.555 12.7493C186.379 12.0113 187.438 11.8898 188.397 12.4493Z" fill="url(#paint9_linear_2424_521)"/>
<path d="M4.81846 25.5517C4.99776 25.6485 5.06374 25.7129 5.14133 25.8998C5.20442 26.1294 5.22948 26.3531 5.2506 26.5897C5.25507 26.6386 5.25955 26.6874 5.26415 26.7378C5.30937 27.2698 5.31709 27.8004 5.31495 28.334C5.31487 28.3837 5.31479 28.4333 5.31471 28.4845C5.31256 29.2349 5.28179 29.966 5.13835 30.7046C5.13064 30.748 5.12294 30.7913 5.115 30.836C4.89479 32.066 4.89479 32.066 4.4386 32.4643C4.11488 32.6746 3.87238 32.7138 3.4856 32.6701C3.19367 32.531 3.06051 32.2188 2.95245 31.9264C2.82805 31.4869 2.82235 31.0422 2.8225 30.5884C2.82244 30.5505 2.82239 30.5127 2.82233 30.4737C2.82483 29.3087 2.98167 28.1208 3.43228 27.0392C3.44929 26.9979 3.4663 26.9566 3.48383 26.9141C4.09113 25.4591 4.09113 25.4591 4.81846 25.5517Z" fill="url(#paint10_linear_2424_521)"/>
<path d="M37.437 8.2671C37.7319 8.47517 37.9169 8.78195 37.9801 9.13697C38.0122 9.69449 38.0377 10.2632 37.6735 10.724C37.2999 11.1127 36.8632 11.2079 36.3362 11.2239C35.8217 11.2305 35.3479 11.1776 34.9412 10.8369C34.59 10.4516 34.4958 10.0771 34.498 9.56527C34.4971 9.5249 34.4963 9.48453 34.4954 9.44294C34.495 9.02628 34.6106 8.6819 34.8943 8.3723C35.5848 7.78447 36.6866 7.82661 37.437 8.2671Z" fill="#E3E4E6" fill-opacity="0.55"/>
<path d="M188.397 12.4493C188.81 12.7368 189.156 13.1296 189.34 13.5993C189.359 13.6471 189.378 13.695 189.398 13.7443C189.553 14.2943 189.488 14.9505 189.233 15.4585C188.855 16.0721 188.312 16.4871 187.609 16.6596C186.911 16.7672 186.336 16.6068 185.768 16.2022C185.687 16.1464 185.687 16.1464 185.605 16.0894C185.226 15.7615 184.966 15.2446 184.898 14.7516C184.89 14.627 184.887 14.5043 184.888 14.3795C184.889 14.3355 184.889 14.2916 184.889 14.2463C184.906 13.6578 185.141 13.1685 185.555 12.7493C186.379 12.0113 187.438 11.8898 188.397 12.4493ZM185.608 13.2274C185.243 13.7441 185.215 14.3533 185.311 14.9661C185.45 15.4473 185.818 15.8486 186.248 16.096C186.826 16.3773 187.342 16.3747 187.946 16.169C188.475 15.9387 188.786 15.5512 189.02 15.0336C189.152 14.5558 189.149 14.0127 188.93 13.5661C188.632 13.0558 188.269 12.7491 187.724 12.5136C186.862 12.3825 186.195 12.5673 185.608 13.2274Z" fill="#E3E4E6" fill-opacity="0.55"/>
<path d="M24.1783 35.8508C24.2479 35.855 24.3175 35.8592 24.3893 35.8635C25.4272 35.9314 25.4272 35.9314 25.7711 36.2824C25.9149 36.4713 25.9047 36.6923 25.8777 36.9199C25.782 37.2323 25.6555 37.3717 25.3979 37.5573C25.1297 37.6909 24.766 37.6441 24.4876 37.5623C24.325 37.4962 24.1686 37.4234 24.0117 37.3449C23.9635 37.3218 23.9152 37.2987 23.8655 37.2749C23.4495 37.0641 23.0911 36.7892 22.7321 36.4949C22.6936 36.4633 22.655 36.4318 22.6153 36.3992C22.5256 36.3189 22.5256 36.3189 22.4123 36.1762C22.4189 36.0234 22.4189 36.0234 22.4656 35.9106C22.9829 35.6877 23.632 35.8146 24.1783 35.8508Z" fill="url(#paint11_linear_2424_521)"/>
<path d="M186.301 13.1743C187.575 13.1743 187.575 13.1743 187.894 13.4837C188.056 13.7506 188.128 13.979 188.061 14.2898C187.964 14.5178 187.865 14.6769 187.644 14.7945C187.586 14.8076 187.586 14.8076 187.527 14.821C187.648 15.0352 187.791 15.2249 187.943 15.4176C188.007 15.5116 188.007 15.5116 188.007 15.6179C187.748 15.6742 187.748 15.6742 187.581 15.6179C187.47 15.4884 187.375 15.3543 187.281 15.2123C187.189 15.0801 187.126 14.9911 186.976 14.9262C186.847 14.9094 186.847 14.9094 186.674 14.9273C186.674 15.1552 186.674 15.3831 186.674 15.6179C186.551 15.6179 186.428 15.6179 186.301 15.6179C186.301 14.8115 186.301 14.0051 186.301 13.1743Z" fill="#E3E4E6" fill-opacity="0.55"/>
<path d="M186.674 13.5461C187.327 13.5198 187.327 13.5198 187.52 13.6465C187.666 13.7906 187.684 13.8346 187.704 14.0408C187.685 14.2673 187.633 14.344 187.474 14.5023C187.247 14.6155 186.919 14.5578 186.674 14.5554C186.674 14.2224 186.674 13.8893 186.674 13.5461Z" fill="url(#paint12_linear_2424_521)"/>
<path d="M102.864 38.1417C102.881 38.1417 102.899 38.1417 102.917 38.1417C102.917 39.7369 102.917 41.3322 102.917 42.9758C102.9 42.9758 102.882 42.9758 102.864 42.9758C102.846 41.4857 102.829 39.9956 102.811 38.4604C102.758 38.4867 102.758 38.4867 102.704 38.5135C102.804 38.2014 102.804 38.2014 102.864 38.1417Z" fill="url(#paint13_linear_2424_521)"/>
</g>
<defs>
<linearGradient id="paint0_linear_2424_521" x1="13.8522" y1="20.3842" x2="13.8522" y2="31.8413" gradientUnits="userSpaceOnUse">
<stop offset="0.163947" stop-color="#010208"/>
<stop offset="0.205128" stop-color="#010206"/>
<stop offset="0.247863" stop-color="#000505"/>
<stop offset="0.304584" stop-color="#010101"/>
<stop offset="0.341103" stop-color="#010101"/>
<stop offset="0.362082" stop-color="#010101"/>
<stop offset="1" stop-color="#010101"/>
</linearGradient>
<linearGradient id="paint1_linear_2424_521" x1="16.7222" y1="31.0649" x2="16.7222" y2="35.1923" gradientUnits="userSpaceOnUse">
<stop offset="0.163947" stop-color="#010208"/>
<stop offset="0.205128" stop-color="#010206"/>
<stop offset="0.247863" stop-color="#000505"/>
<stop offset="0.304584" stop-color="#010101"/>
<stop offset="0.341103" stop-color="#010101"/>
<stop offset="0.362082" stop-color="#010101"/>
<stop offset="1" stop-color="#010101"/>
</linearGradient>
<linearGradient id="paint2_linear_2424_521" x1="14.2834" y1="35.8905" x2="14.2834" y2="44.0147" gradientUnits="userSpaceOnUse">
<stop offset="0.163947" stop-color="#010208"/>
<stop offset="0.205128" stop-color="#010206"/>
<stop offset="0.247863" stop-color="#000505"/>
<stop offset="0.304584" stop-color="#010101"/>
<stop offset="0.341103" stop-color="#010101"/>
<stop offset="0.362082" stop-color="#010101"/>
<stop offset="1" stop-color="#010101"/>
</linearGradient>
<linearGradient id="paint3_linear_2424_521" x1="17.6138" y1="34.8877" x2="17.6138" y2="40.6552" gradientUnits="userSpaceOnUse">
<stop offset="0.163947" stop-color="#010208"/>
<stop offset="0.205128" stop-color="#010206"/>
<stop offset="0.247863" stop-color="#000505"/>
<stop offset="0.304584" stop-color="#010101"/>
<stop offset="0.341103" stop-color="#010101"/>
<stop offset="0.362082" stop-color="#010101"/>
<stop offset="1" stop-color="#010101"/>
</linearGradient>
<linearGradient id="paint4_linear_2424_521" x1="19.583" y1="22.0265" x2="19.583" y2="30.0333" gradientUnits="userSpaceOnUse">
<stop offset="0.163947" stop-color="#010208"/>
<stop offset="0.205128" stop-color="#010206"/>
<stop offset="0.247863" stop-color="#000505"/>
<stop offset="0.304584" stop-color="#010101"/>
<stop offset="0.341103" stop-color="#010101"/>
<stop offset="0.362082" stop-color="#010101"/>
<stop offset="1" stop-color="#010101"/>
</linearGradient>
<linearGradient id="paint5_linear_2424_521" x1="22.2325" y1="26.3613" x2="22.2325" y2="32.2551" gradientUnits="userSpaceOnUse">
<stop offset="0.163947" stop-color="#010208"/>
<stop offset="0.205128" stop-color="#010206"/>
<stop offset="0.247863" stop-color="#000505"/>
<stop offset="0.304584" stop-color="#010101"/>
<stop offset="0.341103" stop-color="#010101"/>
<stop offset="0.362082" stop-color="#010101"/>
<stop offset="1" stop-color="#010101"/>
</linearGradient>
<linearGradient id="paint6_linear_2424_521" x1="6.47433" y1="34.0769" x2="6.47433" y2="41.7686" gradientUnits="userSpaceOnUse">
<stop offset="0.163947" stop-color="#010208"/>
<stop offset="0.205128" stop-color="#010206"/>
<stop offset="0.247863" stop-color="#000505"/>
<stop offset="0.304584" stop-color="#010101"/>
<stop offset="0.341103" stop-color="#010101"/>
<stop offset="0.362082" stop-color="#010101"/>
<stop offset="1" stop-color="#010101"/>
</linearGradient>
<linearGradient id="paint7_linear_2424_521" x1="14.0392" y1="18.8379" x2="14.0392" y2="24.4656" gradientUnits="userSpaceOnUse">
<stop offset="0.163947" stop-color="#010208"/>
<stop offset="0.205128" stop-color="#010206"/>
<stop offset="0.247863" stop-color="#000505"/>
<stop offset="0.304584" stop-color="#010101"/>
<stop offset="0.341103" stop-color="#010101"/>
<stop offset="0.362082" stop-color="#010101"/>
<stop offset="1" stop-color="#010101"/>
</linearGradient>
<linearGradient id="paint8_linear_2424_521" x1="8.05308" y1="20.5286" x2="8.05308" y2="29.8065" gradientUnits="userSpaceOnUse">
<stop offset="0.163947" stop-color="#010208"/>
<stop offset="0.205128" stop-color="#010206"/>
<stop offset="0.247863" stop-color="#000505"/>
<stop offset="0.304584" stop-color="#010101"/>
<stop offset="0.341103" stop-color="#010101"/>
<stop offset="0.362082" stop-color="#010101"/>
<stop offset="1" stop-color="#010101"/>
</linearGradient>
<linearGradient id="paint9_linear_2424_521" x1="187.185" y1="12.0999" x2="187.185" y2="16.6922" gradientUnits="userSpaceOnUse">
<stop offset="0.163947" stop-color="#010208"/>
<stop offset="0.205128" stop-color="#010206"/>
<stop offset="0.247863" stop-color="#000505"/>
<stop offset="0.304584" stop-color="#010101"/>
<stop offset="0.341103" stop-color="#010101"/>
<stop offset="0.362082" stop-color="#010101"/>
<stop offset="1" stop-color="#010101"/>
</linearGradient>
<linearGradient id="paint10_linear_2424_521" x1="4.0688" y1="25.5182" x2="4.0688" y2="32.686" gradientUnits="userSpaceOnUse">
<stop offset="0.163947" stop-color="#010208"/>
<stop offset="0.205128" stop-color="#010206"/>
<stop offset="0.247863" stop-color="#000505"/>
<stop offset="0.304584" stop-color="#010101"/>
<stop offset="0.341103" stop-color="#010101"/>
<stop offset="0.362082" stop-color="#010101"/>
<stop offset="1" stop-color="#010101"/>
</linearGradient>
<linearGradient id="paint11_linear_2424_521" x1="24.1531" y1="35.782" x2="24.1531" y2="37.6413" gradientUnits="userSpaceOnUse">
<stop offset="0.163947" stop-color="#010208"/>
<stop offset="0.205128" stop-color="#010206"/>
<stop offset="0.247863" stop-color="#000505"/>
<stop offset="0.304584" stop-color="#010101"/>
<stop offset="0.341103" stop-color="#010101"/>
<stop offset="0.362082" stop-color="#010101"/>
<stop offset="1" stop-color="#010101"/>
</linearGradient>
<linearGradient id="paint12_linear_2424_521" x1="187.189" y1="13.5322" x2="187.189" y2="14.5722" gradientUnits="userSpaceOnUse">
<stop offset="0.163947" stop-color="#010208"/>
<stop offset="0.205128" stop-color="#010206"/>
<stop offset="0.247863" stop-color="#000505"/>
<stop offset="0.304584" stop-color="#010101"/>
<stop offset="0.341103" stop-color="#010101"/>
<stop offset="0.362082" stop-color="#010101"/>
<stop offset="1" stop-color="#010101"/>
</linearGradient>
<linearGradient id="paint13_linear_2424_521" x1="102.811" y1="38.1417" x2="102.811" y2="42.9758" gradientUnits="userSpaceOnUse">
<stop offset="0.163947" stop-color="#010208"/>
<stop offset="0.205128" stop-color="#010206"/>
<stop offset="0.247863" stop-color="#000505"/>
<stop offset="0.304584" stop-color="#010101"/>
<stop offset="0.341103" stop-color="#010101"/>
<stop offset="0.362082" stop-color="#010101"/>
<stop offset="1" stop-color="#010101"/>
</linearGradient>
<clipPath id="clip0_2424_521">
<rect width="189" height="57" fill="white" transform="translate(0.5)"/>
</clipPath>
</defs>
</svg>
