<svg width="203" height="45" viewBox="0 0 203 45" fill="none" xmlns="http://www.w3.org/2000/svg">
<g clip-path="url(#clip0_2428_563)">
<path d="M166.218 27.9042C166.218 22.6138 167.753 18.7275 170.822 16.2451C173.932 13.722 178.269 12.4604 183.835 12.4604C186.576 12.4604 189.011 12.7657 191.139 13.3761C193.308 13.9458 195.129 14.8615 196.602 16.123C198.075 17.3439 199.2 18.931 199.978 20.8843C200.755 22.8377 201.144 25.1776 201.144 27.9042C201.144 33.0318 199.609 36.8774 196.54 39.4413C193.471 41.9643 189.236 43.2258 183.835 43.2258C181.257 43.2258 178.883 42.9206 176.714 42.3101C174.587 41.6591 172.745 40.7028 171.19 39.4413C169.635 38.1389 168.408 36.5316 167.508 34.6189C166.648 32.7062 166.218 30.4679 166.218 27.9042ZM174.137 27.8431C174.137 30.9767 174.955 33.1741 176.592 34.4356C178.269 35.6565 180.684 36.2671 183.835 36.2671C186.822 36.2671 189.134 35.5346 190.771 34.0694C192.407 32.6045 193.226 30.5289 193.226 27.8431C193.226 25.0352 192.387 22.9394 190.709 21.5558C189.072 20.1721 186.781 19.4803 183.835 19.4803C180.847 19.4803 178.474 20.2128 176.714 21.6779C174.996 23.1022 174.137 25.1573 174.137 27.8431Z" fill="#E3E4E6" fill-opacity="0.55"/>
<path d="M165.943 20.3334H160.296C158.66 20.3334 157.35 20.5369 156.368 20.9439C155.427 21.3508 154.69 21.9409 154.158 22.7141C153.667 23.4466 153.34 24.3419 153.176 25.3999C153.054 26.4173 152.992 27.5569 152.992 28.8184V43.2243H144.829V12.7642H152.931V24.6675C152.931 22.8769 153.176 21.2491 153.667 19.784C154.199 18.319 154.895 17.0575 155.754 15.9994C156.655 14.9414 157.657 14.1275 158.762 13.5577C159.908 12.988 161.094 12.7031 162.322 12.7031H165.943V20.3334Z" fill="#E3E4E6" fill-opacity="0.55"/>
<path d="M141.768 20.3334H136.121C134.484 20.3334 133.175 20.5369 132.193 20.9439C131.251 21.3508 130.515 21.9409 129.983 22.7141C129.492 23.4466 129.165 24.3419 129.001 25.3999C128.878 26.4173 128.817 27.5569 128.817 28.8184V43.2243H120.653V12.7642H128.755V24.6675C128.755 22.8769 129.001 21.2491 129.492 19.784C130.024 18.319 130.72 17.0575 131.579 15.9994C132.479 14.9414 133.482 14.1275 134.587 13.5577C135.732 12.988 136.919 12.7031 138.147 12.7031H141.768V20.3334Z" fill="#E3E4E6" fill-opacity="0.55"/>
<path d="M95.4769 44.0183C93.9627 44.0183 92.4691 43.8149 90.9961 43.4077C89.5639 43.0009 88.2543 42.4108 87.0678 41.6377C85.9219 40.8237 84.9808 39.8267 84.2442 38.6464C83.5486 37.4256 83.2009 36.0217 83.2009 34.4346C83.2009 32.8475 83.5894 31.5045 84.3671 30.4057C85.1445 29.2664 86.147 28.3507 87.3746 27.6589C88.6022 26.9264 89.9527 26.3973 91.4258 26.0718C92.9397 25.7055 94.3924 25.4817 95.7837 25.4003L109.717 24.7288V23.9353C109.717 22.7958 109.41 21.9005 108.796 21.2494C108.223 20.5576 107.466 20.0286 106.525 19.6623C105.625 19.2961 104.643 19.0723 103.579 18.9909C102.515 18.8688 101.492 18.8077 100.51 18.8077C99.6506 18.8077 98.689 18.8688 97.6251 18.9909C96.5611 19.0723 95.5586 19.2961 94.6175 19.6623C93.7173 19.9879 92.9397 20.4762 92.2851 21.1273C91.6712 21.7378 91.3643 22.5924 91.3643 23.6911H83.9374C83.9374 21.575 84.3671 19.8048 85.2262 18.3804C86.1264 16.9561 87.3337 15.8166 88.8477 14.9621C90.3618 14.1075 92.1009 13.5174 94.065 13.1918C96.0292 12.8256 98.0956 12.6425 100.265 12.6425C102.965 12.6425 105.379 12.8866 107.507 13.375C109.676 13.8226 111.497 14.5755 112.97 15.6335C114.443 16.6916 115.569 18.0752 116.346 19.7844C117.165 21.4529 117.574 23.4877 117.574 25.8887V43.1637H109.84V32.298C109.84 34.8213 109.287 36.8559 108.183 38.4024C107.078 39.9079 105.748 41.0882 104.193 41.9428C102.679 42.7568 101.103 43.306 99.4666 43.591C97.8296 43.8757 96.4997 44.0183 95.4769 44.0183ZM98.239 38.2802C99.3029 38.2396 100.489 38.1174 101.799 37.914C103.149 37.7105 104.418 37.3849 105.605 36.9374C106.791 36.449 107.794 35.8183 108.612 35.0449C109.431 34.2718 109.84 33.2748 109.84 32.0539V30.1006L99.2824 30.589C98.6276 30.6296 97.8296 30.7109 96.8885 30.8331C95.9883 30.9146 95.1086 31.0771 94.2493 31.3215C93.4308 31.5655 92.7351 31.9116 92.1623 32.3591C91.5895 32.8069 91.3029 33.397 91.3029 34.1294C91.3029 34.9025 91.528 35.5537 91.978 36.0828C92.4283 36.6118 93.0011 37.0593 93.6968 37.4256C94.3924 37.7512 95.1289 37.975 95.9066 38.0972C96.7248 38.2191 97.5025 38.2802 98.239 38.2802Z" fill="#E3E4E6" fill-opacity="0.55"/>
<path d="M63.5611 43.9583C61.0242 43.9583 58.7326 43.6125 56.6865 42.9206C54.6406 42.2288 52.9015 41.2318 51.4694 39.9294C50.0372 38.5866 48.9321 36.9384 48.1547 34.9851C47.3773 33.0318 46.9885 30.7935 46.9885 28.2705C46.9885 22.8987 48.4002 18.931 51.2237 16.3672C54.0881 13.7627 58.1189 12.4604 63.3157 12.4604C68.5945 12.4604 72.7068 13.8034 75.6532 16.4892C78.6404 19.1344 80.1337 23.0818 80.1337 28.3315V30.5289H54.4769C54.4769 31.6685 54.7223 32.6655 55.2134 33.5202C55.7045 34.3745 56.3593 35.0868 57.1776 35.6565C58.0369 36.2262 59.0191 36.6739 60.1239 36.9995C61.2287 37.2842 62.4155 37.4269 63.684 37.4269C66.0981 37.4269 68.0214 37.0402 69.4536 36.2671C70.9269 35.4937 71.8271 34.4561 72.1545 33.1539H79.6429C78.9064 36.9791 77.1671 39.7464 74.4255 41.4557C71.6837 43.1241 68.0625 43.9583 63.5611 43.9583ZM54.4155 25.5235L72.3385 25.5846C72.3385 24.5265 72.0726 23.5905 71.5406 22.7766C71.0086 21.9627 70.313 21.2912 69.4536 20.7622C68.5942 20.1925 67.6328 19.7652 66.5689 19.4803C65.505 19.1955 64.4411 19.053 63.3771 19.053C62.2721 19.053 61.1673 19.1751 60.0625 19.4193C58.9986 19.6635 58.0369 20.0501 57.1776 20.5791C56.3593 21.1081 55.684 21.7796 55.152 22.5935C54.6611 23.4074 54.4155 24.3841 54.4155 25.5235Z" fill="#E3E4E6" fill-opacity="0.55"/>
<path d="M23.57 7.88612C18.5369 7.88612 14.7313 9.06628 12.1533 11.4266C9.57533 13.7869 8.28636 17.4087 8.28636 22.2921C8.28636 26.972 9.59578 30.4107 12.2147 32.6084C14.8745 34.8058 18.5369 35.9045 23.2018 35.9045C24.5112 35.9045 25.9229 35.6808 27.437 35.2331C28.992 34.7856 30.4242 34.1548 31.7336 33.3408C33.0841 32.5268 34.1888 31.5298 35.0482 30.3496C35.9484 29.129 36.3984 27.7655 36.3984 26.2599C36.3984 27.9283 36.1736 29.7597 35.7233 31.7537C35.3142 33.7071 34.5777 35.5382 33.5137 37.2475C32.4498 38.9568 30.9971 40.3811 29.1557 41.5204C27.3553 42.66 25.0636 43.2297 22.281 43.2297C18.8028 43.2297 15.6724 42.7617 12.8899 41.8256C10.1482 40.8897 7.81576 39.5264 5.89252 37.7359C3.96925 35.9454 2.49613 33.7275 1.47313 31.0823C0.491041 28.4372 0 25.4053 0 21.9869C0 18.243 0.593343 15.0281 1.78003 12.3422C2.96671 9.61566 4.62398 7.37743 6.75183 5.62755C8.87969 3.87767 11.3758 2.59579 14.2402 1.78189C17.1456 0.927297 20.3169 0.5 23.7542 0.5C26.2094 0.5 28.5827 0.784864 30.8742 1.35459C33.1658 1.88363 35.2322 2.73822 37.0738 3.91836C38.9151 5.09852 40.4293 6.62459 41.6158 8.49656C42.8434 10.3685 43.6005 12.6271 43.887 15.2722H35.6619C35.2936 13.8479 34.7208 12.6678 33.9434 11.7318C33.1658 10.7551 32.2247 9.98192 31.1199 9.4122C30.056 8.84245 28.8692 8.45585 27.5599 8.25239C26.2914 8.00821 24.9613 7.88612 23.57 7.88612ZM36.3984 42.6191V26.2599H22.7107V19.301H43.887V42.6191H36.3984Z" fill="#E3E4E6" fill-opacity="0.55"/>
</g>
<defs>
<clipPath id="clip0_2428_563">
<rect width="203" height="44" fill="white" transform="translate(0 0.5)"/>
</clipPath>
</defs>
</svg>
