<svg width="243" height="145" viewBox="0 0 243 145" fill="none" xmlns="http://www.w3.org/2000/svg">
<g clip-path="url(#clip0_2424_491)">
<path d="M72.5775 65.7332C73.5024 66.7372 73.7625 67.078 73.7625 68.4969C74.6854 67.9794 75.5166 67.406 76.3465 66.7548C79.5791 64.3287 83.1148 63.3926 87.1469 63.7525C90.1629 64.2636 92.1263 65.1684 93.9877 67.6073C94.9827 69.5912 94.3627 72.7163 93.7461 74.7424C93.448 75.6327 93.1253 76.5127 92.798 77.3926C92.6783 77.7153 92.5586 78.038 92.4352 78.3705C92.1612 79.1082 91.8872 79.846 91.6132 80.5837C91.5421 80.7751 91.471 80.9665 91.3978 81.1637C91.2532 81.5528 91.1084 81.9418 90.9633 82.3307C89.5118 86.2273 88.101 90.1773 87.4443 94.2945C86.1651 94.3019 84.8859 94.3072 83.6066 94.3108C83.1734 94.3122 82.7403 94.3142 82.3071 94.3168C79.442 94.3336 76.619 94.2477 73.7625 93.9979C73.9268 93.575 73.9268 93.575 74.0944 93.1436C75.9708 88.2875 77.6136 83.3338 79.1349 78.3563C79.2487 77.9848 79.3626 77.6133 79.4799 77.2305C79.8108 75.7651 79.8767 74.3872 79.4137 72.9448C77.2357 72.7953 77.2357 72.7953 75.1753 73.3896C74.9054 73.6342 74.6355 73.8788 74.3574 74.1309C74.1971 74.2727 74.0369 74.4145 73.8717 74.5606C69.2185 79.1892 67.676 88.088 66.0294 93.9979C61.8088 93.9979 57.5883 93.9979 53.2399 93.9979C53.7368 92.6586 54.2337 91.3192 54.7456 89.9393C55.7694 87.1639 56.7806 84.3862 57.7199 81.581C57.8014 81.3388 57.8829 81.0966 57.9669 80.847C58.9275 78.0199 58.9275 78.0199 59.2814 75.076C59.2889 74.7521 59.2889 74.7521 59.2965 74.4216C59.1552 73.6533 58.9276 73.4 58.2962 72.9448C56.9756 72.6664 55.8745 72.8201 54.6713 73.4081C49.6017 77.7883 47.6727 85.6694 45.8546 91.8633C45.7739 92.1381 45.6933 92.4129 45.6101 92.696C45.5043 93.0628 45.5043 93.0628 45.3964 93.437C45.2093 93.9979 45.2093 93.9979 44.9119 94.2945C44.0107 94.3208 43.1164 94.3286 42.2152 94.3234C41.945 94.323 41.6747 94.3226 41.3963 94.3222C40.5295 94.3205 39.6627 94.3168 38.796 94.313C38.2098 94.3115 37.6237 94.3102 37.0375 94.3089C35.5974 94.3057 34.1573 94.3005 32.7172 94.2945C32.4198 93.7014 32.4198 93.7014 32.6638 92.9254C32.7919 92.6066 32.9199 92.2878 33.0519 91.9593C33.191 91.61 33.3302 91.2606 33.4736 90.9007C33.853 89.9779 34.2405 89.0593 34.632 88.1416C35.3207 86.5108 35.915 84.8563 36.4963 83.1853C36.9771 81.8058 37.4862 80.4413 38.0152 79.0791C39.0115 76.489 39.8378 73.843 40.6744 71.1983C40.7822 70.8584 40.8901 70.5185 41.0011 70.1683C41.0957 69.8678 41.1902 69.5672 41.2877 69.2576C41.7712 67.8074 42.306 66.3748 42.8299 64.9386C46.9522 64.9386 51.0746 64.9386 55.3219 64.9386C55.1256 65.7215 54.9293 66.5043 54.727 67.3108C54.9287 67.1962 55.1304 67.0815 55.3382 66.9633C60.2007 64.2507 67.633 61.6254 72.5775 65.7332Z" fill="#E3E4E6" fill-opacity="0.55"/>
<path d="M119.362 63.9616C119.83 63.9582 120.299 63.9521 120.767 63.9433C125.551 63.8541 129.691 64.6234 133.788 67.2553C135.719 69.1805 136.276 71.0659 136.279 73.7417C136.282 73.9724 136.286 74.2031 136.29 74.4408C136.303 79.9687 133.283 85.22 129.547 89.1262C125.237 93.2123 119.889 95.0482 114.016 94.971C110.92 94.8803 108.859 94.1017 106.182 92.5154C106.139 92.6673 106.096 92.8192 106.051 92.9757C105.347 95.383 104.531 97.751 103.714 100.122C103.466 100.844 103.219 101.566 102.972 102.288C102.815 102.747 102.657 103.205 102.499 103.664C102.426 103.88 102.352 104.096 102.276 104.319C101.755 105.825 101.755 105.825 101.424 106.155C101.013 106.183 100.6 106.19 100.188 106.189C99.9264 106.189 99.6644 106.189 99.3945 106.189C99.1098 106.188 98.8251 106.186 98.5317 106.184C98.2416 106.184 97.9516 106.184 97.6527 106.183C96.7223 106.181 95.7919 106.178 94.8615 106.174C94.2323 106.172 93.6032 106.171 92.9741 106.17C91.4282 106.167 89.8824 106.162 88.3366 106.155C88.6917 105.052 89.0807 103.997 89.5693 102.946C93.4012 94.5668 96.4093 85.9149 99.0441 77.0961C99.1476 76.7513 99.2512 76.4065 99.3579 76.0512C99.8068 74.5525 100.252 73.0527 100.688 71.5502C100.801 71.171 100.801 71.171 100.916 70.784C101.144 69.9597 101.144 69.9597 101.287 69.0222C101.717 66.6497 101.717 66.6497 102.545 66.0215C103.265 65.7674 103.94 65.6399 104.695 65.5317C104.972 65.477 105.249 65.4222 105.534 65.3658C106.436 65.1916 107.339 65.0439 108.246 64.9016C108.549 64.8515 108.853 64.8015 109.165 64.7499C112.573 64.1992 115.912 63.979 119.362 63.9616Z" fill="#E3E4E6" fill-opacity="0.55"/>
<path d="M146.559 64.6064C146.786 64.6071 147.012 64.6078 147.246 64.6084C147.502 64.6085 147.758 64.6085 148.022 64.6085C148.3 64.61 148.578 64.6116 148.865 64.6131C149.148 64.6136 149.432 64.614 149.724 64.6144C150.633 64.6161 151.542 64.6198 152.451 64.6236C153.066 64.6251 153.681 64.6264 154.296 64.6276C155.806 64.6309 157.317 64.636 158.827 64.6421C157.93 67.7359 157.93 67.7359 157.271 69.2139C157.15 69.4906 157.029 69.7673 156.904 70.0524C156.778 70.3402 156.652 70.6281 156.522 70.9247C155.475 73.3806 154.53 75.8446 153.734 78.3934C153.646 78.666 153.559 78.9386 153.468 79.2195C152.941 80.9726 152.632 82.6769 152.879 84.5092C153.375 85.4976 153.375 85.4976 154.366 85.9918C156.49 86.4079 158.46 85.8476 160.315 84.8057C165.642 81.0869 167.569 71.8348 169.22 65.9938C169.535 64.9386 169.535 64.9386 169.832 64.6421C170.243 64.6146 170.656 64.6073 171.067 64.6084C171.329 64.6085 171.591 64.6085 171.861 64.6085C172.146 64.61 172.431 64.6116 172.724 64.6131C173.159 64.6138 173.159 64.6138 173.603 64.6144C174.534 64.6161 175.464 64.6198 176.394 64.6236C177.023 64.6251 177.653 64.6264 178.282 64.6276C179.828 64.6309 181.373 64.6359 182.919 64.6421C182.542 65.798 182.133 66.9299 181.676 68.0568C178.249 76.5836 175.299 85.2452 172.509 93.9979C168.387 93.9979 164.264 93.9979 160.017 93.9979C160.612 91.6257 160.612 91.6257 160.909 91.0327C160.671 91.1674 160.671 91.1674 160.428 91.3049C159.699 91.7136 158.966 92.1142 158.233 92.5153C158.004 92.6464 157.775 92.7775 157.539 92.9126C154.394 94.6232 151.231 94.9624 147.711 94.9802C147.435 94.9818 147.159 94.9835 146.875 94.9852C144.167 94.9567 141.724 94.5209 139.587 92.7377C138.429 91.3645 137.825 89.9814 137.904 88.1616C138.363 85.1187 139.726 82.103 140.787 79.2225C142.245 75.2592 143.65 71.2847 144.959 67.2696C145.059 66.964 145.159 66.6584 145.262 66.3436C145.348 66.0777 145.434 65.8118 145.522 65.5378C145.844 64.6554 145.844 64.6554 146.559 64.6064Z" fill="#E3E4E6" fill-opacity="0.55"/>
<path d="M219.517 63.7166C221.816 63.67 224.09 63.8262 226.381 64.012C226.681 64.0352 226.981 64.0585 227.29 64.0824C227.574 64.1074 227.857 64.1323 228.149 64.1579C228.403 64.1797 228.657 64.2014 228.919 64.2238C229.644 64.3505 230.168 64.5781 230.805 64.9386C230.668 67.5226 230.441 70.1821 229.616 72.6482C228.403 73.0513 227.4 72.7504 226.177 72.5185C222.147 71.7946 222.147 71.7946 218.313 72.9448C218.189 73.7844 218.189 73.7844 218.313 74.7239C218.941 75.3928 218.941 75.3928 219.801 75.91C220.099 76.1114 220.398 76.3129 220.706 76.5204C220.996 76.7104 221.286 76.9004 221.585 77.0961C223.507 78.4265 225.21 79.7363 226.177 81.9146C226.588 84.6458 226.105 86.9567 224.559 89.2536C222.212 92.3379 218.323 94.1437 214.52 94.7138C213.505 94.7898 212.49 94.8472 211.472 94.8875C211.241 94.8976 211.01 94.9077 210.771 94.9181C206.326 95.0863 202.148 94.5617 197.791 93.7014C198.46 87.5844 198.46 87.5844 199.278 85.1022C200.047 84.7187 200.292 84.8695 201.109 85.1011C203.779 85.8201 206.332 86.4369 209.112 86.4366C209.332 86.4383 209.553 86.44 209.781 86.4417C211.005 86.4135 211.799 86.2967 212.662 85.3988C212.936 84.6971 212.936 84.6971 212.662 83.9161C211.286 82.5441 209.678 81.4623 208.096 80.337C206.258 79.0021 204.789 77.8128 204.037 75.6135C203.692 73.3081 204.037 71.5313 205.254 69.5475C207.952 65.9601 211.656 64.5558 215.978 63.9089C217.157 63.797 218.334 63.7635 219.517 63.7166Z" fill="#E3E4E6" fill-opacity="0.55"/>
<path d="M192.437 55.7464C196.756 55.7464 201.074 55.7464 205.524 55.7464C205.062 58.5075 204.045 61.0645 202.874 63.6008C202.178 65.1988 201.598 66.8454 200.992 68.4791C200.649 69.4013 200.297 70.3201 199.947 71.2398C197.868 76.7603 195.924 82.3255 194.054 87.9192C193.975 88.1552 193.896 88.3911 193.815 88.6343C193.59 89.3069 193.366 89.9798 193.142 90.6528C193.075 90.8538 193.008 91.0548 192.939 91.2619C192.638 92.1705 192.373 93.0687 192.14 93.9979C187.723 93.9979 183.306 93.9979 178.755 93.9979C179.012 92.7154 179.346 91.4977 179.74 90.2543C179.807 90.0429 179.874 89.8315 179.943 89.6137C180.396 88.1922 180.881 86.7869 181.404 85.3895C181.659 84.6995 181.906 84.0084 182.148 83.3138C182.261 82.9907 182.261 82.9907 182.376 82.661C182.521 82.2434 182.666 81.8255 182.809 81.4073C183.349 79.864 183.969 78.3617 184.605 76.8555C187.508 69.9266 190.056 62.8682 192.437 55.7464Z" fill="#E3E4E6" fill-opacity="0.55"/>
<path d="M23.1995 65.2352C27.6164 65.2352 32.0332 65.2352 36.5839 65.2352C35.9949 66.8008 35.406 68.3665 34.7993 69.9795C32.1808 76.9772 29.7867 84.0429 27.4282 91.131C27.3087 91.49 27.1892 91.849 27.0661 92.2188C26.9136 92.7211 26.9136 92.7211 26.758 93.2336C26.4712 93.9979 26.4712 93.9979 25.8764 94.2945C25.4632 94.3209 25.0488 94.3293 24.6348 94.3281C24.2508 94.3281 24.2508 94.3281 23.859 94.3281C23.5824 94.3265 23.3057 94.325 23.0206 94.3234C22.7376 94.323 22.4545 94.3226 22.1629 94.3222C21.2568 94.3205 20.3506 94.3168 19.4445 94.313C18.831 94.3115 18.2176 94.3102 17.6041 94.309C16.0984 94.3057 14.5927 94.3006 13.0869 94.2945C13.2573 93.0757 13.5327 92.024 14.0013 90.8868C14.1875 90.4302 14.1875 90.4302 14.3774 89.9643C14.5098 89.6442 14.6422 89.324 14.7785 88.9941C15.0511 88.324 15.3234 87.6537 15.5953 86.9833C15.7272 86.6592 15.859 86.335 15.9948 86.0011C17.2987 82.7797 18.4268 79.5294 19.4596 76.2123C19.9562 74.6226 20.4781 73.0418 21.006 71.4622C21.0884 71.2144 21.1708 70.9666 21.2557 70.7114C21.8719 68.8723 22.5343 67.059 23.1995 65.2352Z" fill="#E3E4E6" fill-opacity="0.55"/>
<path d="M33.907 47.7403C35.9198 48.7396 37.4668 50.0775 38.3127 52.202C39.0213 54.7337 38.6984 56.9877 37.4703 59.2769C37.1601 59.768 37.1601 59.768 36.5838 60.4908C36.3875 60.4908 36.1912 60.4908 35.989 60.4908C35.8908 60.7843 35.7927 61.0779 35.6916 61.3804C33.9725 62.6519 31.9276 62.7817 29.8557 62.7193C27.907 62.4229 26.6177 61.3336 25.3187 59.9163C23.7398 57.6478 23.5467 55.8219 23.7944 53.0777C24.3723 51.0102 25.7027 49.3464 27.482 48.1503C29.6917 46.9506 31.5406 46.7081 33.907 47.7403Z" fill="#E3E4E6" fill-opacity="0.55"/>
<path d="M122.244 72.9448C123.063 73.8125 123.209 74.5872 123.285 75.7432C123.174 79.0839 121.665 82.0658 119.372 84.4223C117.735 85.9462 116.097 86.6166 113.86 86.696C112.656 86.6537 111.872 86.5111 110.941 85.6953C109.874 84.5217 109.96 83.3477 109.978 81.8444C110.092 80.4089 110.514 79.1318 110.997 77.7818C111.084 77.5194 111.171 77.257 111.26 76.9866C112.696 72.8211 112.696 72.8211 114.492 71.9069C117.076 71.4437 120.092 71.2387 122.244 72.9448Z" fill="url(#paint0_linear_2424_491)"/>
</g>
<defs>
<linearGradient id="paint0_linear_2424_491" x1="116.627" y1="71.5807" x2="116.627" y2="86.696" gradientUnits="userSpaceOnUse">
<stop offset="0.163947" stop-color="#010208"/>
<stop offset="0.205128" stop-color="#010206"/>
<stop offset="0.247863" stop-color="#000505"/>
<stop offset="0.304584" stop-color="#010101"/>
<stop offset="0.341103" stop-color="#010101"/>
<stop offset="0.362082" stop-color="#010101"/>
<stop offset="1" stop-color="#010101"/>
</linearGradient>
<clipPath id="clip0_2424_491">
<rect width="243" height="145" fill="white"/>
</clipPath>
</defs>
</svg>
