<svg width="233" height="87" viewBox="0 0 233 87" fill="none" xmlns="http://www.w3.org/2000/svg">
<path d="M25.7659 11.89C22.2127 12.5667 19.5138 14.0167 16.7954 16.7233C13.98 19.5267 12.582 22.1753 11.9218 25.9453C10.4656 34.22 15.5139 42.4753 23.6495 45.124C24.5427 45.4333 24.7174 45.5687 25.1252 46.3807C26.4455 48.9713 29.5522 51.91 32.5229 53.36C34.8723 54.5007 36.6004 54.926 39.4353 55.042C43.1438 55.1967 45.9593 54.5007 49.2795 52.548C50.9688 51.5813 53.9395 48.5267 55.0268 46.69C60.0558 38.106 56.7549 27.086 47.8621 22.6393C47.0078 22.214 45.9204 21.7693 45.435 21.634C44.6389 21.4213 44.4836 21.286 43.6875 19.952C41.3963 16.182 37.513 13.2627 33.2802 12.1607C31.2414 11.6387 27.8047 11.5033 25.7659 11.89Z" fill="#E3E4E6" fill-opacity="0.55"/>
<path d="M84.3654 22.8907C79.4142 23.8767 76.1716 26.7574 75.492 30.798C75.0648 33.35 75.9386 36.1727 77.6473 37.758C79.453 39.44 81.1811 40.1747 86.7731 41.586C92.1515 42.9587 93.1806 43.5774 92.9476 45.2594C92.8117 46.2454 92.1321 46.9994 90.7923 47.5987C89.8992 48.0047 89.5302 48.0434 86.8896 48.0434C84.2101 48.0434 83.8606 47.9854 82.4237 47.502C81.5694 47.1927 80.5209 46.7287 80.0938 46.458C79.2394 45.878 78.2686 45.7814 77.7638 46.2067C77.5696 46.3614 77.0065 47.1154 76.4823 47.8887C74.9289 50.1507 75.1813 51.0014 77.8026 52.3547C83.181 55.1194 90.2098 55.448 94.7727 53.1474C96.3649 52.3547 98.4037 50.344 99.0832 48.8747C100.598 45.6847 100.073 41.7407 97.8406 39.498C96.1125 37.7387 94.3262 36.9267 89.7632 35.7667C84.8897 34.5294 83.2393 33.8914 82.6373 33.0214C81.8607 31.9194 82.5403 30.392 84.1324 29.6767C86.2488 28.71 89.2972 28.884 92.6175 30.1794C95.0834 31.1267 95.2776 31.0494 96.9668 28.5167C98.6367 26.0227 98.1318 25.172 94.2873 23.838C91.1224 22.7554 87.0255 22.3687 84.3654 22.8907Z" fill="#E3E4E6" fill-opacity="0.55"/>
<path d="M115.432 22.91C109.918 24.012 105.51 27.4147 103.374 32.2093C102.423 34.3747 102.073 36.3467 102.19 39.2467C102.287 42.224 102.578 43.442 103.685 45.762C106.539 51.6007 112.636 55.042 119.49 54.6553C126.267 54.2687 131.897 50.0153 134.014 43.6933C134.616 41.934 134.635 41.7407 134.635 38.6667C134.655 35.554 134.635 35.4187 134.014 33.6593C132.499 29.348 129.684 26.1967 125.568 24.244C124.752 23.8767 123.451 23.374 122.675 23.1807C120.791 22.678 117.238 22.5427 115.432 22.91ZM120.209 29.464C124.733 30.4307 127.82 34.162 127.82 38.6667C127.82 43.3453 124.441 47.2507 119.781 47.966C114.772 48.7393 109.957 45.1627 109.102 40.0587C108.306 35.2833 111.665 30.5467 116.578 29.4833C118.131 29.1547 118.655 29.1353 120.209 29.464Z" fill="#E3E4E6" fill-opacity="0.55"/>
<path d="M178.75 22.91C171.08 24.36 165.799 30.856 165.818 38.7633C165.857 46.284 170.498 52.0453 178.167 54.0753C179.857 54.52 180.478 54.578 183.39 54.5973C187.177 54.6166 188.963 54.3266 191.604 53.2633C193.875 52.3546 195.992 50.982 196.303 50.2666C196.671 49.3773 196.438 48.9133 194.866 47.4053C193.176 45.7813 192.749 45.6846 191.177 46.574C189.313 47.6373 186.73 48.372 184.439 48.488C180.692 48.662 177.993 47.7146 175.701 45.4526C174.517 44.2733 173.294 42.282 173.507 41.9146C173.566 41.818 178.886 41.76 185.332 41.76H197.06L197.603 41.296C198.108 40.8513 198.147 40.716 198.205 39.0146C198.438 32.828 195.002 27.1246 189.371 24.302C186.555 22.8713 182.07 22.2913 178.75 22.91ZM184.75 29.0966C187.351 29.8313 189.526 32.0353 190.594 35.032L190.846 35.7666H182.09H173.352L173.469 35.2253C174.032 32.944 175.837 30.7013 177.915 29.6766C180.109 28.6133 182.342 28.42 184.75 29.0966Z" fill="#E3E4E6" fill-opacity="0.55"/>
<path d="M216.593 22.8327C213.37 23.1613 209.428 24.2247 206.457 25.5393C204.458 26.4287 202.186 27.84 201.953 28.362C201.797 28.6713 201.739 32.4993 201.739 40.716C201.739 53.2827 201.759 53.4953 202.613 53.824C202.788 53.882 204.069 53.94 205.448 53.94C207.875 53.94 207.991 53.9207 208.438 53.4567L208.923 52.9927V42.572V32.1513L210.457 31.4553C212.535 30.508 215.273 29.8313 218.01 29.5607C221.078 29.2707 221.234 29.1353 221.331 26.5447C221.467 22.736 220.981 22.3687 216.593 22.8327Z" fill="#E3E4E6" fill-opacity="0.55"/>
<path d="M64.9488 23.8767L64.4633 24.3407V38.6667V52.9927L64.9488 53.4567C65.3953 53.9207 65.5313 53.94 67.8418 53.94C69.1622 53.94 70.4048 53.882 70.5796 53.824C71.4533 53.476 71.4533 53.4373 71.4533 38.5893V24.592L70.9485 23.9927L70.4437 23.3933H67.9389C65.5118 23.3933 65.3953 23.4127 64.9488 23.8767Z" fill="#E3E4E6" fill-opacity="0.55"/>
<path d="M134.693 23.7413C134.499 23.9347 134.363 24.302 134.363 24.5727C134.363 25.3267 145.955 53.2053 146.421 53.592C146.771 53.9013 147.295 53.94 150.363 53.94C153.799 53.94 153.916 53.9207 154.304 53.4953C154.809 52.954 166.207 25.2107 166.207 24.534C166.207 23.5287 165.78 23.3933 162.673 23.3933C160.207 23.3933 159.799 23.432 159.391 23.7607C159.042 24.0313 157.858 26.8733 154.654 35.2447C152.304 41.3733 150.324 46.3227 150.266 46.2453C150.188 46.168 148.246 41.1993 145.916 35.1867C143.606 29.174 141.528 24.07 141.315 23.8187C140.926 23.4127 140.751 23.3933 137.955 23.3933C135.354 23.3933 134.965 23.432 134.693 23.7413Z" fill="#E3E4E6" fill-opacity="0.55"/>
<path d="M123.587 65.714C122.073 66.1007 121.354 66.9127 121.354 68.2467C121.354 69.7547 122.073 70.3927 124.558 71.166C125.393 71.4173 125.917 71.7073 126.131 72.0167C127.14 73.5633 124.5 74.356 122.5 73.0993C121.548 72.5193 121.529 72.5193 121.16 72.8867C120.616 73.428 120.675 73.7567 121.412 74.298C122.383 75.0133 123.296 75.3033 124.558 75.284C126.48 75.2647 127.742 74.3367 127.898 72.8287C128.092 71.2047 127.237 70.3153 124.83 69.6C124.131 69.3873 123.412 69.0587 123.238 68.8653C122.791 68.382 122.83 67.7247 123.276 67.4733C123.859 67.164 125.587 67.2413 126.344 67.6087C127.004 67.918 127.043 67.918 127.315 67.5507C127.723 66.99 127.548 66.4487 126.791 66.0813C125.975 65.6947 124.383 65.5013 123.587 65.714Z" fill="#E3E4E6" fill-opacity="0.55"/>
<path d="M132.732 65.9653C132.286 66.6807 128.733 74.588 128.733 74.8973C128.733 75.2453 129.373 75.4773 129.859 75.3033C130.072 75.2453 130.441 74.704 130.732 74.0467L131.237 72.8867H133.431H135.645L136.208 74.0467C136.829 75.3227 137.431 75.7093 137.994 75.1487C138.286 74.8587 138.13 74.4333 136.208 70.296C135.062 67.802 133.994 65.714 133.839 65.656C133.315 65.4433 133.024 65.54 132.732 65.9653ZM134.266 69.7933L134.926 71.2433L133.548 71.3013C132.791 71.34 132.15 71.3207 132.111 71.282C131.975 71.1467 133.276 68.2467 133.451 68.3047C133.528 68.324 133.897 69.0007 134.266 69.7933Z" fill="#E3E4E6" fill-opacity="0.55"/>
<path d="M140.052 65.6754C139.858 65.7334 139.8 66.8934 139.8 70.4894V75.2067L140.285 75.3227C141.314 75.574 141.353 75.3614 141.353 70.4507C141.353 66.1974 141.334 65.9267 140.984 65.7334C140.577 65.5207 140.421 65.5207 140.052 65.6754Z" fill="#E3E4E6" fill-opacity="0.55"/>
<path d="M144.382 65.83C144.11 66.1007 144.072 66.7387 144.072 70.3927C144.072 72.964 144.149 74.8007 144.266 75.0327C144.499 75.4387 145.314 75.5354 145.567 75.1487C145.644 75.0327 145.761 73.544 145.819 71.862L145.916 68.788L148.246 71.9587C149.508 73.6987 150.654 75.168 150.77 75.2454C151.1 75.4774 151.605 75.4194 151.916 75.0907C152.382 74.646 152.382 66.294 151.916 65.8494C151.566 65.5014 151.295 65.4627 150.867 65.7334C150.634 65.8687 150.557 66.5454 150.479 69.02L150.382 72.1327L147.955 68.8847C145.47 65.54 145.042 65.192 144.382 65.83Z" fill="#E3E4E6" fill-opacity="0.55"/>
<path d="M153.877 65.7913C153.625 65.9847 153.566 66.1973 153.664 66.5647C153.78 67.048 153.858 67.0867 154.906 67.106C155.508 67.1253 156.149 67.1447 156.304 67.164C156.557 67.1833 156.595 67.802 156.654 71.1853L156.693 75.2067L157.178 75.3227C158.188 75.574 158.246 75.3227 158.246 71.0113V67.0673L159.469 67.106C160.149 67.1253 160.809 67.0867 160.925 67.0093C161.236 66.8353 161.217 66.062 160.925 65.772C160.576 65.424 154.363 65.4433 153.877 65.7913Z" fill="#E3E4E6" fill-opacity="0.55"/>
<path d="M171.003 65.7527C168.673 66.3134 167.177 68.15 167.177 70.47C167.177 74.182 171.041 76.4247 174.478 74.704L175.624 74.1434L175.682 72.2294C175.721 70.818 175.663 70.2574 175.488 70.1414C175.352 70.064 174.75 69.9867 174.148 69.9867C172.944 69.9867 172.536 70.2574 172.653 70.992C172.692 71.3594 172.847 71.456 173.449 71.4947C174.167 71.5527 174.167 71.572 174.167 72.384C174.167 73.1187 174.109 73.254 173.643 73.428C172.634 73.834 172.09 73.892 171.294 73.66C167.896 72.7707 167.896 68.1887 171.274 67.28C172.226 67.0094 173.022 67.164 174.129 67.802C174.944 68.266 174.983 68.266 175.352 67.9374C175.973 67.3767 175.74 66.8547 174.556 66.2747C173.333 65.6754 172.07 65.482 171.003 65.7527Z" fill="#E3E4E6" fill-opacity="0.55"/>
<path d="M181.119 65.8107C180.187 66.062 179.915 66.2167 178.963 67.0674C177.332 68.5174 177.041 71.2434 178.303 73.0994C180.381 76.1734 184.886 76.0187 186.885 72.79C187.39 71.978 187.468 71.6687 187.468 70.4894C187.468 69.3487 187.371 68.962 186.944 68.2274C185.701 66.1394 183.39 65.1727 181.119 65.8107ZM184.322 67.7247C186.186 68.7687 186.497 71.2627 184.924 72.7707C183.701 73.95 181.779 74.066 180.342 73.0607C179.721 72.616 179.022 71.2434 179.022 70.47C179.022 69.6967 179.721 68.324 180.361 67.8794C181.565 67.0287 182.963 66.9707 184.322 67.7247Z" fill="#E3E4E6" fill-opacity="0.55"/>
<path d="M189.565 65.656C189.371 65.7333 189.312 66.8933 189.312 70.47C189.312 74.5687 189.351 75.1873 189.623 75.284C190.128 75.4773 193.506 75.4193 194.555 75.1873C195.099 75.0713 195.798 74.762 196.108 74.5107C197.215 73.5827 197.332 71.9007 196.38 70.7793C195.914 70.2187 195.914 70.1607 196.186 69.7547C196.652 69.0973 196.594 67.454 196.089 66.816C195.351 65.8687 194.652 65.6753 192.128 65.598C190.846 65.5787 189.681 65.598 189.565 65.656ZM194.536 67.454C194.885 67.6473 194.963 67.8407 194.904 68.4013C194.827 69.3487 194.283 69.6 192.38 69.6H190.866V68.4787C190.866 67.86 190.924 67.28 191.021 67.2027C191.215 66.9707 194.031 67.2027 194.536 67.454ZM194.633 71.34C195.39 71.6107 195.662 72.3647 195.273 72.964C194.866 73.5633 193.875 73.8533 192.186 73.8533H190.866V72.5V71.1467H192.497C193.409 71.1467 194.361 71.224 194.633 71.34Z" fill="#E3E4E6" fill-opacity="0.55"/>
<path d="M201.856 65.9653C201.409 66.6807 197.856 74.588 197.856 74.8973C197.856 75.2453 198.497 75.4773 198.982 75.3033C199.196 75.2453 199.565 74.704 199.856 74.0467L200.361 72.8867H202.555H204.768L205.331 74.0467C205.953 75.3227 206.555 75.7093 207.137 75.1487C207.409 74.8587 207.254 74.4333 205.351 70.296C204.186 67.802 203.118 65.714 202.962 65.656C202.438 65.4433 202.147 65.54 201.856 65.9653ZM203.37 69.716C203.759 70.528 204.069 71.224 204.069 71.2627C204.069 71.3013 203.409 71.34 202.613 71.34C201.817 71.34 201.157 71.282 201.157 71.224C201.157 71.0307 202.496 68.2467 202.574 68.2467C202.632 68.2467 202.982 68.904 203.37 69.716Z" fill="#E3E4E6" fill-opacity="0.55"/>
<path d="M209.176 65.6754C208.982 65.7334 208.923 66.8934 208.923 70.4894V75.2067L209.409 75.3227C210.438 75.574 210.477 75.3614 210.477 70.4507C210.477 66.1974 210.457 65.9267 210.108 65.7334C209.7 65.5207 209.545 65.5207 209.176 65.6754Z" fill="#E3E4E6" fill-opacity="0.55"/>
<path d="M213.642 65.656C213.447 65.7333 213.389 66.8933 213.389 70.4893V75.2067L213.913 75.3227C214.845 75.5547 214.962 75.0907 214.904 71.7653C214.865 70.1607 214.904 68.846 214.981 68.8653C215.059 68.904 216.205 70.354 217.505 72.1133C219.292 74.5107 220.01 75.3227 220.36 75.3613C221.272 75.4967 221.35 75.11 221.35 70.4507C221.35 66.7967 221.311 66.1007 221.039 65.8493C220.709 65.5013 220.573 65.482 220.107 65.656C219.835 65.7527 219.797 66.236 219.797 68.962C219.797 70.876 219.719 72.1133 219.622 72.0747C219.505 72.036 218.36 70.586 217.039 68.8267C214.729 65.7333 214.341 65.366 213.642 65.656Z" fill="#E3E4E6" fill-opacity="0.55"/>
<path d="M161.294 70.4894C161.217 70.5667 161.158 70.876 161.158 71.1854V71.7267H163.022H164.867L164.809 71.0887L164.75 70.47L163.1 70.412C162.187 70.3927 161.372 70.412 161.294 70.4894Z" fill="#E3E4E6" fill-opacity="0.55"/>
</svg>
