<svg width="298" height="73" viewBox="0 0 298 73" fill="none" xmlns="http://www.w3.org/2000/svg">
<path d="M84.9249 6.43816C82.7382 7.24927 81.6703 9.78399 82.7891 11.4569C84.0604 13.3833 88.4846 13.5354 89.5017 11.6597C90.2645 10.1895 90.1119 8.36455 89.1457 7.45205C88.0778 6.53955 85.9928 6.0326 84.9249 6.43816Z" fill="#E3E4E6" fill-opacity="0.55"/>
<path d="M96.1126 6.43812C93.7734 7.35062 92.6038 10.7471 94.2311 12.1159C96.0109 13.5353 99.6724 13.1805 100.791 11.4569C101.503 10.443 101.198 8.26312 100.333 7.45201C99.2655 6.53951 97.1805 6.03257 96.1126 6.43812Z" fill="#E3E4E6" fill-opacity="0.55"/>
<path d="M7.32285 7.90833C7.78053 8.31388 8.23821 9.17569 8.39077 9.78402C8.54333 10.3924 8.59418 21.2917 8.54333 34.016C8.39077 55.9667 8.33991 57.234 7.42456 58.2479L6.45834 59.3125H13.1201C16.8324 59.3125 19.8327 59.2111 19.8327 59.059C19.8327 58.9069 19.4768 58.2479 19.0699 57.6396C18.5106 56.7271 18.3072 53.5333 18.2054 40.6569C18.1037 31.9882 18.1546 24.8403 18.3072 24.8403C18.4597 24.8403 21.8669 31.1264 25.8843 38.7812C29.9017 46.4361 33.4614 52.925 33.8682 53.2292C35.4447 54.5472 36.5126 53.0771 43.988 38.8319L51.616 24.4854L51.7686 40.2007C51.8703 55.1049 51.8194 56.0174 50.8532 57.5889L49.887 59.3125H56.9556C60.8713 59.3125 64.0751 59.1604 64.0751 58.9069C64.0751 58.7042 63.7191 58.0958 63.3123 57.5889C62.1427 56.0681 62.1935 9.88541 63.3631 8.21249L64.1259 7.09722H56.3962C49.7345 7.09722 48.7682 7.1986 49.2768 7.80694C49.6328 8.21249 49.8362 9.12499 49.7345 9.78402C49.531 11.4569 36.4618 36.0437 36.0549 35.5875C35.8515 35.3847 32.6478 29.4535 28.9863 22.4069C22.4263 9.88541 22.2737 9.58125 23.0874 8.36458L23.901 7.09722H15.256C7.32285 7.09722 6.6109 7.14791 7.32285 7.90833Z" fill="#E3E4E6" fill-opacity="0.55"/>
<path d="M27.2573 16.3235C29.088 19.7707 31.7324 24.8909 33.2071 27.7298C34.631 30.6193 36.0041 32.9513 36.2075 32.9513C36.4109 32.9513 36.8177 32.5457 37.072 32.0388C37.428 31.3291 36.5126 29.1492 32.6986 22.052C30.0542 17.0332 27.8167 12.3187 27.7658 11.5582C27.715 10.2909 27.5116 10.1388 25.8334 10.1388H23.9518L27.2573 16.3235Z" fill="#E3E4E6" fill-opacity="0.55"/>
<path d="M63.77 10.7978C63.6174 11.2034 63.6174 21.545 63.6683 33.8131C63.8208 52.7221 63.9225 56.2707 64.5836 57.0312C65.2447 57.8423 65.3973 55.5103 65.6007 35.1818C65.8041 17.9457 66.0075 12.1666 66.516 11.2541C67.1263 10.1895 67.0754 10.1388 65.6007 10.1388C64.7362 10.1388 63.9225 10.443 63.77 10.7978Z" fill="#E3E4E6" fill-opacity="0.55"/>
<path d="M91.0273 11.3555C90.4679 12.8763 88.6372 14.1944 87.1116 14.1944C86.4505 14.1944 85.942 14.3971 85.942 14.7013C85.942 14.9548 86.8573 15.2083 87.9761 15.2083C90.4679 15.2083 92.0443 13.8395 92.0443 11.6596C92.0443 9.83464 91.6884 9.73325 91.0273 11.3555Z" fill="#E3E4E6" fill-opacity="0.55"/>
<path d="M102.215 11.3555C101.656 12.8763 99.8249 14.1944 98.2993 14.1944C97.6382 14.1944 97.1297 14.3971 97.1297 14.7013C97.1297 14.9548 98.045 15.2083 99.1638 15.2083C101.656 15.2083 103.232 13.8395 103.232 11.6596C103.232 9.83464 102.876 9.73325 102.215 11.3555Z" fill="#E3E4E6" fill-opacity="0.55"/>
<path d="M260.165 14.4985C259.046 15.5631 259.148 16.8811 260.369 17.9964C260.928 18.5034 261.386 19.1624 261.386 19.5173C261.386 19.8721 260.928 20.5311 260.369 21.0381C259.25 22.052 258.996 23.3193 260.013 23.3193C262.454 23.3193 265.861 18.8582 265.251 16.4756C264.589 13.8902 261.843 12.8256 260.165 14.4985Z" fill="#E3E4E6" fill-opacity="0.55"/>
<path d="M85.7894 17.236C80.2464 18.6555 74.5 22.9138 72.2116 27.4256C68.3468 34.9284 68.957 44.9152 73.6863 51.2013C81.8229 61.9485 99.2147 62.7089 108.47 52.7221C111.928 48.9708 113.403 45.4221 113.759 39.643C114.42 29.6562 109.233 21.3423 100.333 18.1485C97.028 16.9319 89.044 16.4756 85.7894 17.236ZM97.028 23.2687C101.859 25.702 103.995 30.4673 103.995 38.5784C103.995 43.6985 103.893 44.1041 102.215 47.4499C100.944 49.9339 99.8249 51.3534 98.2485 52.4687C96.2143 53.8881 95.7058 53.9895 91.8409 53.9895C88.1287 53.9895 87.4167 53.8374 85.5351 52.5701C80.2973 49.1735 78.0089 40.4034 80.0938 32.1909C82.2805 23.6742 89.9085 19.6694 97.028 23.2687Z" fill="#E3E4E6" fill-opacity="0.55"/>
<path d="M87.7218 24.2825C84.874 25.5499 82.5856 28.3888 81.5686 31.7346C80.5007 35.3846 80.7549 43.3943 82.0263 46.3346C83.0942 48.8186 83.5519 48.5145 82.7891 45.8277C82.0263 42.9888 82.6365 35.2325 83.9078 31.7853C85.9928 26.2089 90.5188 23.877 96.0618 25.4992C99.0621 26.361 98.9604 25.6513 95.9092 24.2825C93.2648 23.0659 90.3153 23.0659 87.7218 24.2825Z" fill="#E3E4E6" fill-opacity="0.55"/>
<path d="M273.794 17.9457C269.319 20.0242 266.42 24.8909 267.132 29.2506C267.641 32.2922 269.827 34.3707 275.879 37.6152C282.439 41.0624 284.015 42.5325 283.558 44.8138C282.846 48.1596 278.981 50.086 274.709 49.1228C271.861 48.5145 270.183 47.3992 269.166 45.4221L268.302 43.8506L267.386 47.0443C266.217 50.8971 266.471 51.3534 270.183 52.4686C274.251 53.6853 280.456 53.4825 283.507 52.0124C286.914 50.4409 289.202 47.9568 290.118 44.9152C291.033 41.9242 291.033 41.4172 290.372 38.9332C289.609 36.1957 287.321 34.2186 281.523 31.3291C278.727 29.9603 275.879 28.3381 275.269 27.7297C272.98 25.6513 274.404 21.9506 277.913 20.7846C281.269 19.6693 285.795 21.3422 286.761 24.0291C287.117 24.9416 287.372 24.7388 288.592 22.3561L289.965 19.6186L288.795 18.7061C285.693 16.3742 278.015 15.9686 273.794 17.9457Z" fill="#E3E4E6" fill-opacity="0.55"/>
<path d="M118.997 17.6923C118.997 17.9458 119.353 18.402 119.759 18.7569C120.878 19.6694 120.929 56.068 119.759 57.5888C119.353 58.0958 118.997 58.7041 118.997 58.9069C118.997 59.6166 146.661 59.4138 147.373 58.7041C147.729 58.3492 147.983 56.8284 147.983 55.3076C147.983 53.1277 147.83 52.6715 147.373 53.1277C146.966 53.5333 144.22 53.7361 138.473 53.7361H130.184V36.8548C130.184 22.8124 130.286 19.8215 130.947 18.9597C131.354 18.4527 131.71 17.8444 131.71 17.5909C131.71 17.3881 128.862 17.2361 125.353 17.2361C121.844 17.2361 118.997 17.4388 118.997 17.6923Z" fill="#E3E4E6" fill-opacity="0.55"/>
<path d="M154.441 18.6049C155.255 19.8215 155.357 21.6465 155.509 35.4861C155.713 52.0125 155.458 56.8792 154.289 57.9944C153.882 58.4 153.577 58.8563 153.577 59.0083C153.577 59.4139 180.732 59.4139 181.749 59.0083C182.36 58.7549 182.563 57.9438 182.563 55.6118C182.563 53.2292 182.411 52.6715 181.953 53.1278C181.546 53.5333 178.8 53.7361 173.054 53.7361H164.714L164.866 36.5507C165.019 20.4806 165.07 19.3146 165.985 18.3007L166.951 17.2361H160.239H153.577L154.441 18.6049Z" fill="#E3E4E6" fill-opacity="0.55"/>
<path d="M188.869 18.3514C190.039 20.0243 190.089 56.8285 188.92 57.9944C188.513 58.4 188.157 58.8563 188.157 59.0083C188.157 59.1604 194.514 59.3125 202.294 59.3125C212.617 59.3125 216.584 59.1604 217.042 58.7042C217.398 58.3493 217.652 56.8285 217.652 55.3076C217.652 53.1278 217.499 52.6715 217.042 53.1278C216.635 53.5333 213.838 53.7361 207.888 53.7361H199.345V46.8924V40.0486H205.091C208.905 40.0486 211.041 40.2514 211.448 40.6569C211.905 41.1132 212.058 40.4542 212.058 37.6153C212.058 34.1174 212.007 33.9653 211.092 34.4722C210.532 34.7257 207.685 34.9792 204.735 34.9792H199.345V28.8958V22.7618L208.244 22.9139L217.194 23.066L217.042 20.2778L216.889 17.4896L202.498 17.3375L188.106 17.2361L188.869 18.3514Z" fill="#E3E4E6" fill-opacity="0.55"/>
<path d="M224.466 18.3006C225.178 19.3652 225.28 21.7985 225.28 38.3249C225.28 54.4458 225.178 57.234 224.517 57.7916C224.11 58.1465 223.754 58.6027 223.754 58.8562C223.754 59.1097 226.602 59.3124 230.111 59.3124C233.62 59.3124 236.468 59.1097 236.468 58.8562C236.468 58.6027 236.213 58.2985 235.908 58.1972C235.044 57.893 234.484 53.736 234.484 47.2472L234.433 41.5694H235.705C237.18 41.5694 237.688 42.0256 241.96 47.5513C251.876 60.2249 261.081 65.2437 273.54 64.7874C278.269 64.6354 279.337 64.4326 282.236 63.0638C286.1 61.2388 288.796 59.059 290.931 55.9666C292.915 53.077 292.813 52.7729 290.525 54.7499C289.508 55.6624 287.117 57.1326 285.287 57.9944C282.286 59.4138 281.524 59.5659 276.896 59.5659C269.37 59.5659 265.098 57.893 258.182 52.3166C255.131 49.8833 247.198 41.3159 246.74 39.9979C246.638 39.7444 246.943 39.5416 247.401 39.5416C248.52 39.5416 251.774 37.818 253.758 36.1451C257.114 33.3569 258.233 28.1353 256.351 24.0798C255.182 21.5451 253.656 20.1256 250.452 18.6555C248.062 17.5402 247.147 17.4895 235.756 17.3374L223.653 17.1347L224.466 18.3006ZM243.994 22.711C246.282 23.877 247.655 26.4624 247.655 29.4534C247.655 34.2187 243.994 37.159 237.993 37.2097L234.688 37.2604L234.535 29.7069C234.433 23.9784 234.586 22.0013 235.044 21.6972C236.061 20.9874 242.011 21.6465 243.994 22.711Z" fill="#E3E4E6" fill-opacity="0.55"/>
<path d="M235.959 29.4028C235.959 35.6382 236.01 35.993 236.976 35.993C237.891 35.993 237.993 35.5875 238.095 30.2646L238.247 24.5868L241.451 24.6375C243.18 24.6375 244.604 24.5868 244.604 24.4854C244.604 23.8771 240.739 22.8125 238.502 22.8125H235.959V29.4028Z" fill="#E3E4E6" fill-opacity="0.55"/>
<path d="M266.217 19.2132C265.912 20.6833 262.454 24.3333 261.386 24.3333C261.131 24.3333 261.03 24.6882 261.182 25.0938C261.691 26.3104 262.81 25.9556 264.996 23.9278C266.573 22.5083 267.132 21.5451 267.335 19.8722C267.641 17.4389 266.725 16.8813 266.217 19.2132Z" fill="#E3E4E6" fill-opacity="0.55"/>
<path d="M131.71 36.2465C131.71 51.8603 131.71 52.2152 132.727 52.2152C133.744 52.2152 133.744 51.8603 133.744 37.2097C133.744 27.8819 133.947 21.8492 134.253 21.2409C134.761 20.3791 134.609 20.2777 133.235 20.2777H131.71V36.2465Z" fill="#E3E4E6" fill-opacity="0.55"/>
<path d="M166.29 36.2465C166.29 51.759 166.341 52.2152 167.307 52.2152C168.273 52.2152 168.273 51.7083 168.426 37.1083C168.528 28.8451 168.782 21.6465 169.036 21.1395C169.392 20.4298 169.189 20.2777 167.867 20.2777H166.29V36.2465Z" fill="#E3E4E6" fill-opacity="0.55"/>
<path d="M218.669 22.5083C218.669 25.2458 218.16 25.6514 216.126 24.5868C214.906 23.9784 213.177 23.8264 207.583 23.9278L200.616 24.0798V28.6423C200.616 33.0021 200.667 33.2048 201.786 33.3569C202.854 33.509 202.904 33.3569 202.904 29.7069V25.8541H210.838C215.414 25.8541 219.177 26.0569 219.737 26.4118C220.703 26.9187 220.754 26.7666 220.601 23.725C220.5 21.1903 220.296 20.5312 219.584 20.3791C218.821 20.2271 218.669 20.5819 218.669 22.5083Z" fill="#E3E4E6" fill-opacity="0.55"/>
<path d="M289.864 23.2687C288.745 25.4993 288.592 26.6652 289.355 27.1215C289.864 27.4257 291.898 23.877 291.898 22.6097C291.898 20.9875 290.881 21.3423 289.864 23.2687Z" fill="#E3E4E6" fill-opacity="0.55"/>
<path d="M277.252 22.4069C276.031 23.0152 275.37 24.6374 275.777 26.209C275.93 26.9694 276.082 26.868 276.54 25.7527C277.303 23.877 278.574 23.3194 282.083 23.3194C284.88 23.2687 284.982 23.2687 283.761 22.559C282.286 21.6972 278.879 21.6465 277.252 22.4069Z" fill="#E3E4E6" fill-opacity="0.55"/>
<path d="M257.826 23.9784C257.826 24.0291 258.08 24.8909 258.334 25.8541C259.758 30.5687 257.165 35.8409 251.876 39.0347C249.435 40.5048 248.825 41.0624 249.333 41.468C250.859 42.7861 257.063 38.477 258.945 34.7763C260.267 32.2416 260.369 27.7298 259.148 25.4486C258.436 24.0798 257.826 23.4208 257.826 23.9784Z" fill="#E3E4E6" fill-opacity="0.55"/>
<path d="M112.894 27.6284C118.285 38.7812 114.115 53.0263 103.893 58.2478C97.6891 61.3909 88.8915 61.8978 82.5348 59.4645C81.9754 59.2617 81.8229 59.3631 82.0771 59.718C82.8399 60.9853 89.1457 62.4048 93.8242 62.4048C105.368 62.4048 114.115 55.4596 116.759 44.2562C118.234 37.9194 116.759 30.6194 113.148 26.5638L111.369 24.5867L112.894 27.6284Z" fill="#E3E4E6" fill-opacity="0.55"/>
<path d="M19.4259 43.0902C19.5785 54.8006 19.6802 56.3214 20.4938 57.1325C21.3075 57.9436 21.3584 57.4367 21.3584 45.5742C21.3584 35.2325 21.2058 32.8499 20.5447 31.5318C20.1379 30.6193 19.6293 29.9096 19.5276 29.9096C19.3751 29.9096 19.3242 35.8409 19.4259 43.0902Z" fill="#E3E4E6" fill-opacity="0.55"/>
<path d="M44.2423 41.1639C37.9874 53.1278 36.9703 54.75 35.7498 54.75C35.0887 54.75 35.0887 54.9021 35.5973 55.5104C36.4618 56.5243 37.784 56.4736 38.7502 55.3583C39.2078 54.9021 41.9539 49.9847 44.9034 44.459C48.9208 36.9562 50.2939 33.8639 50.4464 32.191C50.5481 30.9236 50.4973 29.9097 50.3447 29.9097C50.1921 29.9097 47.4461 34.9792 44.2423 41.1639Z" fill="#E3E4E6" fill-opacity="0.55"/>
<path d="M268.505 35.4354C269.37 37.159 272.878 39.7444 277.608 42.2285C280.761 43.9014 282.235 44.459 282.235 43.9521C282.235 42.8875 280.303 41.4174 275.37 38.8319C272.878 37.4632 270.336 35.9424 269.726 35.4354C268.403 34.2187 267.793 34.2187 268.505 35.4354Z" fill="#E3E4E6" fill-opacity="0.55"/>
<path d="M213.99 37.5645C213.329 37.9194 213.075 38.7305 213.075 40.302C213.075 42.8367 212.923 42.9381 210.634 41.8228C209.515 41.2652 207.888 41.0624 204.837 41.1638L200.616 41.3159L200.463 46.7402L200.311 52.2152H201.633C202.904 52.2152 202.904 52.2152 202.904 47.6527V43.0902H208.397C212.007 43.0902 214.092 43.293 214.499 43.6985C214.957 44.1548 215.109 43.4958 215.109 40.6569C215.109 38.6291 215.058 37.0069 215.008 37.0069C214.906 37.0069 214.448 37.2603 213.99 37.5645Z" fill="#E3E4E6" fill-opacity="0.55"/>
<path d="M291.898 41.5694C291.898 46.6388 289.355 50.6944 284.626 53.077C281.32 54.75 275.218 55.2062 271.048 54.0909C269.522 53.6347 268.149 53.3812 268.047 53.5333C267.946 53.6347 268.963 54.243 270.336 54.8513C273.794 56.4229 281.422 56.4736 284.829 54.9527C287.829 53.5333 290.677 50.9986 291.948 48.6159C293.016 46.5375 293.271 41.4173 292.406 40.0486C292.05 39.4909 291.898 39.8965 291.898 41.5694Z" fill="#E3E4E6" fill-opacity="0.55"/>
<path d="M235.959 49.3763C235.959 54.8513 236.061 55.8145 236.976 56.8284L237.942 58.045L237.993 51.1506C237.993 44.611 237.688 43.0902 236.366 43.0902C236.162 43.0902 235.959 45.9291 235.959 49.3763Z" fill="#E3E4E6" fill-opacity="0.55"/>
<path d="M149.915 56.4736C149.458 56.7777 149 57.7409 148.898 58.552L148.746 60.0729L136.236 60.225C124.489 60.3263 123.675 60.4277 122.811 61.3402C121.895 62.3541 121.946 62.3541 135.626 62.3541C148.441 62.3541 149.407 62.3034 150.22 61.3909C150.831 60.7319 151.034 59.7687 150.932 58.1465C150.78 56.068 150.678 55.9159 149.915 56.4736Z" fill="#E3E4E6" fill-opacity="0.55"/>
<path d="M184.75 56.3215C184.394 56.6763 184.089 57.3861 184.089 57.8423C184.089 60.377 184.343 60.3263 170.918 60.3263C158.662 60.3263 157.137 60.5291 157.137 61.9486C157.137 62.1513 163.29 62.3541 170.816 62.3541C182.004 62.3541 184.597 62.202 185.055 61.6444C185.411 61.2388 185.614 59.7687 185.513 58.2986C185.411 56.2201 185.258 55.8145 184.75 56.3215Z" fill="#E3E4E6" fill-opacity="0.55"/>
<path d="M219.584 56.4736C219.127 56.7777 218.669 57.7409 218.567 58.552L218.415 60.0729L205.65 60.225C193.649 60.3263 192.835 60.4277 191.971 61.3402C191.056 62.3541 191.106 62.3541 205.04 62.3541C218.11 62.3541 219.076 62.3034 219.889 61.3909C220.5 60.7319 220.703 59.7687 220.601 58.1465C220.449 56.068 220.347 55.9159 219.584 56.4736Z" fill="#E3E4E6" fill-opacity="0.55"/>
<path d="M290.982 57.9944C289.05 60.6305 284.371 63.9256 280.608 65.2437C277.099 66.4604 266.98 66.4604 263.166 65.2437C260.165 64.2298 259.504 64.534 262.148 65.6493C268.556 68.2854 277.201 68.6402 282.846 66.4604C286.965 64.8381 292.152 60.0729 293.118 56.8791C293.728 55.0541 292.711 55.5611 290.982 57.9944Z" fill="#E3E4E6" fill-opacity="0.55"/>
<path d="M10.7809 60.9347C10.4249 61.2895 10.1706 61.7458 10.1706 61.9486C10.1706 62.1513 13.171 62.3541 16.7815 62.3541C23.2908 62.3541 23.3925 62.3541 22.7822 61.3402C22.172 60.4277 21.5618 60.3263 16.7815 60.3263C13.2727 60.3263 11.1877 60.5291 10.7809 60.9347Z" fill="#E3E4E6" fill-opacity="0.55"/>
<path d="M54.0061 60.9347C53.6501 61.2895 53.3959 61.7458 53.3959 61.9486C53.3959 62.1513 56.5996 62.3541 60.5153 62.3541C64.431 62.3541 67.6348 62.202 67.6348 62.05C67.6348 61.8979 67.3297 61.4416 66.9228 61.0361C65.9566 60.1236 54.9215 60.0222 54.0061 60.9347Z" fill="#E3E4E6" fill-opacity="0.55"/>
<path d="M227.568 61.3402C226.653 62.3541 226.704 62.3541 233.416 62.3541C240.129 62.3541 240.18 62.3541 239.264 61.3402C238.451 60.4784 237.688 60.3263 233.416 60.3263C229.145 60.3263 228.382 60.4784 227.568 61.3402Z" fill="#E3E4E6" fill-opacity="0.55"/>
</svg>
