<svg width="171" height="26" viewBox="0 0 171 26" fill="none" xmlns="http://www.w3.org/2000/svg">
<path d="M1.94241 0.866673C1.11817 1.07059 1.01514 1.98824 1.01514 11.1647C1.01514 16.7216 1.16968 22.0235 1.32423 22.8902C1.63332 24.4196 1.73635 24.4706 4.41514 24.4706H7.19695V20.1373V15.8039H8.63938C10.4424 15.8039 13.7909 13.9177 15.1303 12.0824C16.4697 10.298 16.5212 6.32158 15.2848 4.4353C13.8939 2.29412 9.51514 0.509809 5.96059 0.560791C4.20908 0.611771 2.40605 0.713732 1.94241 0.866673ZM10.597 6.67844C11.6273 7.5451 11.4727 9.58432 10.3394 10.1961C9.77271 10.451 8.63938 10.7059 7.76362 10.7059C6.16665 10.7059 6.16665 10.6549 6.16665 8.10589V5.45491L8.0212 5.76079C9.0515 5.91373 10.1848 6.32158 10.597 6.67844Z" fill="#E3E4E6" fill-opacity="0.55"/>
<path d="M18.7879 0.866674C17.8091 1.0706 17.7576 1.42746 17.9122 12.7451L18.0667 24.4706H20.8485H23.6818V20.2392V16.0588L24.9697 17.5882C25.6394 18.4039 26.7212 20.3412 27.3909 21.7686L28.5758 24.4706H31.3061C32.7485 24.4706 33.9849 24.2667 33.9849 24.0628C33.9849 23.8079 32.8 21.6667 31.3576 19.3216C28.0606 13.9686 27.9576 13.7647 29.2455 13.7647C29.8122 13.7647 30.997 12.949 31.8728 11.9804C34.9637 8.46275 33.5728 3.10981 28.9879 1.22354C27.4425 0.560793 21.3122 0.356871 18.7879 0.866674ZM26.9273 5.81177C28.0091 6.62746 28.0606 8.30981 27.0819 9.1255C26.6697 9.48236 25.5364 9.68628 24.6091 9.58432C23.1152 9.43138 22.9091 9.22746 22.7546 7.69805C22.497 5.25099 24.7637 4.1804 26.9273 5.81177Z" fill="#E3E4E6" fill-opacity="0.55"/>
<path d="M143.867 0.866674C142.424 1.0706 142.115 1.37648 141.703 2.95687C139.951 9.58432 139.024 13.6628 138.148 18.4039L137.17 23.8588L139.539 24.1137C142.27 24.4196 142.424 24.2157 142.888 20.851C143.145 18.8628 143.455 18.3529 144.176 18.3529C145.412 18.3529 146.082 19.2196 146.545 21.4118C147.061 23.8588 147.679 24.4706 149.688 24.4706C151.027 24.4706 151.439 24.2667 151.439 23.502C151.439 22.5843 147.885 6.47452 146.803 2.49805C146.494 1.37648 146.082 0.560793 145.876 0.611773C145.67 0.611773 144.742 0.764713 143.867 0.866674ZM145 11.2667C144.794 11.8275 144.897 12.2353 145.206 12.2353C145.515 12.2353 145.773 12.7961 145.773 13.5098C145.773 14.5294 145.515 14.7843 144.485 14.7843C143.248 14.7843 143.197 14.6824 143.506 12.5922C143.661 11.4196 143.918 9.8902 144.073 9.17648L144.33 7.90197L144.794 9.1255C145.051 9.78824 145.155 10.7569 145 11.2667Z" fill="#E3E4E6" fill-opacity="0.55"/>
<path d="M153.757 0.866674C152.779 1.0706 152.727 1.42746 152.882 11.7255C152.985 19.1177 152.83 22.4314 152.47 22.4314C152.057 22.4314 152.057 22.7373 152.47 23.451C152.933 24.2667 153.551 24.4706 155.818 24.4706H158.651V20.2392V16.0588L159.939 17.5882C160.609 18.4039 161.691 20.3412 162.361 21.7686L163.545 24.4706H166.276C167.718 24.4706 168.954 24.2667 168.954 24.0628C168.954 23.8079 167.77 21.6667 166.327 19.3216C163.03 13.9686 162.927 13.7647 164.215 13.7647C164.782 13.7647 165.967 12.949 166.842 11.9804C169.933 8.46275 168.542 3.10981 163.957 1.22354C162.412 0.560793 156.282 0.356871 153.757 0.866674ZM161.897 5.81177C162.979 6.62746 163.03 8.30981 162.051 9.1255C161.639 9.48236 160.506 9.68628 159.579 9.58432C158.085 9.43138 157.879 9.22746 157.724 7.69805C157.467 5.25099 159.733 4.1804 161.897 5.81177Z" fill="#E3E4E6" fill-opacity="0.55"/>
<path d="M39.1363 1.37648C37.5394 1.93727 36.0454 3.77256 35.7363 5.55687C35.5303 6.57648 35.1697 7.54511 34.8606 7.69805C34.5515 7.95295 34.5515 9.3804 34.9636 11.9294C35.2727 14.0706 35.5303 16.8745 35.5303 18.149C35.5303 20.8 36.6121 23.1451 38.2091 24.0118C40.0121 24.9804 44.4939 24.7765 46.4515 23.6039C48.8727 22.2275 49.4909 19.8824 49.5939 11.9804C49.6969 4.53726 49.2848 3.31374 46.0909 1.8353C44.4424 1.0706 40.7333 0.815697 39.1363 1.37648ZM44.4939 6.21962C45.1121 7.08628 45.3182 8.71766 45.3182 12.8471C45.3182 19.0157 44.8545 20.0353 42.0212 19.7804C39.7545 19.5765 39.1363 17.9961 39.1363 12.3373C39.1363 8.00393 39.2394 7.49413 40.4242 6.37256C41.9697 4.79217 43.4636 4.74119 44.4939 6.21962Z" fill="#E3E4E6" fill-opacity="0.55"/>
<path d="M58.9182 1.68236C58.8151 2.03922 58.7636 7.23922 58.8151 13.2549L58.9697 24.2157L66.0788 24.3686L73.1363 24.5216V22.1765V19.8824H68.8091C64.5848 19.8824 64.4818 19.8824 64.2242 18.5569C63.8121 16.2118 64.3273 15.3451 66.3879 15.1922C68.2424 15.0392 68.2424 15.0392 68.2424 12.7451V10.451L66.1818 10.1961C64.2242 9.94118 64.1212 9.83922 63.9666 8.05491L63.8121 6.16864L68.3454 6.0157L72.8788 5.86275L73.0333 3.4157L73.1879 1.01962H66.1818C60.9788 1.01962 59.1242 1.17256 58.9182 1.68236Z" fill="#E3E4E6" fill-opacity="0.55"/>
<path d="M74.0636 1.68236C74.4242 2.09021 74.5272 2.54903 74.3211 2.70197C74.1666 2.90589 74.2181 3.05883 74.5272 3.05883C75.1454 3.05883 78.2878 10.7059 78.2878 12.2863C78.2878 13.5608 75.1969 21.9216 74.6818 21.9216C74.5272 21.9216 74.3211 22.4824 74.2696 23.1961C74.1666 24.4196 74.3211 24.4706 76.6908 24.4706C79.009 24.4706 79.2151 24.3686 79.5757 23.0941C79.7302 22.3294 81.5333 18.2 83.4908 13.9686C86.8908 6.57648 88.5908 2.44707 88.5908 1.47844C88.5908 1.22354 87.6121 1.01962 86.3757 1.01962H84.1605L83.1302 4.1804C82.5636 5.91373 81.8939 7.39217 81.5848 7.49413C81.2757 7.59609 80.4515 6.21962 79.7818 4.48628L78.4939 1.27452L75.9696 1.12158C73.8575 0.968637 73.5484 1.0706 74.0636 1.68236Z" fill="#E3E4E6" fill-opacity="0.55"/>
<path d="M89.9818 7.08628C89.7758 10.4 89.7758 15.651 89.9818 18.8118L90.2909 24.4706H97.1939H104.045V22.1765V19.8824H99.6667H95.2879V17.5882V15.2941H97.3485H99.4091V12.7451V10.1961H97.4C95.0303 10.1961 94.5667 9.73726 95.0303 7.64707C95.3394 6.16864 95.3909 6.16864 99.5636 6.0157L103.788 5.86275L103.942 3.4157L104.097 1.01962H97.1939H90.2909L89.9818 7.08628Z" fill="#E3E4E6" fill-opacity="0.55"/>
<path d="M105.333 3.4157C105.127 4.99609 105.179 5.91373 105.539 6.0157C105.848 6.11766 106.106 6.93334 106.106 7.85099C106.106 9.53334 107.445 20.5961 107.961 23.0941C108.218 24.2157 108.527 24.4706 109.712 24.4706C111.051 24.4706 111.258 24.2157 111.773 22.2784C112.7 18.6588 112.855 18.4549 113.37 19.8314C113.73 20.749 113.679 21.2079 113.215 21.5137C112.7 21.8196 112.751 21.9216 113.37 21.9216C113.885 21.9216 114.4 22.4824 114.555 23.1961C114.812 24.1647 115.224 24.4706 116.306 24.4706H117.748L118.676 14.6314C119.139 9.27844 119.706 3.97648 119.861 2.90589L120.17 1.01962H117.851C115.636 1.01962 115.482 1.12158 115.173 2.60001C115.018 3.46668 114.812 6.62746 114.812 9.6353L114.761 15.0392L113.936 12.3373C113.112 9.43138 112.082 8.81962 111.979 11.1647C111.927 11.9804 111.721 13.051 111.464 13.5608C111.155 14.2235 110.897 12.3373 110.742 7.90197L110.485 1.27452L108.115 1.12158L105.694 0.968637L105.333 3.4157Z" fill="#E3E4E6" fill-opacity="0.55"/>
<path d="M122.076 12.7451V24.4706H129.03H135.933L136.294 22.7373C136.448 21.7686 136.448 20.749 136.242 20.4431C136.088 20.0863 134.079 19.8824 131.554 19.8824H127.227V17.5882V15.2941H129.288H131.348V12.7451V10.1961H129.288H127.227V8.15687V6.11766H131.554H135.83L136.139 4.28236C136.706 1.0706 136.603 1.01962 128.979 1.01962H122.076V12.7451Z" fill="#E3E4E6" fill-opacity="0.55"/>
</svg>
