<svg width="198" height="65" viewBox="0 0 198 65" fill="none" xmlns="http://www.w3.org/2000/svg">
<path d="M13.2041 1.23038C12.1091 1.80371 12.0292 1.94131 9.81641 7.21598C8.56172 10.1858 7.10172 13.6373 6.79375 14.3253C6.67969 14.5776 6.16641 15.793 5.65312 17.02C5.13984 18.2469 4.5125 19.7146 4.26156 20.288C4.01062 20.8498 3.71406 21.5493 3.6 21.836C3.22359 22.7877 1.12484 27.7413 0.999375 27.9706C0.714219 28.521 0.40625 29.4613 0.40625 29.8282C0.40625 30.4474 0.668594 30.952 1.12484 31.1584C1.47844 31.3304 2.16281 31.3533 7.69484 31.3533C11.0939 31.3533 13.8656 31.3877 13.8656 31.4336C13.8656 31.5024 12.8391 33.9677 12.4969 34.736C12.3486 35.057 10.0559 40.5037 9.87344 40.9624C9.59969 41.6618 10.1586 42.6938 10.9342 42.8773C11.0711 42.9117 16.8312 42.9232 23.732 42.9117L36.2789 42.8773L36.8492 42.6136C37.5678 42.281 37.8872 41.9829 38.218 41.3293C38.3662 41.0426 39.313 38.8525 40.3281 36.456C41.3433 34.0594 42.3014 31.812 42.4497 31.468C42.598 31.124 43.2595 29.5416 43.9325 27.9706C44.5941 26.3882 45.21 24.9434 45.2898 24.76C45.3697 24.565 45.5978 24.049 45.7803 23.6133C45.9628 23.1661 46.9209 20.9186 47.9019 18.6138C48.9627 16.1256 49.6812 14.268 49.6812 14.0501C49.6812 13.5456 49.3961 13.041 48.9627 12.7773C48.6091 12.5594 48.3467 12.548 42.3927 12.548C37.4537 12.548 36.2219 12.5136 36.3131 12.3989C36.3702 12.3301 36.4614 12.0893 36.507 11.8829C36.5412 11.688 36.6325 11.516 36.6895 11.516C36.7466 11.516 36.7922 11.4357 36.7922 11.344C36.7922 11.2522 36.9405 10.8509 37.123 10.461C37.3055 10.0597 37.6477 9.26851 37.8758 8.70665C38.1039 8.13331 38.3891 7.46825 38.5031 7.21598C38.6172 6.96371 38.8111 6.49358 38.948 6.18398C39.0734 5.86291 39.4384 4.99144 39.7692 4.23465C40.3966 2.76691 40.4764 2.27385 40.1684 1.67758C39.7806 0.920776 40.6247 0.966644 26.5037 0.966644L13.6945 0.978111L13.2041 1.23038Z" fill="#E3E4E6" fill-opacity="0.55"/>
<path d="M79.5998 1.32206C79.4059 1.3794 79.0523 1.64313 78.8242 1.91833L78.4136 2.39993L78.4478 4.63593C78.482 7.06686 78.5276 7.23886 79.2006 7.69753C79.4744 7.881 79.7823 7.90393 82.2461 7.90393H84.995L85.3486 7.61726C85.5539 7.45673 85.7706 7.14713 85.8504 6.92926C86.0215 6.42473 85.9987 2.56046 85.8162 2.15913C85.7478 2.01006 85.4854 1.74633 85.2345 1.57433L84.7783 1.25326L82.3715 1.23033C81.0484 1.21886 79.8051 1.26473 79.5998 1.32206Z" fill="#E3E4E6" fill-opacity="0.55"/>
<path d="M127.449 1.35646C127.107 1.50553 126.776 1.8266 126.571 2.19353C126.491 2.35406 126.445 3.237 126.445 4.69326V6.94073L126.89 7.42233L127.346 7.90393H130.175H133.015L133.335 7.58286C133.894 7.021 133.973 6.6426 133.973 4.67033C133.962 2.3082 133.768 1.74633 132.844 1.35646C132.342 1.15006 127.917 1.1386 127.449 1.35646Z" fill="#E3E4E6" fill-opacity="0.55"/>
<path d="M71.4672 11.9862C69.0605 12.1123 67.0758 12.4448 64.5094 13.1672C62.422 13.752 59.9241 14.7611 58.3272 15.667C57.9052 15.9078 57.5288 16.1027 57.4945 16.1027C57.4603 16.1027 57.3691 16.16 57.2892 16.2174C57.2094 16.2862 56.9128 16.4926 56.6048 16.676C56.3083 16.8595 55.9661 17.1806 55.8406 17.387C55.6125 17.7539 55.6125 17.9832 55.6125 29.6907C55.6125 42.992 55.5555 42.1091 56.3995 42.671C56.7645 42.9232 56.89 42.9347 59.0344 42.9347C61.5552 42.9347 61.9088 42.8544 62.365 42.2238L62.6273 41.8454L62.6844 31.5827L62.7414 21.32L63.825 20.7811C64.7603 20.3224 65.3763 20.1046 67.532 19.428C68.513 19.1299 70.4748 18.8318 72.5508 18.6712C73.6914 18.591 74.0792 18.4419 74.4214 17.9603C74.6267 17.6622 74.6495 17.4328 74.6838 15.3344L74.718 13.0526L74.3986 12.6168C73.8853 11.9403 73.5773 11.8715 71.4672 11.9862Z" fill="#E3E4E6" fill-opacity="0.55"/>
<path d="M104.203 11.9287C103.77 11.9746 102.241 12.2039 101.865 12.2727C100.679 12.4906 99.0247 13.0295 97.8156 13.6143C96.7434 14.1303 95.3861 14.933 95.3291 15.0821C95.3063 15.1394 95.2264 15.1853 95.1466 15.1853C94.9184 15.1853 93.0934 17.0085 92.3977 17.9373C90.2761 20.7351 89.2609 24.7485 89.7286 28.3834C89.9111 29.7594 90.3331 31.3303 90.8008 32.3394C91.0175 32.821 91.2 33.2911 91.2 33.3714C91.2 33.4517 91.2342 33.5319 91.2913 33.5549C91.3369 33.5663 91.5536 33.8759 91.7703 34.2199C92.7969 35.8826 94.1428 37.2242 95.8538 38.3135C96.2986 38.6117 96.675 38.8869 96.675 38.9442C96.675 38.9901 96.7548 39.0359 96.8461 39.0359C96.9488 39.0359 97.3594 39.1965 97.7814 39.3799C101.66 41.1458 106.724 41.3407 110.648 39.873C111.195 39.6666 113.18 38.6575 113.807 38.2562C113.978 38.153 114.149 38.1071 114.195 38.153C114.286 38.2447 114.035 39.2423 113.67 40.1941C113.077 41.8109 111.515 43.485 109.963 44.1845C108.583 44.8037 106.541 45.2279 104.91 45.2279C103.621 45.2279 101.203 44.861 99.9828 44.4826C99.4467 44.3221 98.8992 44.1501 98.7623 44.1157C98.6141 44.0813 98.5 44.0125 98.5 43.9551C98.5 43.8978 98.3973 43.8519 98.2719 43.8519C98.1464 43.8519 97.7244 43.7029 97.3366 43.5194C96.4127 43.0951 95.5914 42.8199 95.272 42.8199C94.9298 42.8314 94.1542 43.1983 93.9261 43.4621C93.6523 43.7831 92.4889 46.0535 92.3406 46.5695C92.1809 47.097 92.3178 47.785 92.6828 48.2437C92.9223 48.5418 93.8691 49.0807 94.8728 49.4821C95.2036 49.6082 95.637 49.7802 95.8195 49.8719C96.2758 50.0669 98.5798 50.6861 99.6406 50.8925C102.971 51.5461 106.553 51.5805 109.507 50.9957C110.009 50.8925 110.613 50.7893 110.853 50.7549C111.081 50.7319 111.309 50.6631 111.343 50.6058C111.378 50.5485 111.492 50.5026 111.606 50.5026C112.028 50.5026 114.115 49.5853 115.324 48.8629C115.769 48.5991 116.145 48.3583 116.18 48.3239C116.214 48.2895 116.522 48.0373 116.864 47.7506C117.206 47.4639 117.674 47.0397 117.891 46.8103C118.119 46.5695 118.358 46.3746 118.438 46.3746C118.507 46.3746 118.575 46.2714 118.575 46.1453C118.575 46.0191 118.621 45.9159 118.666 45.9159C118.712 45.9159 118.849 45.7669 118.951 45.5719C119.065 45.3885 119.214 45.1706 119.294 45.0903C119.43 44.9413 120.252 43.313 120.503 42.6709C120.731 42.0975 121.062 40.5954 121.198 39.5519C121.29 38.8295 121.313 35.8023 121.29 29.3466L121.255 20.1733L120.993 19.5541C120.697 18.8431 119.921 17.7997 119.031 16.9053C116.682 14.5317 113.533 12.9263 109.678 12.1351C108.857 11.9631 105.116 11.8255 104.203 11.9287ZM108.446 18.5565C110.591 18.9693 112.678 20.0701 113.819 21.3887L114.241 21.8818V25.8607V29.8282L113.933 30.2869C113.18 31.3991 112.142 32.3394 110.853 33.0618C110.397 33.3255 109.895 33.5319 109.735 33.5319C109.575 33.5319 109.45 33.5778 109.45 33.6237C109.45 33.7613 108.115 34.1282 107.283 34.2199C105.572 34.4263 103.245 34.197 101.808 33.6925C100.2 33.1191 98.7281 32.0642 97.9753 30.9405C97.0058 29.4727 96.7663 28.7045 96.6978 26.9271C96.6522 25.3677 96.7891 24.5765 97.3594 23.361C98.5114 20.8613 100.667 19.233 103.713 18.5679C104.648 18.3615 107.42 18.3615 108.446 18.5565Z" fill="#E3E4E6" fill-opacity="0.55"/>
<path d="M152.28 11.9287C150.398 12.181 150.125 12.2383 148.573 12.7199C146.657 13.3162 144.49 14.3941 143.041 15.4834C142.425 15.9306 140.475 17.7767 140.475 17.8914C140.475 17.9143 140.293 18.1895 140.064 18.5106C139.836 18.8317 139.551 19.3477 139.437 19.6573C139.232 20.2077 139.22 20.7695 139.22 34.8965V49.5509L139.483 49.9407C139.95 50.6517 140.27 50.7319 142.619 50.7319C144.787 50.7319 145.129 50.6746 145.676 50.193C145.802 50.0783 145.95 49.849 146.007 49.6999C146.064 49.5394 146.144 47.5213 146.178 45.1935L146.235 40.9853L146.805 41.3637C147.125 41.5701 147.558 41.8223 147.775 41.9255C149.737 42.8429 150.729 43.1525 152.543 43.4506C153.672 43.6455 156.33 43.6799 157.254 43.5194C157.596 43.4506 158.052 43.3818 158.269 43.3589C159.683 43.1754 161.793 42.3613 163.459 41.3522C164.132 40.9394 165.649 39.7583 166.162 39.2309C167.861 37.5109 169.344 35.057 170.086 32.7407C170.747 30.6882 170.975 27.9477 170.69 25.5626C170.302 22.2717 168.877 19.1069 166.721 16.7906C166.344 16.3778 166.036 16.0109 166.025 15.9535C166.025 15.9077 165.957 15.8733 165.877 15.8733C165.785 15.8733 165.603 15.7357 165.443 15.5751C164.998 15.0935 162.284 13.3506 161.987 13.3506C161.896 13.3506 161.611 13.2474 161.337 13.1327C160.641 12.8231 158.965 12.3415 157.87 12.1351C157.003 11.9746 153.022 11.8255 152.28 11.9287ZM156.718 18.6253C158.816 19.1871 160.698 20.4141 161.862 22.0079C162.056 22.2602 162.238 22.4895 162.272 22.5239C162.443 22.6501 163.276 24.4618 163.436 25.0466C163.789 26.285 163.903 27.6266 163.755 28.7274C163.367 31.6858 162.033 33.8989 159.649 35.5271C158.086 36.5935 156.387 37.1095 154.436 37.1095C153.296 37.121 151.425 36.7999 151.425 36.6165C151.425 36.5591 151.3 36.5133 151.151 36.5133C150.798 36.5133 149.246 35.6991 148.516 35.1373C147.889 34.6442 146.977 33.7269 146.486 33.0618L146.178 32.649V27.317V21.985L146.714 21.4461C147.889 20.2535 149.874 19.061 150.935 18.889C151.174 18.8546 151.391 18.7858 151.425 18.7399C151.562 18.5679 152.737 18.4303 154.231 18.4074C155.508 18.3959 156.01 18.4418 156.718 18.6253Z" fill="#E3E4E6" fill-opacity="0.55"/>
<path d="M182.735 11.9746C182.427 12.0205 181.845 12.1007 181.458 12.1466C181.058 12.1925 180.739 12.2842 180.739 12.3301C180.739 12.3874 180.648 12.4333 180.545 12.4333C180.328 12.4333 178.903 12.9034 178.8 13.0066C178.675 13.1442 178.218 13.3506 178.059 13.3506C177.967 13.3506 177.887 13.3965 177.887 13.4538C177.887 13.5111 177.705 13.6258 177.488 13.7061C177.272 13.7863 177.089 13.8895 177.089 13.9469C177.089 13.9927 176.952 14.1074 176.781 14.1991C176.325 14.4399 175.07 15.7127 174.591 16.4466C174.089 17.1919 173.644 18.0519 173.747 18.0519C173.793 18.0519 173.77 18.1093 173.69 18.1895C173.61 18.2698 173.553 18.4418 173.553 18.5909C173.553 18.7399 173.507 18.8546 173.462 18.8546C173.268 18.8546 173.097 21.0677 173.211 22.1685C173.542 25.3103 174.853 27.0991 178.002 28.6815C178.344 28.8535 178.652 29.037 178.663 29.0829C178.686 29.1287 178.789 29.1746 178.891 29.1746C179.119 29.1861 180.591 29.6791 180.705 29.7823C180.739 29.8282 180.899 29.8626 181.058 29.8626C181.207 29.8626 181.697 29.9658 182.142 30.0919C183.191 30.4015 183.545 30.4933 184.788 30.7799C185.359 30.9175 185.975 31.0666 186.157 31.1239C187.537 31.5023 187.925 31.6399 187.925 31.7202C187.925 31.7775 187.993 31.8119 188.073 31.789C188.415 31.7317 189.545 32.3623 190.012 32.8783C190.457 33.3829 190.503 34.197 190.115 34.9653C189.921 35.3666 188.986 36.2839 188.769 36.2839C188.678 36.2839 188.45 36.3757 188.244 36.4903C187.583 36.8573 186.887 36.9834 185.13 37.0522C183.705 37.0981 183.203 37.0637 182.119 36.8687C181.401 36.7311 180.773 36.6279 180.716 36.6279C180.659 36.6279 180.648 36.5821 180.682 36.5133C180.716 36.4445 180.671 36.433 180.568 36.4674C180.408 36.5362 180.249 36.4903 179.427 36.1693C179.302 36.1234 178.948 35.9514 178.629 35.7909C178.321 35.6303 177.739 35.3322 177.351 35.1373C176.142 34.5181 175.515 34.7818 174.511 36.3183C174.215 36.777 173.941 37.1669 173.907 37.2013C173.679 37.3962 173.211 38.5085 173.211 38.8525C173.211 39.8386 173.747 40.4005 175.606 41.3751C179.998 43.6685 186.157 44.2762 190.434 42.8199C191.735 42.3842 193.309 41.5586 193.97 40.9853C194.575 40.4578 195.293 39.7354 195.453 39.4946C195.544 39.357 195.681 39.1735 195.75 39.1047C195.921 38.9213 196.571 37.6255 196.788 37.0407C197.518 35.0341 197.404 32.1903 196.514 30.3327C195.932 29.1058 195.248 28.3261 193.799 27.2482C193.389 26.9501 191.153 25.8493 190.948 25.8493C190.902 25.8493 190.708 25.7805 190.514 25.6887C190.183 25.5397 189.704 25.4135 187.583 24.8631C187.172 24.7599 186.67 24.6453 186.476 24.6223C186.271 24.5879 186.1 24.5191 186.1 24.4618C186.1 24.4045 185.94 24.3586 185.746 24.3586C185.552 24.3586 185.073 24.2554 184.686 24.1293C184.309 24.0031 183.636 23.7967 183.191 23.6591C180.99 22.9711 180.055 22.2029 180.055 21.0677C180.055 20.5746 180.249 20.0013 180.408 20.0013C180.454 20.0013 180.534 19.8981 180.568 19.7719C180.671 19.4509 181.492 18.9119 182.29 18.6367C183.83 18.1207 186.157 18.1551 188.153 18.7399C188.621 18.8775 189.123 19.0151 189.271 19.0495C189.408 19.0839 189.556 19.1527 189.59 19.2101C189.625 19.2674 189.727 19.3133 189.807 19.3133C189.898 19.3133 190.309 19.4623 190.72 19.6573C191.632 20.0701 192.373 20.1159 192.75 19.7719C192.887 19.6458 193.058 19.5655 193.149 19.5999C193.229 19.6229 193.275 19.6114 193.24 19.5655C193.217 19.5197 193.548 18.9349 193.982 18.2813C195.35 16.2287 195.442 15.9879 195.236 15.2197C195.042 14.4858 194.415 14.0501 192.499 13.2933C190.594 12.5479 189.248 12.2039 187.298 11.9861C186.237 11.8599 183.568 11.8599 182.735 11.9746Z" fill="#E3E4E6" fill-opacity="0.55"/>
<path d="M79.6226 12.7544C79.4401 12.8806 79.1778 13.087 79.0523 13.236C78.8242 13.4883 78.8242 13.6718 78.79 27.6152C78.7672 41.5358 78.7672 41.7307 78.9953 42.1091C79.4629 42.8659 79.7139 42.9347 82.1548 42.9347C83.6376 42.9347 84.4475 42.8888 84.6642 42.7971C85.0976 42.6022 85.5767 42.0403 85.6565 41.639C85.6908 41.4555 85.725 35.1259 85.725 27.5808C85.725 14.4515 85.7136 13.8438 85.5083 13.4654C85.0748 12.6398 84.9608 12.6054 82.3259 12.571C80.1815 12.548 79.9306 12.5595 79.6226 12.7544Z" fill="#E3E4E6" fill-opacity="0.55"/>
<path d="M127.529 12.7544C127.346 12.8805 127.084 13.0984 126.959 13.2475C126.73 13.5227 126.73 13.6947 126.73 27.6955V41.8683L127.05 42.2811C127.221 42.5104 127.449 42.7053 127.54 42.7053C127.62 42.7053 127.7 42.7512 127.7 42.82C127.7 42.992 132.148 42.9691 132.696 42.7971C133.038 42.6939 133.175 42.5563 133.38 42.1435C133.517 41.8568 133.631 41.4555 133.643 41.272C133.654 41.0771 133.654 34.7819 133.643 27.2597L133.631 13.6029L133.357 13.2704C132.97 12.8003 132.32 12.6741 129.924 12.5939C128.008 12.5365 127.848 12.548 127.529 12.7544Z" fill="#E3E4E6" fill-opacity="0.55"/>
<path d="M100.907 54.4013C99.0361 54.8027 98.135 56.5685 98.9676 58.2083C99.2756 58.8045 100.017 59.2747 101.386 59.7219C102.789 60.1805 103.211 60.3869 103.45 60.7309C103.85 61.3043 103.462 62.084 102.709 62.2445C101.568 62.4739 100.622 62.2445 99.5836 61.4992C99.1501 61.1896 99.0361 61.1437 98.808 61.2469C98.4772 61.396 98.1122 62.1184 98.2148 62.4165C98.3061 62.7032 99.3212 63.4027 100.063 63.6893C101.203 64.1251 102.857 64.0907 103.77 63.6205C104.249 63.3683 104.876 62.7835 105.081 62.3821C105.298 61.9693 105.321 60.708 105.116 60.192C104.785 59.332 103.941 58.7816 102.07 58.1968C101.158 57.9101 100.85 57.7725 100.61 57.4859C100.211 57.0043 100.268 56.6144 100.781 56.2589C101.146 56.0067 101.272 55.9952 102.15 56.0296C102.857 56.064 103.256 56.1443 103.599 56.3277C104.26 56.6717 104.511 56.6488 104.773 56.2016C105.07 55.72 105.059 55.4104 104.739 55.1123C104.135 54.5389 102.07 54.1605 100.907 54.4013Z" fill="#E3E4E6" fill-opacity="0.55"/>
<path d="M110.043 54.3898C109.906 54.4701 109.108 56.1672 108.024 58.644C107.819 59.1141 107.465 59.9168 107.226 60.4213C106.427 62.1298 105.914 63.3568 105.914 63.5173C105.914 63.8154 106.268 64.0333 106.758 64.0333C107.363 64.0333 107.454 63.9301 108.036 62.6344L108.48 61.6253H110.625H112.769L113.283 62.7376C113.568 63.3568 113.864 63.8957 113.933 63.9416C114.355 64.2053 115.381 63.8957 115.381 63.5058C115.381 63.4141 115.153 62.8408 114.868 62.233C114.583 61.6368 114.355 61.1208 114.355 61.1093C114.355 61.0864 114.047 60.4213 113.67 59.6186C113.294 58.816 112.986 58.1509 112.986 58.128C112.986 57.9445 111.332 54.5389 111.184 54.4242C110.978 54.2637 110.271 54.2408 110.043 54.3898ZM111.275 58.3C111.594 59.0224 111.891 59.6874 111.925 59.7562C111.971 59.8709 111.663 59.9053 110.613 59.9053H109.233L109.701 58.8962C109.952 58.3458 110.26 57.6693 110.374 57.3941C110.499 57.1189 110.613 56.9125 110.636 56.9354C110.659 56.9584 110.944 57.5776 111.275 58.3Z" fill="#E3E4E6" fill-opacity="0.55"/>
<path d="M116.955 54.4128C116.761 54.516 116.75 54.8715 116.75 59.16C116.75 63.6205 116.761 63.804 116.967 63.9187C117.32 64.1021 117.948 64.0563 118.153 63.8269C118.324 63.632 118.347 63.1389 118.347 59.1256V54.6421L118.096 54.4701C117.811 54.2637 117.252 54.2408 116.955 54.4128Z" fill="#E3E4E6" fill-opacity="0.55"/>
<path d="M121.29 54.4128C121.096 54.516 121.084 54.8715 121.084 59.16C121.084 63.6205 121.096 63.804 121.301 63.9187C121.575 64.0677 122.225 64.0677 122.453 63.9187C122.601 63.8269 122.636 63.288 122.681 60.6507L122.738 57.4744L123.309 58.2656C125.179 60.8571 127.415 63.8728 127.517 63.9416C127.586 63.9875 127.882 64.0333 128.179 64.0333C128.601 64.0333 128.749 63.9875 128.841 63.8155C128.909 63.6664 128.955 61.9808 128.955 59.1141C128.955 55.204 128.932 54.6192 128.772 54.4701C128.567 54.2637 127.905 54.2293 127.575 54.4013C127.369 54.516 127.358 54.6765 127.358 57.7496V60.9717L126.445 59.7219C125.943 59.0339 124.951 57.6693 124.255 56.6947C122.601 54.4128 122.476 54.2867 121.917 54.2867C121.677 54.2867 121.392 54.344 121.29 54.4128Z" fill="#E3E4E6" fill-opacity="0.55"/>
<path d="M130.586 54.4586C130.244 54.6994 130.221 55.4448 130.552 55.7773C130.745 55.9722 130.928 56.0066 131.977 56.0066H133.175V59.7906C133.175 63.4256 133.186 63.5861 133.403 63.804C133.7 64.1021 134.43 64.1136 134.692 63.8269C134.863 63.632 134.886 63.1848 134.886 59.8136V56.0066H136.061C137.498 56.0066 137.738 55.892 137.738 55.1696C137.738 54.3096 137.909 54.344 134.179 54.3096C131.27 54.2866 130.803 54.2981 130.586 54.4586Z" fill="#E3E4E6" fill-opacity="0.55"/>
<path d="M147.501 54.4013C146.098 54.6536 144.638 55.7888 143.977 57.1533C143.635 57.8528 143.612 57.9674 143.612 59.16C143.612 60.3525 143.635 60.4672 143.988 61.1781C144.581 62.4165 145.596 63.3224 146.862 63.7581C147.764 64.0677 149.429 64.0448 150.296 63.7008C151.128 63.3797 151.858 62.8522 152.007 62.4509C152.075 62.2789 152.109 61.4648 152.087 60.5589C152.041 58.5981 152.087 58.644 150.49 58.644C149.189 58.644 148.916 58.793 148.916 59.504C148.916 60.1002 149.235 60.364 149.942 60.364H150.524L150.49 61.0749L150.455 61.7973L149.897 62.0725C149.132 62.4624 147.957 62.4624 147.113 62.084C146.007 61.6024 145.152 60.3181 145.152 59.16C145.152 57.9904 145.916 56.8322 147.056 56.2818C148.174 55.7314 149.703 55.9034 150.706 56.6946C151.163 57.0616 151.493 56.9928 151.836 56.4653C152.121 56.0296 152.132 55.9952 151.95 55.72C151.334 54.7682 149.11 54.1146 147.501 54.4013Z" fill="#E3E4E6" fill-opacity="0.55"/>
<path d="M157.664 54.4014C156.193 54.6651 154.824 55.7315 154.14 57.119C153.786 57.8528 153.763 57.956 153.763 59.16C153.763 60.364 153.786 60.4672 154.151 61.2126C155.372 63.7123 158.417 64.7328 160.915 63.46C162.329 62.7491 163.276 61.4534 163.55 59.871C163.846 58.128 163.014 56.236 161.497 55.1926C160.504 54.5046 158.908 54.172 157.664 54.4014ZM160.117 56.3048C160.847 56.6832 161.234 57.0731 161.577 57.7611C162.364 59.3435 161.816 61.0406 160.219 61.935C159.58 62.3019 159.398 62.3478 158.679 62.3478C155.68 62.3592 154.185 58.8848 156.33 56.8896C156.592 56.6488 156.991 56.3622 157.219 56.259C158.086 55.8806 159.341 55.9035 160.117 56.3048Z" fill="#E3E4E6" fill-opacity="0.55"/>
<path d="M165.489 54.4013L165.227 54.5045V59.0912C165.227 63.1045 165.249 63.7008 165.409 63.8499C165.557 63.9989 165.922 64.0333 167.61 64.0333C168.717 64.0333 169.937 63.976 170.314 63.9072C171.945 63.6091 172.869 62.6229 172.869 61.1781C172.869 60.364 172.675 59.8365 172.173 59.3091C171.728 58.8389 171.728 58.8275 171.945 58.5981C172.287 58.2312 172.413 57.784 172.413 57.0043C172.401 55.7888 171.911 55.0664 170.747 54.5619C170.394 54.4013 169.869 54.3555 168.021 54.3211C166.721 54.2981 165.626 54.3325 165.489 54.4013ZM170.485 56.3392C170.85 56.7061 170.93 57.3024 170.679 57.6349C170.28 58.1165 170.017 58.1853 168.398 58.1853H166.823V57.096V56.0067H168.489H170.154L170.485 56.3392ZM170.53 60.0773C171.078 60.3525 171.318 60.7997 171.226 61.3387C171.067 62.1528 170.188 62.428 167.987 62.3363L166.823 62.2904V61.0291V59.7677L168.455 59.8136C169.778 59.848 170.154 59.8939 170.53 60.0773Z" fill="#E3E4E6" fill-opacity="0.55"/>
<path d="M177.682 54.4816C177.465 54.688 173.553 63.2306 173.553 63.5173C173.553 63.9072 174.591 64.2053 175.002 63.9416C175.082 63.8957 175.367 63.3568 175.652 62.749L176.165 61.6368L177.967 61.6024C180.614 61.5565 180.374 61.4648 180.899 62.6344C181.492 63.9416 181.583 64.0333 182.165 64.0333C182.644 64.0333 183.02 63.781 183.02 63.4829C183.02 63.3568 181.674 60.3181 180.294 57.3253C180.055 56.8208 179.701 56.0181 179.484 55.548C179.04 54.5389 178.8 54.2866 178.287 54.2866C178.081 54.2866 177.808 54.3784 177.682 54.4816ZM179.29 59.0797C179.462 59.481 179.598 59.825 179.598 59.8594C179.598 59.8824 179.005 59.9053 178.287 59.9053C177.568 59.9053 176.975 59.8824 176.975 59.8594C176.975 59.8136 177.568 58.4146 178.002 57.44L178.264 56.8666L178.618 57.612C178.811 58.0248 179.119 58.6784 179.29 59.0797Z" fill="#E3E4E6" fill-opacity="0.55"/>
<path d="M184.651 54.4013L184.389 54.5045V59.1485C184.389 63.6205 184.4 63.804 184.606 63.9187C184.937 64.0907 185.598 64.0563 185.803 63.8499C185.963 63.7008 185.986 63.116 185.986 59.1829C185.986 56.7061 185.94 54.6192 185.883 54.5389C185.769 54.344 184.982 54.2523 184.651 54.4013Z" fill="#E3E4E6" fill-opacity="0.55"/>
<path d="M188.917 54.4931C188.746 54.688 188.723 55.1811 188.723 59.1944C188.723 64.1824 188.701 64.0333 189.499 64.0333C190.286 64.0333 190.252 64.148 190.32 60.6277L190.377 57.44L191.621 59.16C194.119 62.6 195.111 63.8957 195.293 63.9645C195.624 64.0907 196.229 64.0333 196.411 63.8499C196.571 63.7008 196.594 63.116 196.594 59.1829C196.594 56.5456 196.548 54.6192 196.48 54.516C196.366 54.3325 195.316 54.2637 195.145 54.4357C195.1 54.4931 195.031 55.9608 194.997 57.7037L194.94 60.8685L193.24 58.5179C192.294 57.2336 191.427 56.0411 191.301 55.8805C191.164 55.7085 190.879 55.3072 190.663 54.9976C190.446 54.6765 190.161 54.3899 190.035 54.3555C189.59 54.2293 189.1 54.2867 188.917 54.4931Z" fill="#E3E4E6" fill-opacity="0.55"/>
<path d="M137.738 59.2059C137.555 59.5614 137.601 60.1118 137.84 60.3526C138.034 60.5475 138.239 60.5704 139.563 60.5704C141.273 60.5704 141.502 60.4672 141.502 59.7563C141.502 59.0683 141.296 58.988 139.471 58.988C138 58.988 137.852 59.011 137.738 59.2059Z" fill="#E3E4E6" fill-opacity="0.55"/>
</svg>
