<svg width="174" height="77" viewBox="0 0 174 77" fill="none" xmlns="http://www.w3.org/2000/svg">
<g clip-path="url(#clip0_2423_399)">
<path d="M54.473 38.5V76.5H56.1385H57.8041V38.5V0.5H56.1385H54.473V38.5Z" fill="#E3E4E6" fill-opacity="0.55"/>
<path d="M113.453 38.5V76.5H115.02H116.588V38.5V0.5H115.02H113.453V38.5Z" fill="#E3E4E6" fill-opacity="0.55"/>
<path d="M21.848 11.8026C18.0074 12.0754 13.9709 13.3031 10.9926 15.1349C5.66284 18.4087 2.66486 23.6508 2.99797 29.1462C3.13513 31.3872 3.52702 32.8877 4.42838 34.7195C6.32905 38.539 10.1892 41.4621 15.7149 43.2549C16.8318 43.6251 20.7311 44.619 24.3953 45.4764C28.0595 46.3338 31.5865 47.2303 32.2135 47.4641C33.6047 47.9903 34.9959 49.1985 35.2507 50.1144C36.0932 53.1349 31.8804 55.1421 25.0811 54.9667C20.3588 54.8497 16.5182 53.2908 11.6784 49.5103L9.87567 48.1267L4.89865 51.8292L-0.0783806 55.5123L1.52838 57.0323C6.07432 61.339 13.2655 64.5933 20.5743 65.6651C23.1608 66.0354 28.7649 66.0549 31.5669 65.6846C37.1905 64.9636 41.7757 63.1513 45.0088 60.3841C47.2034 58.5328 49.0453 55.6097 49.7899 52.7841C50.3385 50.7574 50.3973 46.5872 49.9074 44.7944C48.6142 39.981 45.0284 36.9021 38.1115 34.6221C36.8182 34.1933 33.1149 33.141 29.8818 32.2641C22.1615 30.1985 21.4561 29.9841 20.2804 29.3995C18.4973 28.5226 17.6351 27.4313 17.6351 26.0867C17.6351 24.4887 18.9284 23.3585 21.4365 22.7154C26.0216 21.5462 32.9581 23.1051 37.1709 26.2426L37.9743 26.8467L42.6966 23.3585L47.4189 19.8508L46.5959 19.1687C45.2047 18.0385 42.4615 16.3431 40.3845 15.3103C34.7608 12.5431 28.4318 11.3544 21.848 11.8026Z" fill="#E3E4E6" fill-opacity="0.55"/>
<path d="M65.3284 12.5625C65.2304 12.6795 65.2304 64.3205 65.3284 64.4374C65.3676 64.4764 74.9885 64.4959 86.6865 64.4569L107.966 64.4179V58.4743V52.5308H93.9561H79.9459V48.341V44.1513H89.5473H99.1486V38.4025V32.6538H89.5473H79.9459V28.5615V24.4692H93.5642H107.182V18.5256V12.582L86.2946 12.5431C74.8122 12.5041 65.3676 12.5236 65.3284 12.5625Z" fill="#E3E4E6" fill-opacity="0.55"/>
<path d="M124.23 38.4415C124.23 55.5318 124.289 64.3985 124.426 64.4569C124.524 64.4764 132.93 64.4764 143.08 64.4179C164.085 64.301 162.4 64.4374 166.26 62.5667C171.1 60.2087 173.686 56.3697 173.941 51.1667C174.059 48.5943 173.706 46.7626 172.648 44.619C171.198 41.7349 168.416 39.2795 164.947 37.8959L163.38 37.2723L164.457 36.7072C168.455 34.5636 170.865 30.4128 170.865 25.6774C170.845 20.5328 167.789 16.2261 162.576 13.9851C159.324 12.582 159.304 12.582 140.787 12.5236L124.23 12.4846V38.4415ZM152.779 23.8261C154.582 24.8005 155.718 26.6908 155.464 28.3472C155.17 30.2569 153.68 31.8549 151.799 32.2641C151.27 32.381 148.311 32.459 144.902 32.459H138.926V27.86V23.2805L145.451 23.339C151.76 23.3974 151.976 23.4169 152.779 23.8261ZM154.993 43.8785C157.364 44.9892 158.442 47.7369 157.443 50.1533C157.031 51.1667 155.679 52.3749 154.641 52.6867C154.111 52.8426 151.564 52.9205 146.391 52.9205H138.926V48.1461V43.3523L146.528 43.4108C153.759 43.4692 154.151 43.4887 154.993 43.8785Z" fill="#E3E4E6" fill-opacity="0.55"/>
</g>
<defs>
<clipPath id="clip0_2423_399">
<rect width="174" height="76" fill="white" transform="translate(0 0.5)"/>
</clipPath>
</defs>
</svg>
