<svg width="192" height="23" viewBox="0 0 192 23" fill="none" xmlns="http://www.w3.org/2000/svg">
<g clip-path="url(#clip0_149_204)">
<path d="M11.5846 0.0884666C10.8022 0.285048 10.0799 0.845304 9.65859 1.60214C9.49809 1.88718 9.47803 2.29017 9.44793 5.32735L9.41784 8.74787H6.1275C2.2754 8.74787 2.17508 8.76752 1.33244 9.58334C0.21894 10.6842 0.21894 12.3158 1.33244 13.4167C2.17508 14.2325 2.2754 14.2521 6.1275 14.2521H9.41784L9.44793 17.6628L9.47803 21.0833L9.74888 21.5256C10.3106 22.4692 11.1533 22.9509 12.2367 22.941C13.3602 22.9312 14.3132 22.3316 14.7847 21.3389C14.9954 20.8868 14.9954 20.8573 14.9954 11.5V2.11325L14.7145 1.54317C14.1527 0.422653 12.8085 -0.196577 11.5846 0.0884666Z" fill="#E3E4E6" fill-opacity="0.55"/>
<path d="M47.5979 4.96368C46.2638 5.42564 46.1133 7.22436 47.3472 7.87308C48.0193 8.22693 49.1027 8.01069 49.4738 7.4406C50.3767 6.10385 49.1127 4.44274 47.5979 4.96368Z" fill="#E3E4E6" fill-opacity="0.55"/>
<path d="M158.135 4.9047C157.323 5.10128 156.831 5.77949 156.911 6.60513C156.962 7.11624 157.182 7.47992 157.634 7.80427C158.025 8.09915 159.068 8.09915 159.459 7.80427C159.911 7.47992 160.131 7.11624 160.172 6.61496C160.272 5.52393 159.229 4.64915 158.135 4.9047Z" fill="#E3E4E6" fill-opacity="0.55"/>
<path d="M58.2814 7.77479V10.0355L57.9604 9.79957C56.6764 8.85598 55.1416 8.7282 53.5967 9.42607C51.2794 10.4974 50.3465 13.6722 51.6205 16.1393C52.8042 18.4295 55.9642 19.206 57.9103 17.6825L58.2814 17.3876V17.8397V18.2919L59.6156 18.2624L60.9398 18.2329L60.9699 11.8637L60.99 5.50427H59.6357H58.2814V7.77479ZM56.7165 11.6081C57.2783 11.7654 57.9404 12.3944 58.141 12.994C58.783 14.9009 56.8269 16.5718 55.0011 15.6774C53.5967 14.9893 53.3861 12.9842 54.6199 12.0209C55.2419 11.5295 55.9341 11.3919 56.7165 11.6081Z" fill="#E3E4E6" fill-opacity="0.55"/>
<path d="M124.49 7.76496V10.0256L124.048 9.69146C122.925 8.85599 121.149 8.74787 119.755 9.44573C119.223 9.71112 118.32 10.5466 118.009 11.0675C116.344 13.8492 117.688 17.5744 120.627 18.3214C121.821 18.6359 123.145 18.4197 124.038 17.7808L124.439 17.4859L124.469 17.8889L124.5 18.2821H125.854H127.198V11.8932V5.50428H125.844H124.49V7.76496ZM123.406 11.8145C124.058 12.1586 124.419 12.7483 124.469 13.5051C124.52 14.262 124.379 14.7436 123.958 15.2056C123.155 16.1 121.631 16.1688 120.738 15.353C119.935 14.6158 119.845 13.2299 120.547 12.306C121.139 11.5197 122.453 11.2936 123.406 11.8145Z" fill="#E3E4E6" fill-opacity="0.55"/>
<path d="M33.0422 6.16282C33.0823 6.26111 34.1758 9.02308 35.4899 12.306L37.8674 18.2821H39.3219H40.7865L43.164 12.306C44.4681 9.02308 45.5716 6.26111 45.6017 6.16282C45.6618 6.00555 45.5415 5.99572 44.117 5.99572H42.5721L40.9771 10.2222C40.1044 12.5517 39.3721 14.4291 39.352 14.4094C39.3219 14.3799 38.5896 12.4927 37.7269 10.2026L36.152 6.04487L34.567 6.01538C33.0823 5.99572 32.982 6.00555 33.0422 6.16282Z" fill="#E3E4E6" fill-opacity="0.55"/>
<path d="M88.8776 12.1291V18.2821H90.282H91.6864V16.3261V14.3701L93.6225 14.3308C95.2676 14.3013 95.6187 14.262 96.0601 14.0949C97.2037 13.6427 98.0865 12.7876 98.5178 11.7261C98.8489 10.9299 98.8489 9.4359 98.5279 8.64957C98.0865 7.55855 97.2338 6.75256 96.02 6.27094C95.4683 6.0547 95.3178 6.04487 92.1679 6.01538L88.8776 5.9859V12.1291ZM95.1673 8.84615C96.1003 9.40641 96.1203 10.8611 95.1974 11.4705C94.8864 11.6868 94.756 11.6966 93.2814 11.6966H91.6864V10.1731V8.64957H93.2714C94.6557 8.64957 94.8864 8.66923 95.1673 8.84615Z" fill="#E3E4E6" fill-opacity="0.55"/>
<path d="M18.1755 6.23163C17.5737 6.42821 17.1122 6.80172 16.8614 7.303C16.6608 7.71582 16.6508 7.86325 16.6508 11.4607C16.6508 14.8517 16.6708 15.2252 16.8414 15.5791C17.3128 16.6013 18.5868 17.0829 19.6101 16.6209C20.1618 16.3752 25.4484 13.3872 25.8497 13.0923C26.7926 12.4043 26.8528 10.7727 25.96 9.95684C25.7393 9.75043 20.854 6.93932 19.8408 6.42821C19.2389 6.12351 18.7072 6.06454 18.1755 6.23163Z" fill="#E3E4E6" fill-opacity="0.55"/>
<path d="M150.571 8.05983V9.14103H149.869H149.167V10.3697V11.5983H149.869H150.571V13.7902C150.571 16.2573 150.652 16.6996 151.203 17.4171C151.404 17.6825 151.755 17.9479 152.126 18.1346C152.668 18.4098 152.788 18.4295 153.771 18.4295C154.554 18.4295 154.935 18.3803 155.216 18.2624L155.587 18.0953V16.8667V15.638L155.236 15.7855C154.825 15.9526 154.052 15.9624 153.751 15.8051C153.31 15.5791 153.29 15.4709 153.28 13.4855V11.5983H154.434H155.587V10.3697V9.14103H154.434H153.28V8.05983V6.97863H151.926H150.571V8.05983Z" fill="#E3E4E6" fill-opacity="0.55"/>
<path d="M66.3368 9.09188C63.9995 9.59316 62.4948 11.3821 62.4948 13.6526C62.4948 15.9821 63.9894 17.7906 66.3669 18.341C68.0823 18.7342 70.2993 18.1838 71.3827 17.0829L71.7739 16.6897L71.3225 16.2966C71.0717 16.0803 70.6805 15.7462 70.4497 15.5594L70.0384 15.2252L69.577 15.5692C68.9751 16.0214 68.5036 16.1688 67.661 16.159C66.8986 16.159 66.4773 16.0017 65.9757 15.5397C65.7149 15.3137 65.4039 14.8419 65.4039 14.6944C65.4039 14.665 66.9387 14.6453 68.8146 14.6453H72.2253L72.2454 14.2718C72.3357 12.6205 71.8642 11.3132 70.8209 10.3107C70.1588 9.68162 69.3964 9.28846 68.4334 9.08205C67.6209 8.91496 67.1494 8.91496 66.3368 9.09188ZM68.2328 11.4017C68.5036 11.4115 69.4165 12.5222 69.4165 12.8269C69.4165 12.8564 68.5137 12.8761 67.4102 12.8761C65.123 12.8761 65.133 12.8761 65.7048 12.1094C66.1763 11.4607 66.9487 11.1658 67.7613 11.3231C67.982 11.3624 68.1926 11.3919 68.2328 11.4017Z" fill="#E3E4E6" fill-opacity="0.55"/>
<path d="M77.2712 9.05256C74.8937 9.44573 73.2385 11.3624 73.2285 13.7115C73.2285 15.0286 73.6799 16.1393 74.5828 17.0436C76.89 19.3338 81.1634 18.7735 82.628 15.9722C83.3804 14.547 83.3403 12.6303 82.5277 11.2838C82.1666 10.6744 81.1434 9.76026 80.5114 9.47521C79.4882 9.01325 78.3847 8.87564 77.2712 9.05256ZM79.2073 11.7261C79.5785 11.9128 80.0198 12.3453 80.2305 12.7286C80.5014 13.2103 80.4612 14.3013 80.1503 14.8419C79.759 15.5103 79.1872 15.8641 78.3647 15.9034C77.7728 15.9329 77.6223 15.9034 77.1408 15.6577C76.3583 15.2547 75.9972 14.665 75.9972 13.7803C75.9972 12.7679 76.5088 11.9816 77.3916 11.6474C77.8731 11.4705 78.786 11.5098 79.2073 11.7261Z" fill="#E3E4E6" fill-opacity="0.55"/>
<path d="M110.144 9.10171C107.827 9.59316 106.322 11.4115 106.312 13.7115C106.302 16.906 109.242 19.088 112.532 18.3312C113.425 18.1248 114.107 17.7513 114.819 17.0829C117.217 14.8321 116.545 10.8709 113.535 9.48504C112.402 8.9641 111.348 8.84616 110.144 9.10171ZM111.89 11.6081C113.013 11.8833 113.716 13.0628 113.455 14.2227C113.214 15.2547 112.351 15.9231 111.258 15.9231C109.563 15.9231 108.529 14.2227 109.302 12.6991C109.783 11.7359 110.766 11.3329 111.89 11.6081Z" fill="#E3E4E6" fill-opacity="0.55"/>
<path d="M143.299 9.05256C141.804 9.29829 140.44 10.2517 139.798 11.4902C138.824 13.3675 139.146 15.5987 140.59 17.0239C142.145 18.5573 144.583 18.9111 146.659 17.9085C147.221 17.6432 148.465 16.5227 148.465 16.2966C148.465 16.2278 147.963 15.8739 147.341 15.5004L146.228 14.8419L145.947 15.1761C145.315 15.9231 144.131 16.1393 143.178 15.6774C141.403 14.8124 141.694 12.0799 143.61 11.6081C144.492 11.3919 145.094 11.5393 145.766 12.1585L146.248 12.6009L147.361 11.9423C147.963 11.5885 148.465 11.2444 148.465 11.1855C148.465 11.1363 148.184 10.8021 147.843 10.4581C146.689 9.27863 145.034 8.76752 143.299 9.05256Z" fill="#E3E4E6" fill-opacity="0.55"/>
<path d="M165.448 9.05256C163.071 9.44573 161.416 11.3624 161.406 13.7115C161.406 15.0286 161.857 16.1393 162.76 17.0436C165.067 19.3338 169.34 18.7735 170.805 15.9722C171.186 15.2547 171.337 14.606 171.337 13.7017C171.337 12.3551 170.956 11.4214 170.013 10.4581C168.859 9.27863 167.194 8.76752 165.448 9.05256ZM167.384 11.7261C168.187 12.1291 168.568 12.7778 168.578 13.7115C168.578 14.5568 168.297 15.1269 167.645 15.5692C166.692 16.2278 165.137 15.9329 164.515 14.9795C163.954 14.1047 164.034 13.0235 164.726 12.247C164.957 11.9915 165.298 11.7457 165.549 11.6573C166.05 11.4705 166.953 11.5098 167.384 11.7261Z" fill="#E3E4E6" fill-opacity="0.55"/>
<path d="M177.456 9.07223C176.854 9.20983 176.373 9.42607 175.881 9.79958L175.55 10.0355V9.58334V9.1312L174.226 9.16069L172.892 9.19018V13.7115V18.2329L174.216 18.2624L175.54 18.2919L175.57 15.5103C175.6 12.8073 175.61 12.7188 175.831 12.365C176.322 11.5885 177.426 11.2936 178.248 11.7162C178.78 11.9816 179.041 12.306 179.161 12.8368C179.211 13.0432 179.262 14.3603 179.262 15.7462V18.2821H180.566H181.88L181.85 14.8124L181.82 11.3526L181.539 10.7923C180.857 9.4359 179.111 8.69872 177.456 9.07223Z" fill="#E3E4E6" fill-opacity="0.55"/>
<path d="M104.256 9.22949C103.975 9.31795 103.534 9.56368 103.283 9.77009L102.821 10.1338V9.63248V9.1312L101.497 9.16069L100.163 9.19018V13.7115V18.2329L101.497 18.2624L102.821 18.2919V15.9919C102.821 13.3872 102.902 12.9252 103.443 12.4141C103.925 11.9718 104.196 11.8637 104.978 11.8047L105.68 11.7457L105.711 10.3893L105.741 9.04274H105.259C104.998 9.05257 104.547 9.1312 104.256 9.22949Z" fill="#E3E4E6" fill-opacity="0.55"/>
<path d="M46.7955 9.25898C46.7654 9.32778 46.7553 11.3722 46.7654 13.8098L46.7955 18.2329L48.1296 18.2624L49.4538 18.2919V13.7115V9.14103H48.1497C47.1967 9.14103 46.8255 9.17052 46.7955 9.25898Z" fill="#E3E4E6" fill-opacity="0.55"/>
<path d="M129.124 12.4043L129.154 15.6774L129.485 16.3359C130.157 17.6825 131.632 18.4786 133.438 18.4786C135.374 18.4786 136.828 17.6825 137.51 16.2376L137.781 15.6774L137.811 12.4043L137.841 9.1312L136.507 9.16069L135.173 9.19018L135.123 12.1094C135.073 14.8419 135.063 15.0385 134.872 15.294C134.23 16.1393 132.645 16.1197 132.053 15.2645C131.883 15.0188 131.863 14.7338 131.813 12.0897L131.762 9.19018L130.428 9.16069L129.094 9.1312L129.124 12.4043Z" fill="#E3E4E6" fill-opacity="0.55"/>
<path d="M157.192 13.7115V18.2821H158.547H159.901L159.881 13.7312L159.851 9.19017L158.526 9.16068L157.192 9.1312V13.7115Z" fill="#E3E4E6" fill-opacity="0.55"/>
<path d="M186.384 10.5171V11.7949H185.08H183.776V13.0235V14.2521H185.08H186.384V15.5299V16.8077H187.588H188.792V15.5299V14.2521H190.096H191.4V13.0235V11.7949H190.096H188.792V10.5171V9.23932H187.588H186.384V10.5171Z" fill="#E3E4E6" fill-opacity="0.55"/>
</g>
<defs>
<clipPath id="clip0_149_204">
<rect width="191" height="23" fill="white" transform="translate(0.5)"/>
</clipPath>
</defs>
</svg>
