<svg width="185" height="185" viewBox="0 0 185 185" fill="none" xmlns="http://www.w3.org/2000/svg">
<path d="M99.6555 20.1096C92.2615 20.8081 85.6852 23.5681 79.8755 28.4237C75.3948 32.1548 71.7318 37.2489 69.5 42.837C68.2733 45.9037 67.0978 50.18 66.6889 53.0252C66.3993 55.0526 66.3481 59.9422 66.6037 62.0037C67.1489 66.3993 68.9889 71.2037 71.4763 74.7304C71.8852 75.3096 72.2259 75.8207 72.2259 75.8719C72.2259 75.923 58.7667 75.9741 42.3259 75.9741H12.4259V77.6778V79.3815H43.9615H75.5141L76.6385 80.3015C85.0378 87.1333 96.7081 88.4452 106.317 83.6237C108.208 82.6867 110.559 81.1533 111.803 80.0459L112.57 79.3815H142.316H172.063V77.6267V75.8548L144.037 75.94C128.619 75.9911 116.011 75.957 116.011 75.8889C116.011 75.8037 116.42 75.1222 116.931 74.3726C117.425 73.6059 118.192 72.2941 118.618 71.4593C119.35 70.0111 119.606 69.7044 123.695 65.5815C128.38 60.8622 130.527 58.4941 130.459 58.1533C130.424 58.0511 128.227 55.9044 125.552 53.4C118.43 46.7044 118.464 46.7385 117.783 45.597C116.25 43.0415 113.66 40.06 111.36 38.22L110.713 37.6918L110.559 33.7052C110.474 31.5074 110.355 27.7763 110.287 25.4081C110.201 22.2733 110.116 21.0296 109.946 20.8763C109.724 20.6378 107.85 20.3481 104.937 20.0926C102.876 19.9052 101.683 19.9052 99.6555 20.1096ZM105.738 23.943L106.436 24.0281L106.539 25.9363C106.59 26.9926 106.692 29.5141 106.743 31.5585L106.845 35.2726L106.027 34.8637C101.496 32.5807 94.6978 31.5756 89.6889 32.4444C84.8674 33.2793 80.1822 35.3918 76.7067 38.3052C76.1104 38.7822 75.6333 39.14 75.6333 39.0889C75.6333 39.0378 75.94 38.5437 76.3148 37.9985C81.0681 30.9963 88.2918 26.0896 96.3333 24.403C99.1274 23.8237 103.199 23.6193 105.738 23.943ZM98.1563 36.2778C104.92 37.4363 110.985 41.6104 114.478 47.5222C115.33 48.9533 115.739 49.3963 118.993 52.4459C125.041 58.1022 125.109 58.1704 124.939 58.46C124.853 58.5963 122.86 60.743 120.492 63.2133L116.199 67.7111L115.159 69.7556C111.854 76.3148 105.925 80.7956 98.6504 82.2778C89.3481 84.1519 79.6881 80.1822 74.4067 72.3282C72.5326 69.517 71.34 66.6037 70.7607 63.3667C70.3689 61.203 70.3689 57.3526 70.7607 55.223C72.5156 45.6141 80.2163 37.9644 89.8422 36.2607C92.2444 35.8518 95.6859 35.8518 98.1563 36.2778Z" fill="#E3E4E6" fill-opacity="0.55"/>
<path d="M101.444 45.0859C99.4341 45.3415 97.2533 46.6704 96.197 48.2548C95.3622 49.4985 95.0556 50.4015 94.9363 51.8667C94.6978 54.8993 96.2652 57.5741 99.1274 58.9881C100.184 59.4993 100.337 59.5333 102.211 59.5333C104.153 59.5333 104.204 59.5163 105.482 58.8859C107.697 57.7955 109.094 55.9215 109.554 53.4341C110.031 50.8615 108.719 47.9311 106.385 46.3296C105.073 45.4437 102.927 44.8985 101.444 45.0859ZM106.181 48.817C107.884 49.9244 108.106 52.0541 106.658 53.5022C105.346 54.8311 103.591 54.797 102.262 53.417C101.717 52.8548 101.53 52.497 101.444 51.8837C101.206 50.3674 102.126 48.9193 103.591 48.4593C104.528 48.1696 105.346 48.2889 106.181 48.817Z" fill="#E3E4E6" fill-opacity="0.55"/>
<path d="M96.5889 89.4674C95.277 90.3363 95.0896 91.8185 96.1459 92.977C96.657 93.5222 96.8104 93.5904 97.7133 93.6415C98.94 93.7267 99.7237 93.3178 100.116 92.3807C100.507 91.4437 100.32 90.5237 99.5874 89.8081C99.0933 89.297 98.8548 89.1948 98.0881 89.1267C97.3385 89.0755 97.083 89.1267 96.5889 89.4674Z" fill="#E3E4E6" fill-opacity="0.55"/>
<path d="M64.3037 89.7911C62.617 91.2733 63.6222 93.863 65.8711 93.863C67.677 93.863 68.8526 92.0059 68.0518 90.4385C67.66 89.6889 66.8422 89.263 65.803 89.263C65.0533 89.263 64.8148 89.3482 64.3037 89.7911Z" fill="#E3E4E6" fill-opacity="0.55"/>
<path d="M59.0563 91.8015L57.54 91.9037L54.9674 98.1563C53.5533 101.598 52.3437 104.358 52.2755 104.29C52.2074 104.221 51.6111 102.859 50.9296 101.274C50.2652 99.6726 49.2259 97.2193 48.6296 95.8222C48.0333 94.4082 47.42 92.943 47.2667 92.5341L46.977 91.8015L44.9837 91.8526C43.1096 91.9037 43.0074 91.9208 43.0415 92.2445C43.0585 92.4319 43.8252 94.2719 44.7281 96.3333C45.6481 98.3948 47.5563 102.722 48.9874 105.959L51.5941 111.837L52.3437 111.888L53.1104 111.939L53.7067 110.525C54.0304 109.741 55.0867 107.305 56.0407 105.107C56.9948 102.91 58.4941 99.417 59.397 97.3556C60.283 95.2941 61.1689 93.2667 61.3393 92.8578C61.7481 91.9378 61.663 91.6311 61.0326 91.6822C60.777 91.6993 59.8741 91.7504 59.0563 91.8015Z" fill="#E3E4E6" fill-opacity="0.55"/>
<path d="M73.1289 92.3808L71.5444 93.0622V102.245V111.411H73.3333C75.037 111.411 75.1222 111.394 75.2074 111.019C75.3778 110.338 75.0541 91.7674 74.8667 91.7163C74.7815 91.6993 73.9807 91.9889 73.1289 92.3808Z" fill="#E3E4E6" fill-opacity="0.55"/>
<path d="M139.744 96.0778C137.733 96.4867 136.336 97.5941 135.876 99.1615C135.536 100.269 135.536 100.576 135.859 101.649C136.285 103.08 137.444 103.966 140.596 105.278C142.742 106.164 143.356 106.896 142.606 107.646C141.788 108.464 139.846 108.43 138.585 107.561C138.244 107.339 137.853 107.152 137.716 107.152C137.154 107.152 134.922 108.259 134.922 108.532C134.922 108.941 136.421 110.27 137.478 110.781C140.153 112.076 143.85 111.633 145.451 109.793C146.967 108.072 146.916 105.482 145.366 104C144.684 103.353 143.662 102.79 141.686 101.922C140.732 101.513 139.829 101.053 139.659 100.899C139.233 100.524 139.267 99.8941 139.727 99.5874C140.272 99.1956 141.771 99.2297 142.589 99.6556L143.253 99.9963L144.667 99.383C145.451 99.0593 146.15 98.7186 146.235 98.6163C146.456 98.4119 145.468 97.3726 144.531 96.8274C143.781 96.3845 141.856 95.9074 140.97 95.9245C140.698 95.9415 140.136 96.0097 139.744 96.0778Z" fill="#E3E4E6" fill-opacity="0.55"/>
<path d="M85.0718 96.3163C84.5948 96.4356 83.8622 96.7252 83.4193 96.9637C82.6015 97.4237 82.4481 97.4237 82.4481 96.8956C82.4481 96.6059 82.3118 96.5889 80.7956 96.623L79.1259 96.6741L79.0748 103.148C79.0407 106.709 79.0748 110.031 79.1259 110.525L79.2452 111.428L80.9659 111.377L82.7037 111.326L82.7889 106.368L82.8741 101.41L83.3681 100.78C84.0156 99.9111 84.8163 99.6045 86.0941 99.6896C86.98 99.7578 87.1674 99.8259 87.6615 100.371C87.9681 100.712 88.2918 101.274 88.3941 101.649C88.4963 102.024 88.5815 104.085 88.5815 106.658C88.5815 110.201 88.6326 111.07 88.82 111.224C88.9733 111.36 89.6207 111.411 90.643 111.377L92.2444 111.326L92.2274 106.044C92.2104 99.6896 92.1422 99.2808 90.7452 97.8667C89.3141 96.4526 87.0141 95.8222 85.0718 96.3163Z" fill="#E3E4E6" fill-opacity="0.55"/>
<path d="M107.237 96.3844C105.636 96.8615 103.915 98.037 103.404 98.9911C103.199 99.3659 103.353 99.4681 104.903 100.064L106.164 100.541L107.186 100.013C109.554 98.8037 111.82 99.7237 111.837 101.921V102.807L108.941 102.893C106.215 102.978 105.993 103.012 105.073 103.455C103.233 104.358 102.433 105.755 102.603 107.714C102.807 109.912 104.409 111.309 107.169 111.65C108.361 111.803 110.321 111.411 111.326 110.815C112.246 110.287 112.263 110.287 112.263 110.815V111.241H113.967H115.67V106.249C115.67 100.865 115.585 100.15 114.75 98.7355C113.796 97.117 112.11 96.2481 109.707 96.1459C108.651 96.0948 107.987 96.163 107.237 96.3844ZM111.752 106.3C111.36 107.663 110.389 108.447 108.856 108.634C107.288 108.821 106.079 107.901 106.368 106.726C106.556 105.976 107.186 105.806 109.656 105.789H111.905L111.752 106.3Z" fill="#E3E4E6" fill-opacity="0.55"/>
<path d="M97.6622 97.1512L96.0778 97.8497V104.187C96.0778 107.97 96.1459 110.713 96.2481 110.985C96.4185 111.411 96.4356 111.428 97.9859 111.377L99.5533 111.326L99.7067 110.73C99.8089 110.372 99.8259 107.39 99.7748 103.506C99.7067 98.3097 99.6385 96.8445 99.4511 96.6571C99.2637 96.4697 98.957 96.5549 97.6622 97.1512Z" fill="#E3E4E6" fill-opacity="0.55"/>
<path d="M120.781 97.1511L119.163 97.8837L119.112 100.099C119.027 103.608 119.316 107.169 119.742 108.055C120.356 109.316 121.207 110.167 122.553 110.832C125.637 112.348 129.436 111.479 131.208 108.856C132.23 107.339 132.281 106.947 132.281 101.444V96.5037L131.77 96.5378C131.498 96.5378 130.663 96.8274 129.947 97.1682L128.619 97.7986V101.853C128.619 105.755 128.601 105.925 128.227 106.641C127.716 107.612 126.625 108.225 125.637 108.123C124.598 108.021 123.729 107.527 123.303 106.828C122.928 106.232 122.911 106.027 122.826 101.496C122.775 98.6674 122.673 96.7082 122.57 96.606C122.451 96.4867 121.872 96.6741 120.781 97.1511Z" fill="#E3E4E6" fill-opacity="0.55"/>
<path d="M65.4452 97.4578L64.0481 98.1222L64.0822 104.716L64.1333 111.326H65.9222H67.7111L67.7622 106.3C67.7963 103.54 67.7622 100.252 67.7111 99.0081C67.5748 96.3504 67.66 96.4015 65.4452 97.4578Z" fill="#E3E4E6" fill-opacity="0.55"/>
<path d="M84.8333 113.796C84.4926 114.018 84.7481 114.444 86.4519 116.403C87.2356 117.306 88.0704 118.311 88.3259 118.635C88.7859 119.231 88.82 119.248 89.9615 119.248C91.0519 119.248 91.137 119.214 91.4778 118.737C91.6822 118.447 92.4148 117.562 93.0963 116.761C94.9193 114.631 95.3452 113.984 95.0385 113.779C94.9022 113.694 94.1185 113.626 93.2667 113.626H91.7333L90.8474 114.597L89.9615 115.585L89.0926 114.597L88.2067 113.626H86.6563C85.7874 113.626 84.9696 113.694 84.8333 113.796Z" fill="#E3E4E6" fill-opacity="0.55"/>
<path d="M100.848 115.892L99.2296 116.624L99.1785 118.26L99.1274 119.913L97.9859 119.964L96.8444 120.015L96.7933 120.781C96.7593 121.207 96.7763 121.957 96.8444 122.434L96.9467 123.337H98.037H99.1104L99.1785 127.46C99.2296 131.361 99.2637 131.651 99.6385 132.486C100.15 133.627 101.036 134.428 102.313 134.922C103.131 135.246 103.625 135.314 104.971 135.297C105.976 135.297 106.811 135.195 107.101 135.059C107.561 134.837 107.578 134.786 107.629 133.338L107.68 131.856H106.13C104.409 131.856 103.557 131.6 103.199 130.97C103.046 130.697 102.961 129.573 102.927 126.949L102.859 123.337H104.886C106.232 123.337 106.981 123.269 107.118 123.133C107.322 122.928 107.407 120.696 107.22 120.202C107.135 119.981 106.777 119.93 105.005 119.93H102.91L102.859 117.596C102.824 116.233 102.739 115.261 102.637 115.227C102.552 115.193 101.734 115.5 100.848 115.892Z" fill="#E3E4E6" fill-opacity="0.55"/>
<path d="M71.1185 115.977C70.3689 116.318 69.6533 116.676 69.5511 116.744C69.2955 116.897 69.2444 124.87 69.4489 131.379L69.5511 135.093H71.3229H73.0778V131.396C73.0778 127.869 73.0948 127.716 73.3844 127.988C73.5378 128.159 74.8667 129.794 76.3148 131.651L78.9726 135.007H81C82.6867 135.007 83.0444 134.956 83.0785 134.752C83.1126 134.616 81.7496 132.776 80.08 130.663C77.4904 127.409 77.0474 126.779 77.2178 126.54C77.337 126.387 78.5978 124.99 80.0289 123.422C81.46 121.872 82.6185 120.509 82.5674 120.39C82.5333 120.253 81.8518 120.168 80.4548 120.134L78.3933 120.083L75.7867 123.03L73.1629 125.961L73.0778 120.696C73.0096 116.181 72.9585 115.415 72.737 115.381C72.6007 115.364 71.8681 115.619 71.1185 115.977Z" fill="#E3E4E6" fill-opacity="0.55"/>
<path d="M20.3481 115.704C20.297 115.824 20.28 120.253 20.297 125.552L20.3481 135.178H22.137H23.9259L23.977 131.549L24.0111 127.937H25.4252C29.1392 127.92 31.1155 127.409 32.5807 126.063C33.9096 124.853 34.4548 123.559 34.4548 121.633C34.4718 119.078 33.3474 117.255 31.0644 116.096L30.0592 115.585L25.2378 115.534C21.4044 115.483 20.4163 115.517 20.3481 115.704ZM29.2755 119.163C30.1785 119.691 30.5363 120.304 30.6044 121.412C30.6896 122.673 30.2978 123.439 29.2755 124.019C28.5941 124.41 28.3044 124.444 26.277 124.496L24.0111 124.564V121.633V118.703L26.3622 118.771C28.3215 118.805 28.7815 118.873 29.2755 119.163Z" fill="#E3E4E6" fill-opacity="0.55"/>
<path d="M132.145 119.759C131.804 119.844 131.123 120.117 130.663 120.356L129.811 120.782L129.641 120.356C129.487 119.947 129.419 119.93 128.124 119.93C127.375 119.93 126.659 119.981 126.506 120.032C126.267 120.117 126.233 120.901 126.233 127.085C126.233 131.191 126.301 134.224 126.404 134.479C126.557 134.905 126.625 134.922 128.005 134.922C128.789 134.922 129.556 134.871 129.709 134.82C129.947 134.735 129.981 134.139 129.981 130.05C129.981 124.973 130.033 124.632 130.936 123.797C131.481 123.286 132.844 122.911 133.576 123.064C134.292 123.201 135.041 123.763 135.399 124.41C135.655 124.887 135.706 125.637 135.774 129.811L135.859 134.667H137.648H139.437V129.215V123.763L138.994 122.826C138.006 120.73 136.541 119.759 134.207 119.657C133.423 119.623 132.503 119.674 132.145 119.759Z" fill="#E3E4E6" fill-opacity="0.55"/>
<path d="M146.678 119.896C144.923 120.475 142.93 122.042 142.93 122.826C142.93 123.064 143.27 123.269 144.344 123.644C145.587 124.104 145.775 124.138 146.081 123.916C147.444 122.928 149.353 122.639 150.392 123.269C151.056 123.644 151.619 124.734 151.619 125.603V126.233H149.438C146.797 126.233 145.656 126.438 144.344 127.17C143.066 127.869 142.436 128.84 142.299 130.288C142.112 132.367 143.168 133.968 145.247 134.752C146.099 135.076 146.49 135.11 147.785 135.042C149.54 134.939 150.307 134.752 151.159 134.173C151.823 133.713 151.959 133.747 151.959 134.36C151.959 134.769 151.976 134.769 153.629 134.718L155.281 134.667V129.3V123.933L154.787 122.877C154.225 121.65 153.169 120.577 151.993 120.049C150.852 119.555 147.99 119.47 146.678 119.896ZM151.499 129.266C151.653 129.504 151.124 130.697 150.664 131.191C149.625 132.282 147.41 132.452 146.473 131.515C145.639 130.68 145.996 129.59 147.189 129.3C147.956 129.13 151.397 129.096 151.499 129.266Z" fill="#E3E4E6" fill-opacity="0.55"/>
<path d="M161.687 119.861C160.529 120.287 159.677 120.884 159.166 121.667C158.791 122.23 158.689 122.604 158.638 123.61C158.553 125.126 158.774 125.859 159.592 126.693C160.222 127.341 160.495 127.477 163.851 129.061C165.18 129.675 165.623 129.964 165.691 130.271C165.93 131.174 165.129 131.77 163.732 131.77C162.965 131.77 162.573 131.651 161.773 131.208C161.142 130.833 160.648 130.663 160.41 130.731C159.575 130.936 157.752 131.873 157.752 132.094C157.752 132.401 159.03 133.559 159.984 134.121C161.721 135.144 164.481 135.331 166.458 134.599C168.485 133.832 169.78 131.651 169.371 129.675C168.979 127.818 168.213 127.136 164.822 125.654C162.147 124.479 161.67 123.933 162.658 123.167C163.05 122.843 163.272 122.809 164.141 122.877C164.72 122.911 165.418 123.081 165.725 123.235C166.27 123.507 166.304 123.507 167.718 122.894C168.519 122.553 169.167 122.179 169.167 122.059C169.167 121.719 167.804 120.543 166.867 120.1C165.759 119.555 162.88 119.419 161.687 119.861Z" fill="#E3E4E6" fill-opacity="0.55"/>
<path d="M88.0193 120.083C85.8726 120.799 84.8674 121.974 84.697 123.933C84.6289 124.887 84.68 125.16 85.0719 125.978C85.6681 127.187 86.1622 127.545 88.9222 128.789C91.4948 129.947 91.8185 130.186 91.8185 130.85C91.8185 131.6 91.137 132.026 89.8933 132.026C89.0415 132.026 88.6837 131.924 87.8148 131.447L86.7585 130.867L85.4126 131.447C84.68 131.77 83.9985 132.111 83.8963 132.213C83.777 132.333 84.0496 132.707 84.7822 133.389C87.457 135.927 92.0911 136.064 94.3911 133.696C96.0607 131.975 95.9074 128.874 94.0844 127.494C93.7437 127.239 92.4659 126.574 91.2393 126.029C88.7859 124.921 88.4111 124.666 88.4111 124.087C88.4111 123.133 90.3704 122.758 91.7163 123.456L92.3807 123.797L93.7948 123.184C94.7489 122.775 95.2259 122.485 95.2259 122.281C95.2259 121.838 93.7607 120.662 92.6874 120.253C91.3244 119.742 89.297 119.657 88.0193 120.083Z" fill="#E3E4E6" fill-opacity="0.55"/>
<path d="M40.52 120.236C40.0089 120.407 39.1741 120.782 38.68 121.037C37.777 121.531 36.4481 122.86 36.4481 123.252C36.4481 123.49 36.4822 123.507 38.1859 124.121L39.3104 124.53L40.1622 124.002C41.3378 123.286 42.8711 123.133 43.8933 123.644C44.6941 124.053 45.137 124.853 45.137 125.859V126.523L42.5815 126.642C41.1844 126.71 39.6681 126.864 39.2252 127C36.7037 127.75 35.477 129.624 35.937 132.043C36.5163 135.076 40.7415 136.541 44.1148 134.888C44.7281 134.582 45.2733 134.309 45.3415 134.275C45.4096 134.241 45.4778 134.428 45.5118 134.701L45.563 135.178H47.1304C48.1185 135.178 48.783 135.093 48.9022 134.973C49.0555 134.82 49.0726 133.508 48.9533 129.436C48.8 124.104 48.8 124.104 48.323 123.133C47.3518 121.156 45.5459 120.1 42.9222 119.998C41.8489 119.947 41.2355 120.015 40.52 120.236ZM45.137 129.896C45.137 130.271 44.5578 131.379 44.1659 131.719C43.2118 132.588 41.3207 132.81 40.3496 132.145C39.8726 131.822 39.7533 131.634 39.7193 131.055C39.6681 130.476 39.7363 130.305 40.1281 129.999C40.537 129.675 40.7926 129.641 42.8541 129.641C44.7963 129.641 45.137 129.675 45.137 129.896Z" fill="#E3E4E6" fill-opacity="0.55"/>
<path d="M120.321 120.134C120.219 120.253 119.913 120.969 119.623 121.719C118.703 124.07 116.727 128.908 116.505 129.317C116.301 129.692 116.284 129.692 115.926 128.874C115.721 128.397 114.853 126.233 113.967 124.053L112.382 120.1H110.542C109.503 120.1 108.668 120.168 108.6 120.27C108.515 120.407 111.19 126.881 113.796 132.878C114.256 133.917 114.273 134.002 114.035 134.581C113.66 135.484 112.996 136.404 112.519 136.728C112.28 136.881 111.65 137.052 111.121 137.12L110.15 137.222L109.673 138.483C109.401 139.181 109.213 139.88 109.23 140.016C109.299 140.34 109.963 140.493 111.445 140.527C113.132 140.561 114.324 140.067 115.5 138.858C116.556 137.784 116.539 137.836 121.003 127.596C124.41 119.776 124.189 120.339 123.967 120.117C123.695 119.844 120.526 119.861 120.321 120.134Z" fill="#E3E4E6" fill-opacity="0.55"/>
<path d="M63.6392 120.867C62.9067 121.19 62.1911 121.548 62.0718 121.65C61.8844 121.804 61.8333 122.673 61.8333 125.978C61.8333 129.981 61.8163 130.118 61.4585 130.663C60.5555 131.992 59.1244 132.367 57.7615 131.651C56.8244 131.174 56.3815 130.595 56.1941 129.624C56.1259 129.215 56.0578 126.983 56.0407 124.649C56.0407 120.611 56.0237 120.441 55.717 120.441C55.3252 120.441 52.6163 121.633 52.4118 121.889C52.2244 122.127 52.4289 129.317 52.6504 130.493C53.0252 132.418 54.2348 133.917 56.1941 134.871C57.0629 135.297 57.3185 135.348 59.0222 135.348C60.7259 135.348 60.9985 135.297 61.9696 134.854C63.3496 134.224 64.7296 132.759 65.2237 131.43C65.5644 130.527 65.5815 130.186 65.5474 125.416C65.4963 121.071 65.4622 120.356 65.2407 120.321C65.1044 120.287 64.3889 120.543 63.6392 120.867Z" fill="#E3E4E6" fill-opacity="0.55"/>
<path d="M47.6415 146.286L12.92 146.337L12.9711 148.092L13.0222 149.83H20.9444C25.3059 149.813 61.203 149.796 100.729 149.779L172.574 149.744V147.956V146.167L127.477 146.201C102.654 146.235 66.74 146.269 47.6415 146.286Z" fill="#E3E4E6" fill-opacity="0.55"/>
</svg>
