<svg width="241" height="85" viewBox="0 0 241 85" fill="none" xmlns="http://www.w3.org/2000/svg">
<path d="M37.0982 11.8375C36.9486 11.8873 36.7492 11.994 36.6495 12.0794C36.3148 12.3425 12.0228 41.0704 11.8875 41.362C11.5314 42.1302 11.9018 43.1259 12.7065 43.5527L12.9985 43.7092L21.8151 43.7305C26.665 43.7376 30.6246 43.7732 30.6104 43.8088C30.5961 43.8372 29.4068 45.2668 27.954 46.9739C26.5083 48.688 25.2762 50.1674 25.2264 50.267C25.1694 50.3666 25.1124 50.6155 25.0911 50.8289C25.0199 51.5046 25.3973 52.1803 26.024 52.5146L26.316 52.6711L43.6929 52.6924C62.7789 52.7066 61.4899 52.7351 62.0454 52.2799C62.1878 52.1661 62.3872 51.9029 62.4869 51.6966C62.8573 50.9569 63.1706 51.9811 57.8222 36.4543C55.1516 28.7087 52.9083 22.2006 52.83 21.9872C52.5593 21.2689 51.9682 20.7923 51.2347 20.7212C50.7362 20.6714 50.2875 20.7994 49.9386 21.0982C49.789 21.2262 48.4929 22.7127 47.0685 24.3984C45.6442 26.0841 44.462 27.4213 44.4478 27.3715C44.17 26.5038 39.4341 12.8191 39.3558 12.6839C38.9712 11.9371 37.9101 11.5459 37.0982 11.8375Z" fill="#E3E4E6" fill-opacity="0.55"/>
<path d="M143.446 11.8304C143.104 11.9584 142.741 12.2785 142.556 12.6128L142.399 12.9115L142.378 28.8438C142.371 39.4345 142.385 44.9041 142.435 45.1673C142.641 46.2768 143.816 47.8914 145.376 49.2001C147.285 50.7933 149.898 52.0949 152.583 52.7778C154.456 53.2543 154.962 53.3112 157.248 53.3041C158.985 53.3041 159.427 53.2827 160.303 53.1476C164.384 52.5075 167.417 50.8645 169.789 48.0123C171.819 45.5727 173.022 42.7276 173.35 39.6265C173.485 38.3534 173.4 36.1769 173.172 34.9891C171.897 28.2677 166.855 23.4026 160.239 22.5136C159.349 22.3927 157.034 22.3784 156.051 22.4851C153.908 22.7127 151.707 23.4667 149.791 24.626L149.129 25.0243V19.0426V13.0538L148.958 12.691C148.766 12.2785 148.388 11.9371 147.997 11.8162C147.619 11.7095 143.766 11.7166 143.446 11.8304ZM158.886 28.7727C162.454 29.3559 165.423 32.1085 166.335 35.6932C167.645 40.8499 164.127 46.0848 158.75 46.981C157.803 47.1446 155.987 47.0948 154.962 46.8814C152.896 46.4617 151.08 45.4873 149.685 44.0435L149.129 43.4744V38.2822V33.0829L149.549 32.521C150.112 31.7813 151.18 30.7713 151.921 30.2805C153.039 29.5408 154.363 29.0003 155.645 28.7798C156.422 28.6446 158.052 28.6375 158.886 28.7727Z" fill="#E3E4E6" fill-opacity="0.55"/>
<path d="M121.034 22.5207C115.031 23.3315 110.33 27.1439 108.479 32.6846C107.909 34.3774 107.667 35.9706 107.667 37.9124C107.674 39.8043 107.895 41.234 108.436 42.8912C110.352 48.7307 115.693 52.607 122.743 53.2827C124.004 53.4037 126.824 53.3254 128.085 53.1334C130.477 52.7706 132.571 52.0807 134.494 51.0209C135.47 50.4804 136.36 49.8971 136.68 49.5913C137.165 49.129 137.293 48.3395 136.987 47.7064C136.83 47.365 134.601 45.2668 134.209 45.089C134.038 45.0108 133.761 44.9539 133.518 44.9539C133.184 44.9539 133.034 44.9965 132.593 45.2384C128.626 47.4219 124.937 47.9625 121.226 46.9027C120.407 46.668 119.047 45.9994 118.278 45.4517C117.488 44.8898 116.483 43.8514 115.985 43.0904C115.522 42.372 115.372 42.0804 115.13 41.4189L114.952 40.8997L126.297 40.8854L137.642 40.8641L137.991 40.6507C138.674 40.224 138.874 39.5981 138.874 37.8341C138.881 29.9605 133.219 23.5307 125.393 22.5136C124.353 22.3784 122.031 22.3855 121.034 22.5207ZM124.602 28.3175C127.921 28.7798 130.67 31.2621 131.61 34.6477L131.745 35.1385H123.306H114.86L114.909 34.9037C114.938 34.7828 115.059 34.3845 115.173 34.036C116.22 30.9136 118.705 28.7727 121.839 28.3175C122.437 28.225 123.968 28.225 124.602 28.3175Z" fill="#E3E4E6" fill-opacity="0.55"/>
<path d="M189.402 22.4851C188.106 22.6416 186.475 23.0399 185.428 23.4453C181.817 24.8678 179.076 27.3644 177.402 30.7642C176.633 32.3147 176.163 33.8582 175.892 35.6719C175.75 36.6392 175.771 39.2424 175.928 40.2595C176.448 43.6238 177.758 46.2484 180.03 48.5102C182.501 50.964 185.763 52.543 189.623 53.1405C191.019 53.3539 193.746 53.4037 195.277 53.2472C197.863 52.9698 200.07 52.3368 202.15 51.2556C203.325 50.6511 204.436 49.954 204.792 49.5984C205.369 49.0365 205.447 48.1048 204.977 47.4931C204.657 47.0805 202.691 45.2882 202.378 45.1175C201.922 44.8756 201.331 44.897 200.832 45.1672C198.589 46.3764 197.15 46.9098 195.263 47.2299C191.339 47.8914 187.65 46.8743 185.236 44.456C184.858 44.0861 184.367 43.5029 184.139 43.1544C183.747 42.564 183.235 41.5185 183.135 41.0917L183.085 40.8997H194.238C202.143 40.8997 205.49 40.8783 205.711 40.8214C206.081 40.729 206.558 40.3449 206.736 39.9821C206.928 39.6052 206.971 39.1713 206.964 37.7346C206.957 35.1954 206.48 33.1398 205.39 30.9064C204.877 29.8467 204.244 28.8438 203.553 28.0045C202.983 27.3146 201.637 26.0201 200.961 25.5151C198.746 23.865 196.032 22.7981 193.248 22.478C192.493 22.3926 190.121 22.3998 189.402 22.4851ZM192.899 28.3459C195.569 28.8011 197.699 30.3588 198.974 32.7913C199.287 33.3887 199.835 34.8326 199.835 35.0602C199.835 35.1171 197.592 35.1385 191.403 35.1385H182.964L183.107 34.6477C184.104 31.0416 186.66 28.7442 190.185 28.289C190.755 28.2179 192.322 28.2463 192.899 28.3459Z" fill="#E3E4E6" fill-opacity="0.55"/>
<path d="M225.794 22.478C222.076 22.7554 218.473 23.6658 215.04 25.1737C213.416 25.8921 211.294 27.1012 210.895 27.5351C210.496 27.9761 210.518 27.2292 210.518 39.8328C210.518 49.3993 210.532 51.469 210.61 51.6611C210.753 51.9954 211.066 52.3368 211.401 52.5146C211.686 52.664 211.757 52.6711 213.936 52.6711C216.115 52.6711 216.187 52.664 216.472 52.5146C216.806 52.3368 217.12 51.9954 217.262 51.6611C217.34 51.469 217.355 49.6767 217.355 41.5398V31.6533L217.661 31.4613C217.825 31.3617 218.252 31.1341 218.608 30.9705C221.037 29.8467 224.006 29.1425 226.933 28.9861C228.009 28.9292 228.315 28.8509 228.685 28.538C229.226 28.0757 229.248 27.9761 229.248 25.7569C229.248 24.498 229.219 23.7156 229.169 23.5378C229.055 23.1751 228.728 22.791 228.372 22.606C228.023 22.4211 227.118 22.3784 225.794 22.478Z" fill="#E3E4E6" fill-opacity="0.55"/>
<path d="M61.9955 23.1822C61.6466 23.3386 61.3475 23.6303 61.1552 24.0072C60.8347 24.6403 60.6139 23.929 65.5065 38.1258C67.9777 45.3024 70.0644 51.3624 70.1498 51.5828C70.3279 52.0594 70.7694 52.4933 71.2039 52.6213C71.5955 52.7422 77.0365 52.7422 77.4211 52.6213C77.7415 52.5288 78.2258 52.1376 78.3682 51.8602C78.4252 51.7607 79.7356 47.6282 81.2952 42.6779C82.8549 37.7275 84.1439 33.6448 84.1724 33.595C84.1938 33.5524 85.3332 37.0589 86.7006 41.3834C90.4252 53.1547 89.9766 51.8318 90.3682 52.2088C90.5605 52.3937 90.8169 52.5715 90.9878 52.6213C91.4009 52.7422 96.8276 52.7422 97.2407 52.6213C97.4116 52.5644 97.6679 52.4008 97.8602 52.2088C98.1237 51.9456 98.2234 51.7749 98.4086 51.2486C98.5297 50.8929 100.602 44.8614 103.016 37.8413C107.802 23.9432 107.588 24.6331 107.268 24.0001C107.076 23.6231 106.62 23.2177 106.278 23.1253C106.114 23.0755 105.153 23.047 103.835 23.047C101.806 23.047 101.642 23.0613 101.343 23.1964C100.951 23.3742 100.73 23.5734 100.559 23.9005C100.467 24.0784 95.6098 39.5696 94.2282 44.0933L94.1142 44.4845L90.8383 34.2281C88.3172 26.3117 87.5267 23.9005 87.37 23.6872C87.2561 23.5307 87.0068 23.3315 86.8003 23.232L86.43 23.047H84.208H81.986L81.6086 23.2462C81.3807 23.3671 81.1457 23.5591 81.0317 23.7227C80.8893 23.929 79.9208 26.8736 77.6205 34.1071C75.8543 39.6621 74.3872 44.2355 74.3659 44.2711C74.3516 44.2995 72.8988 39.7617 71.1398 34.1712C68.7682 26.6247 67.8994 23.9432 67.7498 23.7298C67.6217 23.5449 67.408 23.3671 67.1659 23.2391L66.7742 23.047H64.5309C62.5012 23.047 62.2519 23.0613 61.9955 23.1822Z" fill="#E3E4E6" fill-opacity="0.55"/>
<path d="M135.334 63.973C134.309 64.1722 133.497 64.727 133.169 65.4596C133.034 65.7583 132.998 65.9503 133.006 66.434C133.006 67.2235 133.191 67.6503 133.718 68.1339C134.195 68.5678 134.708 68.8096 136.032 69.2293C136.602 69.4142 137.172 69.6347 137.307 69.72C138.098 70.2535 138.048 71.1283 137.2 71.5551C136.887 71.7116 136.752 71.7329 136.096 71.7329C135.235 71.7329 134.815 71.6049 134.138 71.1568C133.347 70.6233 133.319 70.6162 133.141 70.6589C132.913 70.7158 132.536 71.299 132.536 71.5978C132.536 71.7685 132.6 71.8823 132.806 72.0601C133.226 72.4442 133.753 72.75 134.394 72.9918C134.9 73.1768 135.121 73.2194 135.812 73.2408C137.172 73.2977 138.105 72.9847 138.788 72.2379C139.223 71.7614 139.38 71.3275 139.38 70.6376C139.38 70.0757 139.337 69.8481 139.152 69.4853C138.767 68.7243 138.233 68.3757 136.481 67.7854C135.299 67.38 135.107 67.2946 134.836 67.0315C134.565 66.7754 134.53 66.7043 134.53 66.4269C134.53 65.801 134.978 65.5023 135.982 65.4525C136.73 65.4169 137.25 65.5094 137.834 65.801C138.482 66.121 138.653 66.0784 138.909 65.5734C139.116 65.168 139.137 64.8621 138.966 64.7127C138.297 64.1224 136.481 63.7597 135.334 63.973Z" fill="#E3E4E6" fill-opacity="0.55"/>
<path d="M181.347 63.9517C180.322 64.0726 179.247 64.5918 178.513 65.3244C176.263 67.5649 176.854 71.2421 179.695 72.7286C180.699 73.2621 182.06 73.4115 183.199 73.1198C183.826 72.9634 184.737 72.5082 185.143 72.1668L185.414 71.9249V70.2108C185.414 68.0485 185.499 68.1908 184.161 68.1481C182.658 68.1126 182.458 68.1979 182.458 68.9163C182.458 69.5564 182.565 69.6489 183.342 69.6916L183.961 69.7271L183.94 70.4811L183.918 71.235L183.448 71.4626C181.454 72.4441 179.076 71.2492 178.67 69.0657C178.492 68.141 178.841 67.1239 179.574 66.3913C180.778 65.1822 182.53 65.047 184.011 66.0428C184.282 66.2206 184.566 66.3629 184.659 66.3629C184.858 66.3629 185.371 65.8294 185.385 65.616C185.407 65.3315 185.364 65.2533 185.072 64.9901C184.217 64.2362 182.658 63.7952 181.347 63.9517Z" fill="#E3E4E6" fill-opacity="0.55"/>
<path d="M191.346 63.9446C189.423 64.1722 187.757 65.5947 187.258 67.4297C187.073 68.1268 187.088 69.1723 187.294 69.848C187.558 70.7015 187.842 71.1781 188.512 71.8396C189.488 72.8211 190.542 73.2621 191.937 73.2621C194.202 73.2621 196.082 71.8253 196.631 69.6773C197.428 66.5264 194.686 63.5534 191.346 63.9446ZM192.5 65.4453C193.177 65.552 193.81 65.8863 194.323 66.3913C195.897 67.9703 195.427 70.4882 193.376 71.4697C192.828 71.7329 192.813 71.7329 191.923 71.7329C191.04 71.7329 191.026 71.7329 190.499 71.4697C189.309 70.8794 188.647 69.8623 188.647 68.6033C188.647 67.8921 188.79 67.4226 189.16 66.8678C189.644 66.1424 190.356 65.6658 191.239 65.4738C191.795 65.3529 191.93 65.3529 192.5 65.4453Z" fill="#E3E4E6" fill-opacity="0.55"/>
<path d="M144.123 64.0299C143.945 64.165 140.156 72.565 140.156 72.8211C140.156 73.1341 140.377 73.2621 140.904 73.2621C141.146 73.2621 141.395 73.2194 141.459 73.1696C141.523 73.1269 141.794 72.6006 142.064 72.0174L142.556 70.9505H144.707H146.864L147.349 72.0174C147.619 72.6006 147.897 73.1198 147.961 73.1696C148.032 73.2194 148.282 73.2621 148.524 73.2621C149.051 73.2621 149.272 73.1341 149.272 72.8282C149.272 72.6077 145.504 64.2931 145.305 64.0655C145.169 63.9161 144.315 63.8948 144.123 64.0299ZM145.433 67.828C145.825 68.6744 146.138 69.3786 146.138 69.3928C146.138 69.407 145.49 69.4213 144.707 69.4213C143.375 69.4213 143.275 69.4142 143.311 69.2932C143.375 69.0514 144.671 66.2277 144.699 66.2562C144.721 66.2775 145.048 66.9816 145.433 67.828Z" fill="#E3E4E6" fill-opacity="0.55"/>
<path d="M150.867 64.0939C150.739 64.2362 150.731 64.414 150.731 68.6033C150.731 73.6817 150.667 73.2621 151.479 73.2621C152.291 73.2621 152.227 73.6817 152.227 68.6033C152.227 63.5249 152.291 63.9445 151.479 63.9445C151.088 63.9445 150.981 63.973 150.867 64.0939Z" fill="#E3E4E6" fill-opacity="0.55"/>
<path d="M155.161 64.0726C155.054 64.1935 155.04 64.6131 155.04 68.6247V73.0416L155.197 73.1483C155.296 73.2194 155.51 73.2621 155.795 73.2621C156.543 73.2621 156.493 73.4755 156.536 69.8694L156.571 66.7825L158.779 69.784C159.997 71.4413 161.079 72.8993 161.193 73.0274C161.385 73.2479 161.421 73.2621 161.884 73.2621C162.731 73.2621 162.66 73.7031 162.66 68.582C162.66 63.5036 162.731 63.9446 161.934 63.9446C161.158 63.9446 161.207 63.717 161.165 67.3231L161.129 70.4028L158.85 67.3017C157.597 65.6018 156.514 64.1437 156.45 64.0726C156.265 63.8877 155.325 63.8877 155.161 64.0726Z" fill="#E3E4E6" fill-opacity="0.55"/>
<path d="M164.398 64.0015C164.17 64.1509 164.07 64.855 164.227 65.1537C164.341 65.3671 164.754 65.4382 165.922 65.4382H167.004V69.2079C167.004 73.5893 166.947 73.2621 167.738 73.2621C168.115 73.2621 168.215 73.2337 168.343 73.0985L168.5 72.9349V69.1937V65.4525L169.753 65.424L171.007 65.4027L171.178 65.2035C171.406 64.9404 171.42 64.4069 171.199 64.1295L171.057 63.9446H167.766C165.958 63.9446 164.441 63.973 164.398 64.0015Z" fill="#E3E4E6" fill-opacity="0.55"/>
<path d="M198.603 64.0726C198.496 64.1935 198.482 64.606 198.482 68.5891C198.482 72.8851 198.482 72.9776 198.625 73.1198C198.76 73.255 198.86 73.2621 200.925 73.2621C203.247 73.2621 203.709 73.2123 204.429 72.878C204.942 72.6433 205.419 72.1952 205.654 71.7044C205.832 71.3417 205.853 71.235 205.853 70.5237C205.853 69.8409 205.832 69.6987 205.675 69.3857C205.582 69.1866 205.34 68.8665 205.141 68.6744L204.771 68.3117L205.006 68.013C205.369 67.5364 205.483 67.1026 205.447 66.3344C205.426 65.8152 205.383 65.616 205.234 65.3244C205.02 64.919 204.614 64.5207 204.187 64.3002C203.553 63.9801 203.211 63.9446 200.896 63.9446C198.874 63.9446 198.71 63.9517 198.603 64.0726ZM203.503 65.6516C203.866 65.8721 203.987 66.1566 203.952 66.6687C203.923 67.0457 203.895 67.1239 203.667 67.3231C203.318 67.6502 202.912 67.7142 201.331 67.7142H199.978V66.5762V65.4453L201.103 65.424C202.57 65.3955 203.182 65.4524 203.503 65.6516ZM203.695 69.4426C204.201 69.6916 204.393 69.9761 204.393 70.4597C204.393 70.9789 204.208 71.2634 203.717 71.5195L203.304 71.7329L201.637 71.7542L199.978 71.7755V70.4882V69.1937L201.637 69.2221C203.282 69.2435 203.289 69.2435 203.695 69.4426Z" fill="#E3E4E6" fill-opacity="0.55"/>
<path d="M210.625 64.1081C210.39 64.4709 206.736 72.6006 206.729 72.7855C206.715 73.1269 206.914 73.2621 207.455 73.2621C207.719 73.2621 207.975 73.2265 208.047 73.1696C208.111 73.1269 208.381 72.6006 208.652 72.0174L209.136 70.9505L211.28 70.9291L213.416 70.9149L213.901 71.9605C214.164 72.5437 214.428 73.07 214.492 73.1341C214.577 73.2336 214.712 73.2621 215.09 73.2621C215.631 73.2621 215.859 73.1269 215.859 72.8069C215.859 72.6219 212.063 64.2717 211.885 64.0655C211.8 63.973 211.664 63.9446 211.258 63.9446C210.788 63.9446 210.724 63.9588 210.625 64.1081ZM212.013 67.8209C212.405 68.6744 212.725 69.3857 212.725 69.3999C212.725 69.4142 212.085 69.4213 211.301 69.4213C210.404 69.4213 209.877 69.3928 209.877 69.3501C209.877 69.2506 211.251 66.2135 211.28 66.2419C211.294 66.2562 211.622 66.9674 212.013 67.8209Z" fill="#E3E4E6" fill-opacity="0.55"/>
<path d="M217.433 64.1366C217.283 64.3215 217.283 64.35 217.298 68.646C217.319 73.6462 217.262 73.2621 218.024 73.2621C218.309 73.2621 218.523 73.2194 218.622 73.1483L218.779 73.0416V68.6105C218.779 63.4965 218.85 63.9446 218.045 63.9446C217.625 63.9446 217.561 63.9659 217.433 64.1366Z" fill="#E3E4E6" fill-opacity="0.55"/>
<path d="M221.727 64.094C221.599 64.2362 221.592 64.414 221.592 68.6034C221.592 73.6818 221.528 73.2621 222.34 73.2621C223.137 73.2621 223.087 73.4897 223.102 69.9121C223.116 68.2335 223.144 66.8608 223.166 66.8537C223.187 66.8537 224.248 68.2691 225.516 70.0045C226.791 71.7329 227.866 73.1768 227.916 73.2052C227.966 73.2337 228.215 73.2621 228.486 73.2621C229.319 73.2621 229.248 73.696 229.248 68.6176C229.248 64.791 229.233 64.2433 229.134 64.1011C229.041 63.9659 228.963 63.9446 228.543 63.9446C227.738 63.9446 227.795 63.7099 227.752 67.3302L227.717 70.4171L225.402 67.2804C224.134 65.552 223.045 64.094 222.995 64.0371C222.931 63.9802 222.717 63.9446 222.382 63.9446C221.948 63.9446 221.841 63.9659 221.727 64.094Z" fill="#E3E4E6" fill-opacity="0.55"/>
<path d="M171.491 68.6389C171.313 68.8167 171.292 69.4498 171.463 69.6916C171.569 69.8481 171.598 69.8481 173.158 69.8481C175.023 69.8481 174.981 69.8623 174.981 69.1581C174.981 68.4896 175.009 68.4967 173.179 68.4967C171.726 68.4967 171.626 68.5038 171.491 68.6389Z" fill="#E3E4E6" fill-opacity="0.55"/>
</svg>
