<svg width="98" height="27" viewBox="0 0 98 27" fill="none" xmlns="http://www.w3.org/2000/svg">
<g clip-path="url(#clip0_149_256)">
<path d="M5.90112 0.284624C5.8775 0.361547 4.70437 6.08462 3.29503 13C1.8857 19.9154 0.712567 25.6385 0.688947 25.7077C0.64958 25.8385 0.814921 25.8462 3.39739 25.8462H6.1452L6.31841 25.0231C6.41289 24.5615 6.90892 22.1308 7.42068 19.6154L8.34974 15.0385L13.4674 15.0154C18.3253 15 18.593 15.0077 18.5615 15.1308C18.5458 15.2077 18.3883 15.9769 18.2151 16.8462C18.034 17.7154 17.5537 20.0385 17.1443 22.0077C16.7349 23.9846 16.4042 25.6539 16.4042 25.7231C16.4042 25.8308 16.6798 25.8462 19.1048 25.8462H21.8053L24.4193 13.0692C25.8523 6.03847 27.0096 0.253855 26.986 0.223085C26.9624 0.184624 25.7578 0.153854 24.3091 0.153854H21.6794L21.6006 0.323086C21.5613 0.423086 21.2306 2.0077 20.8605 3.84616C20.4905 5.68462 20.0417 7.90001 19.8685 8.76155C19.6953 9.63078 19.5536 10.3462 19.5536 10.3615C19.5536 10.3769 17.2545 10.3846 14.4359 10.3846C11.6251 10.3846 9.31817 10.3692 9.31817 10.3539C9.31817 10.3308 9.7827 8.07693 10.3417 5.33847C10.9086 2.60001 11.3652 0.307701 11.3652 0.253855C11.3652 0.176931 10.8456 0.153854 8.6568 0.153854C6.13732 0.153854 5.94049 0.161547 5.90112 0.284624Z" fill="#E3E4E6" fill-opacity="0.55"/>
<path d="M30.7889 0.207691C30.7653 0.246153 31.0645 1.06154 31.4581 2.03846C32.2061 3.92308 35.3397 11.8308 35.694 12.7308C35.8121 13.0231 36.1113 13.7769 36.3554 14.4L36.812 15.5308L36.6546 16.0154C36.442 16.6538 36.2688 17.4538 36.2058 18.0769C36.1743 18.3538 35.82 20.2 35.4106 22.1846C35.0012 24.1692 34.6705 25.8077 34.6705 25.8154C34.6705 25.8308 35.8909 25.8462 37.3868 25.8462H40.111L40.4968 26.0385C42.7249 27.1462 46.2207 27.2462 49.3071 26.3C50.2913 26 51.7872 25.2692 52.5903 24.7077C53.4957 24.0615 53.48 24.0692 53.354 24.6769C53.2989 24.9615 53.228 25.3385 53.2044 25.5154L53.1493 25.8462H55.8735H58.6055L58.637 25.6692C58.7315 25.2462 59.1173 23.3615 59.6291 20.8077C59.9361 19.2846 60.2038 17.9846 60.2275 17.9154C60.259 17.8 60.5896 17.7846 63.2745 17.7462C65.9199 17.7077 66.3844 17.6846 67.1324 17.5385C71.3525 16.7231 74.5649 13.8923 75.5805 10.0846C76.8167 5.45385 74.4546 1.34615 69.9826 0.36923C69.3212 0.223076 68.9433 0.207691 63.865 0.176924L58.4481 0.138462L58.3693 0.323076C58.33 0.423077 57.7788 3.04615 57.149 6.15385C56.5191 9.26154 55.9758 11.8923 55.9443 11.9846C55.8892 12.1538 55.8656 12.1462 55.5349 11.7385C54.8814 10.9385 53.6217 10.0769 52.5588 9.69231C51.1495 9.19231 49.1496 9.05385 47.7403 9.35385L47.071 9.5L48.0473 8.30769C48.5827 7.65385 49.063 7.13077 49.1103 7.13846C49.1575 7.15385 49.1732 7.13846 49.1417 7.10769C49.0709 7.04615 49.2992 6.72308 49.7874 6.18462C49.9842 5.97692 50.5904 5.23846 51.1416 4.56154C51.6927 3.87692 52.1887 3.27692 52.2517 3.21539C52.3934 3.06923 54.6295 0.361538 54.7003 0.246153C54.7476 0.176924 54.102 0.153847 51.5825 0.153847L48.4095 0.161539L47.2679 1.54615C46.638 2.31538 45.6538 3.51538 45.0791 4.22308C44.5122 4.92308 43.8666 5.69231 43.6619 5.92308C43.4493 6.15385 42.8116 6.93077 42.2289 7.65385C41.6463 8.36923 41.1345 9 41.0952 9.04615C41.0479 9.1 40.8117 9.38462 40.5755 9.68462C40.1818 10.1923 40.1425 10.2154 40.0795 10.0538C40.048 9.96154 39.5756 8.76154 39.0402 7.38462C38.5048 6.00769 37.7647 4.10769 37.4025 3.15385C37.0325 2.2 36.6152 1.13846 36.4814 0.784615L36.2294 0.153847H33.5288C32.0408 0.153847 30.8047 0.176924 30.7889 0.207691ZM68.3449 5.12308C68.6283 5.2 69.022 5.36154 69.2189 5.49231C71.384 6.91538 70.4314 11.0308 67.6206 12.4077C66.7072 12.8538 66.5577 12.8692 63.7941 12.9077L61.2274 12.9385L61.9596 9.36923C62.369 7.40769 62.7391 5.62308 62.7863 5.4L62.865 5H65.3451C67.3844 5 67.9119 5.02308 68.3449 5.12308ZM49 13.5077C50.1968 13.8538 50.9605 14.6 51.2518 15.6923C51.425 16.3615 51.3699 17.5385 51.1337 18.2308C50.6849 19.5077 49.6929 20.6385 48.4725 21.2538C47.5356 21.7231 47.071 21.8462 46.0475 21.9C44.9846 21.9538 44.4177 21.8538 43.6776 21.5C42.7958 21.0769 42.2368 20.3692 42.0321 19.4154C41.8746 18.6923 41.8825 18.1538 42.0715 17.4077C42.4336 15.9231 43.3312 14.7923 44.7484 14.0231C45.2759 13.7385 46.1262 13.4615 46.7167 13.3769C47.3309 13.2923 48.4883 13.3538 49 13.5077Z" fill="#E3E4E6" fill-opacity="0.55"/>
<path d="M81.5958 0.169239C81.5879 0.184624 80.4069 5.95385 78.9661 13L76.3442 25.8077L84.3751 25.8308C88.792 25.8385 92.4217 25.8385 92.4374 25.8231C92.461 25.7923 93.4058 21.2462 93.4058 21.1385C93.4058 21.1077 91.0123 21.0769 88.0913 21.0769C85.1703 21.0769 82.7768 21.0615 82.7768 21.0462C82.7768 21.0308 83.0445 19.7385 83.3673 18.1846C83.6901 16.6308 83.9578 15.3231 83.9578 15.2923C83.9578 15.2615 86.0521 15.2231 88.6188 15.2154L93.2799 15.1923L93.7365 12.9615C93.9806 11.7308 94.1696 10.6846 94.1538 10.6308C94.1302 10.5615 93.1382 10.5385 89.5479 10.5385C85.5325 10.5385 84.9813 10.5231 84.9813 10.4231C84.9813 10.3308 85.8868 5.8077 86.0442 5.09232L86.0836 4.92309H91.2013H96.319L96.3584 4.74616C96.4765 4.23078 97.2638 0.307701 97.2638 0.23847C97.2638 0.176931 95.012 0.153854 89.4298 0.153854C85.1231 0.153854 81.5958 0.161547 81.5958 0.169239Z" fill="#E3E4E6" fill-opacity="0.55"/>
</g>
<defs>
<clipPath id="clip0_149_256">
<rect width="97" height="27" fill="white" transform="translate(0.5)"/>
</clipPath>
</defs>
</svg>
