<svg width="46" height="68" viewBox="0 0 46 68" fill="none" xmlns="http://www.w3.org/2000/svg">
<g clip-path="url(#clip0_149_226)">
<path d="M0.5 10.9141V21.8283L11.1479 21.8193L21.7915 21.8058L21.8047 10.9007L21.8135 7.62939e-06H11.1567H0.5V10.9141ZM21.5059 10.9141V21.5139H11.1567H0.807617V10.9141V0.314407H11.1567H21.5059V10.9141Z" fill="#E3E4E6" fill-opacity="0.55"/>
<path d="M5.21094 10.9007L5.22412 17.0449L6.19971 17.0584L7.17969 17.0674L7.18848 13.2272L7.20166 9.38705L8.75732 13.2272L10.313 17.0674H11.1787H12.0444L13.6001 13.2272L15.1558 9.38705L15.1689 13.2272L15.1777 17.0674L16.1577 17.0584L17.1333 17.0449L17.1465 10.9007L17.1553 4.76089H16.0698H14.98L13.0947 9.45442C12.0576 12.037 11.1963 14.1479 11.1787 14.1479C11.1611 14.1479 10.2998 12.037 9.2627 9.45442L7.37744 4.76089H6.2876H5.20215L5.21094 10.9007Z" fill="#E3E4E6" fill-opacity="0.55"/>
<path d="M24.1865 10.9141V21.8283H34.8433H45.5V10.9141V7.62939e-06H34.8433H24.1865V10.9141ZM45.1924 10.9141V21.5139H34.8433H24.4941V10.9141V0.314407H34.8433H45.1924V10.9141Z" fill="#E3E4E6" fill-opacity="0.55"/>
<path d="M33.8765 4.83277C33.292 4.93158 32.7647 5.10675 32.2066 5.38971C30.5323 6.2296 29.3853 7.81058 28.9898 9.81375C28.8711 10.4291 28.8843 11.6777 29.0161 12.3065C29.2886 13.6135 29.8379 14.6645 30.6993 15.5403C31.8023 16.6632 33.2393 17.2605 34.8433 17.2605C35.5684 17.2605 36.0957 17.1752 36.7505 16.9506C38.7896 16.2544 40.2486 14.5073 40.6968 12.2301C40.8155 11.6238 40.8023 10.3258 40.6748 9.71943C40.4903 8.83911 40.1827 8.07557 39.7344 7.38839C39.4356 6.92577 38.6314 6.09935 38.1875 5.79393C37.4756 5.30886 36.6275 4.96751 35.7661 4.82828C35.2828 4.74743 34.3511 4.74743 33.8765 4.83277ZM35.6211 6.71018C36.3418 6.85391 36.9659 7.18627 37.5108 7.71626C38.0777 8.27319 38.46 8.94241 38.6753 9.7868C38.7764 10.1596 38.7896 10.3168 38.794 10.9591C38.7984 11.7181 38.7632 11.9741 38.5918 12.5311C38.3853 13.2003 37.9151 13.9683 37.4624 14.3815C36.2715 15.4639 34.5269 15.702 33.0855 14.9699C31.7847 14.3097 30.9585 12.9173 30.8838 11.251C30.7784 8.99631 32.0528 7.15034 34.0127 6.71916C34.4038 6.63383 35.208 6.62934 35.6211 6.71018Z" fill="#E3E4E6" fill-opacity="0.55"/>
<path d="M0.5 35.2127V46.1268L11.1479 46.1178L21.7915 46.1044L21.8047 35.1992L21.8135 24.2986H11.1567H0.5V35.2127ZM21.5059 35.1902V45.8124H11.1567H0.807617V35.1902V24.568H11.1567H21.5059V35.1902Z" fill="#E3E4E6" fill-opacity="0.55"/>
<path d="M5.21094 29.9892L5.22412 30.9234L7.72021 30.9369L10.2119 30.9459V36.1559V41.3659H11.1787H12.1455V36.1559V30.9459L14.6416 30.9369L17.1333 30.9234L17.1465 29.9892L17.1553 29.0595H11.1787H5.20215L5.21094 29.9892Z" fill="#E3E4E6" fill-opacity="0.55"/>
<path d="M24.1865 35.2127V46.1268H34.8433H45.5V35.2127V24.2986H34.8433H24.1865V35.2127ZM45.1924 35.1902V45.8124H34.8433H24.4941V35.1902V24.568H34.8433H45.1924V35.1902Z" fill="#E3E4E6" fill-opacity="0.55"/>
<path d="M33.8545 29.1223C31.9605 29.4682 30.418 30.6404 29.5567 32.3831C29.337 32.8322 29.1041 33.5464 28.9942 34.1123C28.8711 34.7186 28.8843 35.9762 29.0118 36.5871C29.2798 37.8536 29.7676 38.8283 30.5762 39.6951C31.4024 40.5799 32.2681 41.0964 33.4502 41.4019C33.8897 41.5141 33.9864 41.5231 34.8433 41.5231C35.7002 41.5231 35.7969 41.5141 36.2364 41.4019C37.3746 41.1054 38.2623 40.5889 39.0533 39.767C39.8707 38.9136 40.4024 37.8851 40.6749 36.614C40.8155 35.9852 40.8155 34.6198 40.6749 33.991C40.4024 32.7289 39.9102 31.7588 39.106 30.9054C38.2842 30.0296 37.48 29.549 36.3155 29.2301C35.8541 29.1044 35.7354 29.0909 34.9971 29.0774C34.4522 29.0684 34.0743 29.0819 33.8545 29.1223ZM35.6915 31.0177C37.1373 31.3186 38.2579 32.4639 38.6753 34.0674C38.7808 34.4716 38.7896 34.5929 38.7896 35.3025C38.7896 36.0122 38.7808 36.1334 38.6753 36.5377C38.271 38.0872 37.2383 39.1876 35.8453 39.5514C35.2652 39.7041 34.4961 39.7131 33.9292 39.5739C32.334 39.1876 31.1915 37.8536 30.9322 36.0795C30.5762 33.6676 31.8902 31.4713 33.9644 31.0222C34.3819 30.9279 35.2652 30.9279 35.6915 31.0177Z" fill="#E3E4E6" fill-opacity="0.55"/>
<path d="M11.75 51.6333C5.67236 52.8505 0.653809 53.861 0.601074 53.8745L0.5 53.897V58.7028V63.5086L0.59668 63.5311C0.653809 63.5445 5.68994 64.5506 11.7939 65.7723L22.8901 67.991L33.8325 65.7992C39.853 64.5955 44.8892 63.585 45.0298 63.558L45.2803 63.5041V58.7028C45.2803 54.1709 45.2759 53.9015 45.2056 53.879C45.0781 53.8386 22.8857 49.4056 22.8418 49.41C22.8198 49.4145 17.8276 50.4116 11.75 51.6333ZM33.9028 51.9207C39.9497 53.1289 44.9111 54.1215 44.9331 54.1215C44.9551 54.1215 44.9727 56.1247 44.9727 58.6893V63.2616L33.9292 65.4713L22.8857 67.6811L11.8467 65.4713L0.807617 63.2616V58.6983V54.135L2.22705 53.8521C3.00488 53.6949 7.94434 52.7067 13.2002 51.6513C18.4561 50.5958 22.7935 49.7289 22.833 49.7244C22.877 49.7244 27.856 50.7081 33.9028 51.9207Z" fill="#E3E4E6" fill-opacity="0.55"/>
<path d="M12.0576 58.7028V61.5773H12.7388H13.4199V58.7028V55.8283H12.7388H12.0576V58.7028Z" fill="#E3E4E6" fill-opacity="0.55"/>
<path d="M19.2207 58.7028V61.5773H19.8799H20.5391V59.9065C20.5391 58.5097 20.5479 58.2447 20.5962 58.2986C20.6313 58.3345 21.1147 59.089 21.6772 59.9694L22.7012 61.5773H23.3779H24.0547V58.7028V55.8283H23.3955H22.7363V57.544L22.7319 59.2642L22.5693 58.9992C22.4814 58.851 22.0112 58.083 21.5278 57.2925L20.6489 55.8507L19.937 55.8373L19.2207 55.8283V58.7028Z" fill="#E3E4E6" fill-opacity="0.55"/>
<path d="M29.0073 55.8597C28.9897 55.8732 28.9766 57.1667 28.9766 58.7342V61.5773H29.6577H30.3389L30.3477 59.9289L30.3608 58.2761L31.4155 59.9289L32.4702 61.5773H33.1382H33.8105V58.7028V55.8283H33.1514H32.4922V57.544V59.2552L31.4507 57.544L30.4048 55.8283H29.7192C29.3457 55.8283 29.0205 55.8418 29.0073 55.8597Z" fill="#E3E4E6" fill-opacity="0.55"/>
<path d="M5.23291 58.0156L4.93408 58.1324L4.94727 58.2941C4.96045 58.4333 4.97803 58.4558 5.06592 58.4558C5.14941 58.4558 5.18457 58.4198 5.22412 58.303C5.30322 58.056 5.60645 58.0156 5.68994 58.2357C5.75146 58.4108 5.65039 58.5591 5.22412 58.8959C5.00879 59.0666 4.82861 59.2418 4.82861 59.2822C4.82861 59.3451 4.91211 59.354 5.46143 59.3675C6.13818 59.381 6.16895 59.372 6.16895 59.1564C6.16895 59.0531 6.16895 59.0531 5.71191 59.0711C5.45703 59.0801 5.27686 59.0711 5.30322 59.0486C5.33398 59.0307 5.43066 58.9723 5.51855 58.9274C5.77344 58.7881 5.98438 58.577 6.01514 58.4288C6.05469 58.2447 5.9668 58.047 5.82617 57.9931C5.58887 57.8988 5.52734 57.9033 5.23291 58.0156Z" fill="#E3E4E6" fill-opacity="0.55"/>
<path d="M6.84125 57.9886C6.37543 58.1728 6.19086 58.5905 6.39301 59.0037C6.47651 59.1699 6.54682 59.2418 6.70942 59.3271C6.90717 59.4304 6.93793 59.4349 7.1269 59.381C7.57953 59.2597 7.79487 59.0172 7.79487 58.6309C7.79487 58.1054 7.33344 57.7955 6.84125 57.9886ZM7.31586 58.2536C7.55756 58.5141 7.50043 59.0801 7.22358 59.1968C6.94233 59.3136 6.69623 59.089 6.66108 58.6893C6.61713 58.1548 6.99506 57.9033 7.31586 58.2536Z" fill="#E3E4E6" fill-opacity="0.55"/>
<path d="M38.4116 58.0156L38.1128 58.1324L38.126 58.2941C38.1391 58.4333 38.1567 58.4558 38.2446 58.4558C38.3281 58.4558 38.3633 58.4198 38.4028 58.303C38.4599 58.1279 38.5962 58.056 38.7544 58.1189C38.8423 58.1548 38.8642 58.1908 38.8642 58.3165C38.8642 58.5007 38.8071 58.5725 38.3589 58.9274C37.8579 59.3316 37.8711 59.3495 38.6225 59.3675C39.1631 59.3765 39.2422 59.3675 39.2905 59.3001C39.3213 59.2597 39.3476 59.1879 39.3476 59.1384C39.3476 59.0576 39.3169 59.0531 38.8862 59.0711L38.4248 59.089L38.6533 58.9498C39.2158 58.6174 39.374 58.2312 39.0312 58.0156C38.8467 57.8988 38.7192 57.8988 38.4116 58.0156Z" fill="#E3E4E6" fill-opacity="0.55"/>
<path d="M40.02 57.9886C39.6113 58.1503 39.4091 58.5096 39.519 58.8824C39.5893 59.125 39.7167 59.2687 39.9409 59.3585C40.1123 59.4214 40.165 59.4259 40.3364 59.3765C40.789 59.2462 41.0087 58.9498 40.9604 58.5366C40.9077 58.0605 40.477 57.809 40.02 57.9886ZM40.4858 58.2312C40.7099 58.4513 40.6835 58.9768 40.4375 59.1654C40.1738 59.3675 39.831 59.0756 39.831 58.6489C39.831 58.1458 40.1738 57.9258 40.4858 58.2312Z" fill="#E3E4E6" fill-opacity="0.55"/>
</g>
<defs>
<clipPath id="clip0_149_226">
<rect width="45" height="68" fill="white" transform="translate(0.5)"/>
</clipPath>
</defs>
</svg>
