<svg width="109" height="19" viewBox="0 0 109 19" fill="none" xmlns="http://www.w3.org/2000/svg">
<g clip-path="url(#clip0_149_193)">
<path d="M17.7299 0.477439V18.4404C17.7299 18.5739 17.6248 18.6817 17.4947 18.6817H11.1673C11.0722 18.6817 10.9821 18.6201 10.9471 18.5277L4.27937 1.40151C4.18426 1.15509 3.82385 1.22697 3.82385 1.48879V18.4404C3.82385 18.5739 3.71873 18.6817 3.58857 18.6817H0.735272C0.605122 18.6817 0.5 18.5739 0.5 18.4404V0.477439C0.5 0.343961 0.605122 0.236153 0.735272 0.236153H7.03757C7.13268 0.236153 7.22278 0.297758 7.25782 0.390165L13.9506 17.5215C14.0457 17.7679 14.4061 17.696 14.4061 17.4291V0.477439C14.4061 0.343961 14.5112 0.236153 14.6414 0.236153H17.4897C17.6198 0.236153 17.7249 0.343961 17.7249 0.477439H17.7299Z" fill="#E3E4E6" fill-opacity="0.55"/>
<path d="M25.9945 19C23.8821 19 22.2052 18.4199 20.9587 17.2597C19.7173 16.0994 19.0916 14.4207 19.0916 12.2286C19.0916 9.90813 19.6822 8.19346 20.8686 7.0743C22.055 5.96028 23.7269 5.4007 25.8894 5.4007C28.0519 5.4007 29.804 5.97568 31.0404 7.12564C32.2768 8.2756 32.8925 9.98514 32.8925 12.2491V12.9319C32.8925 13.0654 32.7874 13.1732 32.6573 13.1732L22.4304 13.1989C22.2953 13.1989 22.1851 13.3169 22.1951 13.4504C22.2252 13.8406 22.3253 14.1845 22.4905 14.4874C22.6957 14.8571 22.976 15.1651 23.3365 15.4115C23.6919 15.6579 24.1024 15.8479 24.5629 15.9762C25.0234 16.1097 25.519 16.1713 26.0446 16.1713C27.0307 16.1713 27.8317 16.007 28.4474 15.6836C28.998 15.391 29.3584 14.9957 29.5236 14.4977C29.5587 14.395 29.6438 14.3283 29.7439 14.3283H32.3919C32.5421 14.3283 32.6573 14.4772 32.6272 14.626C32.2918 16.1251 31.586 17.2135 30.5148 17.8962C29.3735 18.6252 27.8667 18.9897 25.9895 18.9897L25.9945 19ZM22.4304 11.0427L29.3985 11.0684C29.5336 11.0684 29.6488 10.9503 29.6338 10.8117C29.5987 10.4574 29.4936 10.1392 29.3134 9.8568C29.0931 9.5077 28.8028 9.20994 28.4424 8.97379C28.087 8.73764 27.6865 8.55282 27.256 8.41935C26.8255 8.28587 26.375 8.21913 25.9144 8.21913C25.4539 8.21913 24.9984 8.2756 24.5479 8.38854C24.0973 8.50149 23.6969 8.67603 23.3465 8.90192C22.9961 9.13294 22.7157 9.42043 22.5005 9.76952C22.3253 10.057 22.2202 10.3958 22.1901 10.7809C22.1801 10.9195 22.2903 11.0324 22.4254 11.0376L22.4304 11.0427Z" fill="#E3E4E6" fill-opacity="0.55"/>
<path d="M50.8483 8.64523V13.6198C50.8483 13.8868 50.8734 14.1332 50.9234 14.3591C50.9735 14.5901 51.0586 14.7801 51.1787 14.9392C51.2988 15.0984 51.449 15.2216 51.6242 15.3088C51.8044 15.3961 52.0197 15.4423 52.28 15.4423H54.853C54.9831 15.4423 55.0882 15.5501 55.0882 15.6836V18.4404C55.0882 18.5739 54.9831 18.6817 54.853 18.6817H51.1537C49.9623 18.6817 49.0562 18.2967 48.4455 17.5215C47.8298 16.7514 47.5245 15.7041 47.5245 14.3848V8.64523C47.5245 8.51176 47.4194 8.40395 47.2892 8.40395H45.0516C44.9215 8.40395 44.8163 8.29614 44.8163 8.16266V6.97163C44.8163 6.84842 44.6612 6.79708 44.5911 6.89463L40.9419 12.0797C40.8818 12.1619 40.8818 12.2748 40.9369 12.3621L44.9565 18.2967C45.0616 18.4558 44.9565 18.6766 44.7613 18.6766H41.7077C41.6277 18.6766 41.5576 18.6355 41.5125 18.5739L38.9395 14.8211C38.8444 14.6825 38.6492 14.6825 38.5541 14.8211L35.9561 18.579C35.911 18.6458 35.8359 18.6817 35.7609 18.6817H32.6172C32.422 18.6817 32.3119 18.4558 32.427 18.2967L36.6018 12.4185C36.6619 12.3313 36.6619 12.2235 36.6068 12.1362L32.407 5.88328C32.2969 5.72413 32.407 5.50338 32.6022 5.50338H35.7108C35.7859 5.50338 35.856 5.54445 35.901 5.60605L38.6092 9.57444C38.6993 9.71305 38.8945 9.71305 38.9946 9.57958L41.8429 5.60092C41.8879 5.53932 41.958 5.50338 42.0331 5.50338H45.1067C45.1067 5.50338 45.1417 5.50338 45.1567 5.50851H54.853C54.9831 5.50851 55.0882 5.61632 55.0882 5.7498V8.16266C55.0882 8.29614 54.9831 8.40395 54.853 8.40395H51.0836C50.9534 8.40395 50.8483 8.51176 50.8483 8.64523Z" fill="#E3E4E6" fill-opacity="0.55"/>
<path d="M51.5991 5.0208C51.0986 4.69225 50.8483 4.08133 50.8483 3.18806V0.241286C50.8483 0.107809 50.7381 0 50.608 0H47.7347C47.6045 0 47.4994 0.107809 47.4994 0.241286V1.74034C47.4994 2.66955 47.6045 3.38827 47.8198 3.89651C48.03 4.40989 48.3604 4.77952 48.8009 5.0208C49.2464 5.25696 49.797 5.39557 50.4628 5.44177C51.1286 5.48284 51.9095 5.50851 52.8155 5.50851H53.8868C52.8656 5.50851 52.1047 5.34423 51.5991 5.0208Z" fill="#E3E4E6" fill-opacity="0.55"/>
<path d="M62.1664 18.5174L56.0193 0.554444C55.9642 0.395298 56.0794 0.231018 56.2445 0.231018H59.3481C59.4483 0.231018 59.5384 0.297757 59.5684 0.390164L65.8256 18.5944H65.8757L71.9828 0.395298C72.0178 0.297757 72.1029 0.231018 72.208 0.231018H75.3366C75.4968 0.231018 75.612 0.395298 75.5619 0.554444L69.5149 18.5174C69.4799 18.615 69.3948 18.6817 69.2896 18.6817H62.3917C62.2915 18.6817 62.2014 18.615 62.1664 18.5174Z" fill="#E3E4E6" fill-opacity="0.55"/>
<path d="M80.7378 19C78.6254 19 76.9484 18.4199 75.702 17.2597C74.4606 16.0994 73.8348 14.4207 73.8348 12.2286C73.8348 9.90813 74.4255 8.19346 75.6119 7.0743C76.7983 5.96028 78.4702 5.4007 80.6327 5.4007C82.7952 5.4007 84.5472 5.97568 85.7837 7.12564C87.0201 8.2756 87.6358 9.98514 87.6358 12.2491V12.9319C87.6358 13.0654 87.5307 13.1732 87.4005 13.1732L77.1737 13.1989C77.0385 13.1989 76.9284 13.3169 76.9384 13.4504C76.9685 13.8406 77.0686 14.1845 77.2338 14.4874C77.439 14.8571 77.7193 15.1651 78.0797 15.4115C78.4352 15.6579 78.8456 15.8479 79.3062 15.9762C79.7667 16.1097 80.2623 16.1713 80.7879 16.1713C81.774 16.1713 82.575 16.007 83.1907 15.6836C83.7413 15.391 84.1017 14.9957 84.2669 14.4977C84.302 14.395 84.3871 14.3283 84.4872 14.3283H87.1352C87.2854 14.3283 87.4005 14.4772 87.3705 14.626C87.0351 16.1251 86.3293 17.2135 85.2581 17.8962C84.1167 18.6252 82.61 18.9897 80.7328 18.9897L80.7378 19ZM77.1737 11.0427L84.1418 11.0684C84.2769 11.0684 84.3921 10.9503 84.377 10.8117C84.342 10.4574 84.2369 10.1392 84.0567 9.8568C83.8364 9.5077 83.5461 9.20994 83.1857 8.97379C82.8302 8.73764 82.4298 8.55282 81.9993 8.41935C81.5688 8.28587 81.1183 8.21913 80.6577 8.21913C80.1972 8.21913 79.7417 8.2756 79.2912 8.38854C78.8406 8.50149 78.4402 8.67603 78.0898 8.90192C77.7394 9.13294 77.459 9.42043 77.2438 9.76952C77.0686 10.057 76.9635 10.3958 76.9334 10.7809C76.9234 10.9195 77.0335 11.0324 77.1687 11.0376L77.1737 11.0427Z" fill="#E3E4E6" fill-opacity="0.55"/>
<path d="M89.4479 0.205353H92.146C92.2762 0.205353 92.3813 0.313161 92.3813 0.446639V18.4148C92.3813 18.5482 92.2762 18.656 92.146 18.656H89.4479C89.3178 18.656 89.2126 18.5482 89.2126 18.4148V0.451773C89.2126 0.318295 89.3178 0.210487 89.4479 0.210487V0.205353Z" fill="#E3E4E6" fill-opacity="0.55"/>
<path d="M93.9581 12.2235C93.9581 9.8876 94.6039 8.16266 95.8904 7.0589C97.1769 5.95515 98.9789 5.4007 101.297 5.4007C103.614 5.4007 105.351 5.93461 106.613 7.00757C107.874 8.08052 108.505 9.81573 108.505 12.2286C108.505 14.4926 107.864 16.1918 106.588 17.3161C105.311 18.4404 103.544 19.0051 101.297 19.0051C100.225 19.0051 99.2392 18.8665 98.3432 18.5893C97.4472 18.3121 96.6763 17.886 96.0305 17.3213C95.3848 16.7566 94.8742 16.0481 94.5088 15.201C94.1433 14.354 93.9581 13.3683 93.9581 12.2337V12.2235ZM97.312 12.1978C97.312 12.8806 97.4021 13.4607 97.5773 13.9381C97.7525 14.4156 98.0078 14.8006 98.3482 15.0984C98.6836 15.3961 99.0991 15.6066 99.5947 15.7349C100.09 15.8633 100.656 15.9249 101.297 15.9249C102.508 15.9249 103.454 15.6066 104.135 14.9649C104.816 14.3283 105.156 13.4042 105.156 12.1978C105.156 10.9914 104.821 10.0313 104.15 9.42043C103.479 8.80951 102.528 8.50149 101.302 8.50149C100.075 8.50149 99.1041 8.81978 98.3883 9.4615C97.6724 10.0981 97.317 11.0119 97.317 12.1978H97.312Z" fill="#E3E4E6" fill-opacity="0.55"/>
</g>
<defs>
<clipPath id="clip0_149_193">
<rect width="108" height="19" fill="white" transform="translate(0.5)"/>
</clipPath>
</defs>
</svg>
